<?xml version="1.0" encoding="utf-8"?>
<!-- Generator: Adobe Illustrator 18.1.1, SVG Export Plug-In . SVG Version: 6.00 Build 0)  -->
<!DOCTYPE svg PUBLIC "-//W3C//DTD SVG 1.1//EN" "http://www.w3.org/Graphics/SVG/1.1/DTD/svg11.dtd">
<svg version="1.1" id="Layer_2" xmlns="http://www.w3.org/2000/svg" xmlns:xlink="http://www.w3.org/1999/xlink" x="0px" y="0px"
	 viewBox="0 0 750.5 340.6" style="enable-background:new 0 0 750.5 340.6;" xml:space="preserve">
<style type="text/css">
	.st0{fill:#282830;}
</style>
<g>
	
		<image style="overflow:visible;" width="3062" height="1344" id="Layer_1__x2B__03__x2B__01_xA0_Image" xlink:href="F027D3246332EBE0.png"  transform="matrix(0.24 0 0 0.24 8.64 8.4)">
	</image>
	<g>
		<path class="st0" d="M145.8,200.1c0-0.2,0-0.6,0-1.2c0-0.5,0-1.1-0.1-1.7c0-0.6-0.1-1.2-0.1-1.8s0-1,0-1.2
			c0-5.4,0.4-10.8,1.2-16.2s1.4-10.9,1.8-16.4c0.3-5.6,0.6-11.3,0.8-16.9c0.2-5.7,0.3-11.3,0.3-17.1c0-1.2,0-2.7,0.1-4.5
			c0-1.8-0.1-3.5-0.4-5.2c-0.3-1.7-0.9-3.1-1.8-4.3c-0.9-1.2-2.3-1.8-4.2-1.8c-3.4,0-6.3,0.6-9,1.9c-2.6,1.3-5,3-7.1,5.1
			c-2.1,2.1-4,4.5-5.7,7.3c-1.7,2.7-3.2,5.5-4.6,8.3s-2.7,5.6-4,8.3c-1.3,2.7-2.5,5.2-3.9,7.4l-3.4,18.4v0.5
			c-0.2,0.6-0.4,1.5-0.6,2.6c-0.2,1.1-0.5,2.2-0.7,3.3c-0.2,1.1-0.5,2.1-0.7,2.9c-0.2,0.9-0.4,1.3-0.4,1.4c-0.1,0.3-0.4,1.3-1,3
			c-0.6,1.7-1.3,3.5-2,5.6c-0.7,2-1.5,4.1-2.2,6.2c-0.7,2.1-1.3,3.6-1.6,4.6c-0.5,1.4-1.2,2.2-1.9,2.5c-0.7,0.3-1.7,0.4-3,0.4
			c-0.6,0-1.2-0.1-1.8-0.2c-0.5-0.1-0.8-0.6-0.8-1.3c0-4.4,0.5-8.6,1.6-12.6c1.1-4,2.3-8,3.7-11.8s2.8-7.8,4.2-11.7
			c1.4-3.9,2.4-7.9,3-12.1l5.2-30.4V110L84,121.7c-2,1.1-4.4,2-7.1,2.6c-2.7,0.6-5.1,0.9-7.3,0.9c-2,0-3.6-0.3-4.6-1
			c-1-0.7-1.5-2.1-1.5-4.2c0-1,0.3-1.8,0.9-2.2c0.6-0.5,1.4-0.7,2.2-0.7c0.6,0,1.1,0.1,1.5,0.4s0.7,0.5,1,0.8c0.3,0.3,0.6,0.6,1,0.8
			s0.8,0.4,1.5,0.4c2.6,0,5.2-0.4,7.9-1.3c2.7-0.9,5.3-1.9,7.8-3.2c2.5-1.3,5-2.7,7.4-4.1c2.4-1.4,4.8-2.8,7-4
			c1.1-0.5,2.2-1.2,3.2-1.8c1.1-0.7,2.2-1,3.5-1c1.2,0,2.1,0.4,2.9,1.2c0.8,0.8,1.4,1.7,1.9,2.9c0.5,1.1,0.8,2.3,0.9,3.5
			c0.2,1.2,0.2,2.2,0.2,3.1v0.2c-0.1,0.3-0.2,1.1-0.4,2.2c-0.2,1.2-0.3,2.4-0.5,3.8c-0.2,1.3-0.4,2.6-0.5,3.8
			c-0.2,1.2-0.2,1.9-0.2,2.2c0,0.1,0,0.4-0.1,0.8c0,0.5-0.1,0.8-0.1,0.9c0,0.2,0,0.4,0.1,0.8c0,0.4,0.1,0.7,0.1,0.8
			c1.6-3,3.4-5.9,5.6-8.8c2.2-2.9,4.6-5.6,7.3-7.9c2.7-2.3,5.7-4.2,8.9-5.7c3.2-1.4,6.7-2.2,10.4-2.2c2.7,0,4.9,0.8,6.6,2.5
			c1.6,1.7,2.9,3.7,3.7,6s1.3,4.8,1.6,7.4c0.2,2.6,0.4,4.9,0.4,6.9c0,5.5-0.2,10.9-0.7,16.4c-0.5,5.5-1,10.9-1.6,16.3
			c-0.6,5.4-1.1,10.9-1.6,16.3c-0.5,5.5-0.7,10.9-0.7,16.3c0,0.6,0,1.5-0.1,2.7c0,1.2,0.2,2.1,0.8,2.9h0.2h0.4
			c0.2-0.1,0.5-0.2,1-0.3c0.5-0.1,1-0.2,1.5-0.4c0.5-0.1,1-0.2,1.5-0.3c0.5-0.1,0.9-0.2,1.1-0.2c0.5-0.3,1.4-0.9,2.8-1.7
			c1.4-0.8,2.8-1.7,4.3-2.6c1.5-0.9,2.9-1.8,4.3-2.6c1.3-0.8,2.3-1.4,2.8-1.7c0.6-0.5,1.4-1.2,2.5-2.3c1-1.1,2.1-2.3,3.2-3.8
			c1.1-1.4,2.3-2.9,3.5-4.4s2.2-2.9,3.2-4.2c1-1.3,1.9-2.3,2.6-3.1c0.8-0.8,1.3-1.2,1.6-1.2c0.7,0,1.2,0.3,1.4,0.8
			c0.2,0.5,0.4,1,0.4,1.6c0,2.3-0.8,4.6-2.3,7.1c-1.5,2.5-3.5,5-6,7.4c-2.5,2.4-5.2,4.8-8.3,7c-3,2.3-6.1,4.3-9.1,6
			c-3,1.7-6,3.1-8.7,4.1c-2.8,1-5.1,1.5-6.9,1.5c-0.7,0-1.3-0.2-1.9-0.7c-0.5-0.5-1-1-1.3-1.6c-0.4-0.6-0.6-1.3-0.9-2
			S145.8,200.6,145.8,200.1z"/>
		<path class="st0" d="M185,181.7c0.1-0.4,0.3-1.1,0.7-2.1c0.4-1,0.8-2.1,1.2-3.3c0.4-1.2,0.8-2.3,1.2-3.3c0.4-1,0.7-1.7,0.8-2.1
			c0.5-1.2,0.9-2.1,1.3-2.5c0.4-0.4,1.2-0.6,2.4-0.6c1.2,0,2.1,0.4,2.5,1.3c0.4,0.9,0.6,1.9,0.6,3c0,2-0.3,3.9-0.9,5.6
			c-0.6,1.7-1.2,3.4-1.9,5c-0.7,1.7-1.3,3.5-1.9,5.4c-0.6,1.9-0.9,4.1-0.9,6.6c0,0.3,0,0.8,0,1.3s0,1.2,0.1,1.8
			c0.1,0.6,0.2,1.1,0.5,1.5c0.2,0.4,0.5,0.6,0.9,0.6c2,0,4.1-0.4,6.2-1.2c2.1-0.8,4.1-1.8,6.1-2.9c2-1.1,3.9-2.4,5.7-3.8
			c1.8-1.4,3.5-2.6,5-3.6c0.5-0.4,1-0.8,1.2-1.2c0.3-0.4,0.5-0.8,0.8-1.1s0.5-0.7,0.9-0.9c0.4-0.3,0.9-0.4,1.7-0.4
			c1,0,1.9,0.2,2.5,0.6c0.7,0.4,1,1.2,1,2.3c0,0.5,0,0.9-0.1,1.3c0,0.4-0.3,0.7-0.6,1.1c-0.1,0.2-0.4,0.5-0.9,0.9
			c-0.5,0.4-1,0.8-1.6,1.2c-0.5,0.4-1.1,0.8-1.5,1.2s-0.8,0.6-1.1,0.6c-0.1,0-0.3,0.1-0.6,0.3c-0.4,0.2-0.6,0.3-0.6,0.3
			c-0.1,0.1-0.2,0.2-0.3,0.3s-0.2,0.2-0.2,0.3c-1.6,1.3-3.4,2.5-5.3,3.8c-1.9,1.3-3.9,2.5-6,3.5s-4.3,1.9-6.5,2.6s-4.4,1.1-6.6,1.1
			c-1.9,0-3.3-0.5-4.3-1.5c-1-1-1.7-2.2-2.2-3.7c-0.5-1.5-0.7-3-0.8-4.7c-0.1-1.6-0.1-3.1-0.1-4.5L185,181.7z M190.6,150.9
			c0-1.4,0.3-2.3,0.8-2.8c0.5-0.5,1.5-0.7,2.9-0.7c0.7,0,1.4,0.1,2.1,0.4c0.7,0.3,1.1,0.9,1.1,1.9c0,1-0.5,2-1.5,2.8
			c-1,0.9-1.9,1.3-2.9,1.3s-1.6-0.3-2-0.9C190.8,152.3,190.6,151.7,190.6,150.9z"/>
		<path class="st0" d="M222.5,263.5c-0.4-1.2-0.7-2.3-1-3.3c-0.3-1-0.5-2-0.5-2.9c-0.1-0.9-0.1-1.8-0.2-2.7c0-0.9-0.1-2-0.1-3.2
			c0-0.2,0-0.5,0-0.9c0-0.4,0-0.9,0-1.4c0-0.5,0-1,0.1-1.4c0-0.4,0.1-0.7,0.1-0.9c0.9-3.8,1.8-7.6,2.9-11.3
			c1.1-3.7,2.3-7.3,3.8-10.8c1.5-3.5,3.3-6.8,5.4-9.8c2.1-3.1,4.7-6,7.9-8.6c0.1-0.4,0.2-1.2,0.4-2.3c0.2-1.2,0.4-2.4,0.6-3.6
			c0.2-1.2,0.4-2.4,0.5-3.6c0.1-1.1,0.2-2,0.3-2.5c0-0.2,0-0.5-0.1-1.1c0-0.6-0.1-1-0.1-1.1h-0.4c-2.7,1.4-5.4,2.6-7.9,3.7
			c-2.5,1.1-5.2,1.6-8.2,1.6c-1.6,0-3-0.3-4.2-0.8c-1.1-0.5-2.1-1.3-2.8-2.2s-1.2-2-1.6-3.3c-0.4-1.2-0.6-2.6-0.6-4.1l2.8-8.6
			c0.7-2,1.6-4,2.6-6.3s2.3-4.4,3.6-6.4c1.4-2,2.9-3.9,4.7-5.6c1.8-1.7,3.8-2.9,6.1-3.6c3-0.5,5.9-0.4,8.5,0.2
			c2.6,0.6,4.9,1.5,6.9,2.7c2,1.2,3.5,2.4,4.7,3.8c1.2,1.4,1.9,2.6,2.2,3.6c-0.2,1.2-0.5,2.4-1.1,3.7c-0.5,1.3-1.2,2.6-1.8,3.9
			c-0.7,1.3-1.3,2.5-2,3.5c-0.7,1.1-1.2,1.9-1.5,2.6c-0.6,1.4-1.2,2.9-1.6,4.5c-0.5,1.6-0.9,3.2-1.2,4.8s-0.6,3.3-0.8,5
			c-0.2,1.7-0.3,3.2-0.3,4.6v1.8c4-2.3,8.3-4.2,12.9-5.5c4.6-1.3,9.2-2,13.7-2c0.5,0,1.3,0,2.2,0c0.9,0,1.8,0.1,2.6,0.3
			c0.8,0.2,1.5,0.5,2.2,1.1c0.6,0.5,0.9,1.2,0.9,2.2c0,1.5-0.8,2.2-2.5,2.2c-0.2,0-0.8-0.1-1.6-0.2c-0.9-0.1-1.4-0.3-1.8-0.4
			c-0.5,0.1-1.5,0.2-2.8,0.5c-1.3,0.2-2.8,0.5-4.3,0.8c-1.6,0.3-3,0.6-4.3,0.9c-1.3,0.3-2.3,0.5-2.8,0.6c-0.2,0.1-0.7,0.3-1.3,0.5
			c-0.7,0.3-1.4,0.6-2.2,0.9c-0.8,0.3-1.5,0.6-2.3,0.9c-0.7,0.3-1.2,0.5-1.5,0.8c-0.6,0.2-1.3,0.5-2.2,0.9c-0.8,0.4-1.6,0.9-2.4,1.3
			c-0.8,0.4-1.5,0.8-2.1,1.2s-0.9,0.6-0.9,0.6l-1.2,1.6l-2.8,29.6c-0.2,2-0.8,4.5-1.7,7.4c-0.9,2.9-2.1,5.7-3.6,8.3
			c-1.5,2.7-3.3,4.9-5.4,6.7c-2.1,1.8-4.6,2.8-7.3,2.8c-0.8,0-1.5-0.1-2.1-0.3C223.7,264.6,223.1,264.2,222.5,263.5z M223.7,189.1
			c0.2,0.6,0.6,1.2,1,1.6c0.4,0.5,1,0.7,1.8,0.7c3.2,0,6.1-0.7,8.6-2.1c2.5-1.4,4.8-3.1,6.7-5.3c2-2.2,3.7-4.6,5.1-7.1
			c1.4-2.6,2.7-5.2,3.7-7.7v-0.5c-1.3-2.6-2.7-4.2-4.3-5c-1.6-0.7-3.3-0.9-5-0.4c-1.8,0.5-3.5,1.5-5.3,3c-1.8,1.5-3.5,3.2-5.1,5.2
			c-1.6,1.9-3,3.9-4.3,6c-1.3,2.1-2.2,4-2.9,5.8s-1.1,3.2-1.2,4.3C222.5,188.8,222.9,189.2,223.7,189.1z M226.5,252
			c0.1,0.7,0.2,1.7,0.3,3c0.1,1.3,0.4,2.4,0.8,3.3c1.5-0.4,2.9-1.5,4.1-3.2c1.2-1.8,2.3-3.7,3.2-5.9c0.9-2.2,1.6-4.4,2.1-6.5
			c0.5-2.1,0.9-3.8,1.1-5c0.3-1.8,0.6-3.5,0.8-5.1c0.2-1.6,0.4-3.1,0.5-4.6c0.2-1.4,0.3-2.9,0.4-4.3c0.1-1.4,0.1-2.9,0.1-4.6
			c0-0.2,0-0.8-0.1-1.6c0-0.8-0.1-1.3-0.1-1.6c-2.1,2.7-3.9,5.5-5.3,8.3s-2.6,5.7-3.6,8.6c-1,2.9-1.8,6-2.5,9.1
			C227.7,245.3,227.1,248.6,226.5,252z"/>
		<path class="st0" d="M301.3,179.9c-0.2-0.3-0.4-0.8-0.8-1.3s-0.8-0.9-1.2-0.9c-1.5,0-3,0.6-4.5,1.9s-3,2.8-4.3,4.6
			c-1.4,1.8-2.5,3.5-3.5,5.3c-1,1.8-1.6,3.2-1.8,4.2c-0.3,1-0.5,2.2-0.5,3.6s-0.1,2.7-0.3,4c-0.2,1.3-0.6,2.3-1.3,3.2
			c-0.7,0.9-1.8,1.3-3.5,1.3c-1,0-1.7-0.2-2.1-0.6c-0.4-0.4-0.5-1.2-0.5-2.2c0.5-3.8,1-6.8,1.5-9.3c0.4-2.4,0.8-4.5,1.2-6.4
			c0.4-1.8,0.7-3.6,1.1-5.4s0.8-3.9,1.2-6.4c0.5-2.5,1-5.6,1.5-9.2c0.5-3.6,1.2-8.3,2-13.9c0-1.2,0.1-2.8,0.2-5
			c0.2-2.1,0.4-4.5,0.9-6.9c0.4-2.5,1-5,1.7-7.5c0.7-2.5,1.6-4.8,2.6-6.9c1.1-2,2.3-3.7,3.7-5s3-1.9,4.9-1.9c1.3,0,2.4,0.5,3.2,1.3
			c0.8,0.9,1.4,2,1.9,3.2c0.4,1.3,0.7,2.6,0.8,3.9c0.1,1.4,0.1,2.5,0.1,3.3c0,2-0.2,3.8-0.5,5.6c-0.3,1.8-0.7,3.5-1.2,5.3
			s-1,3.5-1.5,5.3c-0.5,1.8-1,3.5-1.4,5.2l-7.5,14.3l-4.2,9.1l0.6,1.3c1.6-2,3.3-3.5,5-4.5c1.7-1.1,3.9-1.7,6.4-1.8
			c1.2-0.1,2.2,0.3,3,1.1c0.8,0.8,1.5,1.8,2.1,3c0.5,1.2,1,2.4,1.2,3.7c0.3,1.3,0.4,2.3,0.5,3c0,0.5,0,1.2-0.1,2.2
			c-0.1,1-0.2,2.2-0.2,3.5c-0.1,1.3-0.1,2.7-0.2,4.2c0,1.4,0,2.8,0.2,4c0.2,1.3,0.5,2.3,1,3.2c0.5,0.9,1.2,1.4,2.1,1.6
			c3-0.4,5.8-0.9,8.1-1.6c2.4-0.7,4.5-1.6,6.3-2.8c1.8-1.2,3.3-2.8,4.5-4.6c1.2-1.9,2.1-4.2,2.8-6.9c0.5-0.8,1.3-1.2,2.3-1.2
			c1.2,0,1.9,0.4,2.3,1.3c0.4,0.9,0.5,1.8,0.5,2.8c0,3.1-1,5.9-3,8.3c-2,2.4-4.5,4.4-7.6,5.9c-3,1.6-6.3,2.8-9.8,3.6
			s-6.8,1.2-9.7,1.2c-1.9,0-3.2-0.6-3.9-1.9s-1.1-2.9-1.2-4.7c-0.1-1.8-0.1-3.7-0.1-5.6c0.1-1.9,0.1-3.4,0-4.6c0-0.4,0-1-0.1-1.9
			c-0.1-0.9-0.2-1.9-0.3-2.9c-0.1-1-0.3-2-0.4-2.9C301.4,181,301.3,180.3,301.3,179.9z M291.7,151.8c0,0.2,0,0.6,0,1.2
			c0,0.5,0,1.1,0.1,1.5c0,0.5,0.1,0.9,0.1,1.3c0,0.4,0,0.6,0,0.7l0.6,0.6c0.8-0.5,1.5-1.3,2.2-2.5c0.7-1.2,1.3-2.6,1.8-4.2
			c0.5-1.6,1-3.4,1.5-5.2c0.4-1.8,0.8-3.7,1.1-5.4c0.3-1.8,0.6-3.4,0.8-4.9c0.2-1.5,0.3-2.7,0.3-3.6c0-0.3,0-0.9-0.1-1.8
			c0-0.9-0.1-1.4-0.2-1.5l-0.6-1.2c-1.9,1.5-3.3,3.2-4.3,5.3c-1,2-1.8,4.1-2.2,6.3c-0.5,2.2-0.7,4.5-0.8,6.8
			C291.7,147.5,291.7,149.7,291.7,151.8z"/>
		<path class="st0" d="M334.8,174.9c0.2-0.3,0.5-0.8,0.9-1.5c0.5-0.7,0.7-1.2,0.7-1.7v-0.4c0-0.1-0.1-0.2-0.2-0.3
			c-0.2-0.1-0.3-0.2-0.4-0.2h-2.1c-2,0.6-4.3,1.1-6.9,1.3c-2.5,0.2-5,0.3-7.4,0.2c-2.4-0.1-4.4-0.3-6.2-0.6c-1.7-0.4-2.7-0.8-3-1.2
			c-0.3-0.5,0.3-1,1.8-1.7c1.5-0.7,4.3-1.3,8.4-2.1c0.2,0,0.8-0.1,1.6-0.3c0.8-0.2,1.7-0.4,2.7-0.5c1-0.2,1.9-0.3,2.8-0.5
			c0.9-0.2,1.4-0.3,1.6-0.3c0.3-0.1,1-0.1,2-0.2c1,0,2.1-0.1,3.1-0.2c1.1-0.1,2.1-0.1,3-0.1c1,0,1.7,0,2.1,0l0.6-0.7l9.1-15.4
			c0.3-0.5,0.9-1,1.7-1.3c0.8-0.3,1.5-0.5,1.9-0.5c1,0,1.7,0.4,2.1,1.2c0.4,0.8,0.6,1.6,0.6,2.4c0,0.1,0,0.2-0.1,0.2
			c0,0.1-0.1,0.2-0.1,0.2v0.5l-5.2,12.5v0.7c0.2-0.5,0.4-0.7,0.9-0.7c0.4,0,0.8,0,1,0c1.2,0,2.3,0.4,3.4,1.2
			c1.1,0.8,1.6,1.8,1.6,3.2c0,0.6-0.2,1.1-0.6,1.5c-0.4,0.4-0.9,0.7-1.4,0.9c-0.5,0.2-1.1,0.4-1.8,0.5c-0.6,0.1-1.2,0.2-1.6,0.2
			c-0.9,0-1.8-0.1-2.6-0.4s-1.7-0.4-2.6-0.4c-0.9,0-1.6,0.5-2.3,1.3c-0.7,0.9-1.3,2.1-1.9,3.5c-0.6,1.4-1.1,3.1-1.5,4.9
			c-0.4,1.8-0.7,3.6-1.1,5.3c-0.3,1.7-0.5,3.3-0.6,4.8c-0.1,1.5-0.2,2.6-0.2,3.4c0,0.3,0,0.9,0.1,1.9c0,0.9,0.1,1.6,0.1,1.9
			c0.1,0.5,0.3,0.9,0.6,1.2c0.3,0.4,0.6,0.7,0.9,1.1h2.7c3.1,0,6.2-0.7,9.3-2.1c3.1-1.4,6-3,8.7-4.8c0.2-0.1,0.5-0.4,1.1-1.1
			c0.6-0.7,1.2-1.3,1.9-2c0.7-0.7,1.3-1.3,1.9-1.8c0.6-0.5,1-0.8,1.2-0.8c0.5,0,1.1,0.3,1.5,0.8c0.5,0.5,0.7,1.1,0.7,1.8
			c0,1.5-0.5,2.9-1.6,4.3s-2.4,2.7-4,3.9c-1.6,1.2-3.5,2.3-5.6,3.3c-2.1,1-4.2,1.9-6.3,2.6c-2.1,0.7-4,1.3-5.9,1.6
			c-1.8,0.4-3.3,0.6-4.5,0.6c-1.1,0-2.2-0.1-3.4-0.4c-1.2-0.3-2.2-0.7-3.2-1.3c-0.9-0.6-1.7-1.4-2.3-2.3c-0.6-0.9-0.9-2.1-0.9-3.5
			v-13L334.8,174.9z"/>
		<path class="st0" d="M369,147.8c-0.7-4.4-1.4-8.5-2.1-12.5c-0.7-3.9-1-8.1-1-12.4c0-0.2,0-0.8,0.1-1.6c0-0.9,0.1-1.4,0.1-1.6
			c0.2-0.7,0.6-1.1,1.1-1.1c0.5,0,1,0,1.5,0c1.1,0,1.9,0.5,2.5,1.4s1,2,1.3,3.2c0.3,1.2,0.4,2.5,0.5,3.8c0,1.3,0.1,2.3,0.1,3.1
			c0,1,0,2.6-0.1,4.8c0,2.2-0.2,4.4-0.4,6.6c-0.2,2.2-0.5,4.1-0.8,5.9c-0.3,1.7-0.7,2.6-1.3,2.6h-0.4c-0.1,0-0.2,0-0.2-0.1
			c-0.1-0.2-0.2-0.5-0.5-1C369.2,148.3,369,148,369,147.8z"/>
		<path class="st0" d="M388.7,189.8c-0.6,0.3-1.3,0.5-2,0.5c-0.7,0-1.4,0.1-2.1,0.1s-1.4,0-2.1,0.1c-0.7,0-1.4,0.2-2.1,0.5
			c-1.3,0.2-2.2,0.1-2.6-0.3c-0.4-0.4-0.5-0.8-0.4-1.5c0.2-0.6,0.6-1.3,1.3-2.1c0.7-0.8,1.5-1.4,2.4-2c0.9-0.5,1.9-0.9,2.9-1.2
			s2-0.2,2.9,0.1c-0.4-1.4-0.4-2.6,0.1-3.6c0.5-1,1.4-1.5,2.8-1.5c0.7,0,1.3,0.1,1.9,0.2s1,0.5,1.3,1c1.2-0.7,2.7-1.9,4.7-3.6
			c2-1.7,4-3.4,6-5.2c2.1-1.8,4-3.3,5.7-4.7c1.7-1.4,2.9-2.1,3.5-2.1c0.2,0,0.5,0,0.9,0.1c0.4,0,0.8,0.1,1.2,0.3
			c0.4,0.2,0.8,0.3,1.1,0.5c0.3,0.2,0.4,0.5,0.4,0.9v5c-0.5,2.2-1.1,4.2-1.6,6.2c-0.5,1.9-0.9,3.8-1.3,5.6c-0.4,1.8-0.6,3.7-0.8,5.6
			c-0.2,1.9-0.2,3.9-0.2,6c1.2,0,2.8-0.3,4.5-0.8c1.8-0.5,3.5-1.2,5.3-2c1.8-0.8,3.5-1.6,5-2.4c1.6-0.8,2.8-1.5,3.8-2.1
			c0.2-0.1,0.5-0.4,1.1-0.8c0.5-0.5,1.1-1,1.8-1.5c0.6-0.5,1.2-1,1.8-1.4c0.6-0.4,1-0.7,1.1-0.9c0.2-0.2,0.5-0.4,1.2-0.6
			c0.6-0.3,1-0.4,1.1-0.5c0.3-0.1,0.6,0,0.9,0.3c0.3,0.3,0.5,0.6,0.8,0.9s0.4,0.7,0.5,1.1s0.2,0.6,0.2,0.6c0,0.8-0.3,1.6-0.9,2.3
			c-0.6,0.8-1.4,1.5-2.2,2.2c-0.9,0.7-1.7,1.3-2.6,1.9c-0.9,0.6-1.6,1.1-2.1,1.6c-0.6,0.3-1.7,0.8-3.2,1.5s-3.1,1.4-4.9,2.2
			c-1.7,0.8-3.3,1.5-4.9,2.2s-2.6,1.2-3.2,1.5c-0.2,0.1-0.5,0.2-1.1,0.3c-0.5,0.1-1.1,0.3-1.8,0.5c-0.6,0.2-1.2,0.4-1.8,0.5
			s-1,0.2-1.1,0.3c-0.7,0.2-1.2,0.6-1.6,1.2c-0.4,0.5-0.7,1.1-1.1,1.6c-0.4,0.5-0.8,1-1.3,1.4c-0.5,0.4-1.3,0.5-2.4,0.4
			c-0.1-0.1-0.4-0.3-1-0.5c-0.6-0.3-1-0.5-1.1-0.6c-1.9-1.3-3.5-2.6-4.8-3.8c-1.3-1.2-2.5-2.3-3.6-3.5c-1.1-1.1-2.1-2.4-3.1-3.7
			C391.1,192.9,390,191.4,388.7,189.8z M396.1,185.1c0.5,1.2,1.1,2.3,1.6,3.4c0.5,1.1,1.1,2.1,1.8,3.1c0.7,1,1.5,1.8,2.4,2.5
			c0.9,0.7,2,1.1,3.3,1.3c0.2-1.2,0.4-2.6,0.6-4.2s0.5-3.4,0.8-5.2c0.3-1.8,0.7-3.6,1.1-5.3c0.4-1.8,0.9-3.3,1.5-4.6H408
			c-1.3,0.9-2.4,1.7-3.5,2.6c-1,0.8-2,1.5-3,2.3c-1,0.7-1.8,1.4-2.5,1.9c-0.1,0.1-0.2,0.2-0.4,0.4c-0.2,0.2-0.3,0.2-0.4,0.2
			c-0.1,0.2-0.4,0.4-1.1,0.8C396.6,184.7,396.2,184.9,396.1,185.1z M409.2,174.3c-0.2,0-0.4,0.2-0.4,0.5s0.1,0.5,0.4,0.5
			c0.3,0,0.5-0.2,0.5-0.5S409.5,174.3,409.2,174.3z"/>
		<path class="st0" d="M519.6,186.8l-22.9,14.9h-0.7c-0.8,0-1.5-0.2-2.3-0.6c-0.7-0.4-1.1-1.1-1.1-2c0-0.6,0.2-1.2,0.5-1.7
			c0.4-0.5,0.8-1,1.3-1.3c0.6-0.5,1.8-1.2,3.4-2.1s3.4-2,5.2-3.1c1.8-1.1,3.5-2.2,5.2-3.1c1.7-0.9,2.8-1.6,3.5-2
			c0.3-0.3,0.8-0.7,1.4-1.1c0.6-0.4,1.2-0.9,1.7-1.3c0.5-0.4,1-0.8,1.3-1.1c0.4-0.3,0.6-0.5,0.6-0.6l-9-18.3c-0.4-0.5-0.6-1-0.6-1.3
			c0-0.4-0.1-0.8-0.1-1.5c0-2.3,1.1-3.5,3.4-3.5c0.3,0,1,0.2,2.2,0.6c1.1,0.4,2.5,1,4.2,1.8c1.6,0.7,3.4,1.5,5.2,2.4
			c1.8,0.9,3.4,1.6,4.9,2.3c1.5,0.7,3.2,1.6,5.3,2.6l10.4-10.8c0.2-0.9,0.9-2.1,2.1-3.4c1.1-1.3,2.3-2.7,3.6-4.2
			c1.2-1.5,2.3-3,3.3-4.5s1.4-2.9,1.4-4.2v-0.4l-8.1-18.9c-0.8-1.8-1.3-3.7-1.5-5.8c-0.2-2.1-0.3-4.1-0.3-6.2c0-1.7,0.3-3.5,0.8-5.2
			c0.5-1.8,1.3-3.3,2.4-4.7s2.3-2.6,3.8-3.5c1.5-0.9,3.2-1.3,5.3-1.3c2.1,0,3.8,0.6,5.2,1.8c1.4,1.2,2.5,2.7,3.3,4.5
			c0.8,1.8,1.4,3.7,1.7,5.7c0.3,2,0.5,3.8,0.5,5.4c0,4.7-0.5,9.2-1.6,13.4c-1.1,4.3-2.5,8.6-4.3,13.1v1.6c1.8,3.4,3.6,6.8,5.5,10.4
			c1.9,3.6,3.6,7.3,5,11.2c1.5,3.9,2.7,7.7,3.6,11.6s1.4,7.8,1.4,11.7c0,3-0.5,5.9-1.5,8.5c-1,2.6-2.4,4.9-4.2,6.9
			c-1.8,2-4,3.5-6.5,4.6c-2.5,1.1-5.4,1.6-8.5,1.6c-3.5,0-6.9-0.5-10-1.6s-6.2-2.5-9.1-4.2s-5.7-3.8-8.3-6c-2.6-2.3-5.1-4.6-7.3-7.1
			H519.6z M516.3,167.4c0,0.2,0.1,0.5,0.2,0.9c0.1,0.4,0.2,0.7,0.3,0.9c0.3,0.5,0.7,1.3,1.2,2.2c0.5,0.9,1,1.8,1.5,2.6
			c0.5,0.8,0.9,1.6,1.3,2.2c0.4,0.7,0.6,1,0.6,1h0.5c0.2,0,0.7-0.3,1.4-1c0.7-0.7,1.4-1.4,2.2-2.1c0.8-0.7,1.5-1.4,2.1-2.1
			c0.6-0.7,1-1,1.1-1.1l-0.6-0.6l-10.2-2.9H516.3z M525.5,182.9c0,0.1,0.2,0.4,0.6,0.8c0.4,0.5,0.9,1,1.5,1.6s1.2,1.2,1.8,1.8
			c0.6,0.6,1.2,1.1,1.6,1.5c0.2,0.2,0.6,0.6,1.2,1c0.6,0.4,1.2,0.9,1.8,1.4c0.6,0.5,1.1,1,1.6,1.4c0.5,0.4,0.8,0.7,1,0.8
			c0.5,0.2,1.2,0.6,2.1,1.2c0.9,0.5,1.9,1.1,2.8,1.6c0.9,0.5,1.8,1.1,2.7,1.5c0.9,0.5,1.4,0.7,1.5,0.8c1.8,0.8,3.5,1.3,5,1.5
			c1.5,0.2,3.1,0.3,4.6,0.3c2.3,0,4.4-0.4,6-1.3c1.7-0.9,3.1-2.1,4.2-3.6c1.1-1.5,1.9-3.3,2.4-5.3c0.5-2,0.8-4,0.8-6
			c0-2.2-0.2-4.5-0.5-6.8s-0.9-4.6-1.7-6.7l-10.2-24.5l-9.3,13l-21.7,23.6V182.9z M549.3,108.5c0,4.4,0.7,8.3,2,11.9
			c1.3,3.6,3,7.2,5,11.1c0.4-0.2,0.7-0.7,1.1-1.5c0.3-0.7,0.6-1.6,0.8-2.5c0.2-0.9,0.4-1.7,0.6-2.5c0.2-0.8,0.3-1.2,0.4-1.4
			c0-0.2,0.1-0.5,0.2-1.2c0.1-0.6,0.2-1.3,0.3-2.2c0.1-0.8,0.2-1.6,0.3-2.4c0.1-0.8,0.2-1.4,0.3-1.8v-0.4c0-0.3,0-1.3-0.1-2.9
			c0-1.6-0.2-3.4-0.4-5.3c-0.2-1.9-0.7-3.6-1.3-5.2c-0.6-1.5-1.6-2.3-2.8-2.3c-1.3,0-2.3,0.2-3.2,0.7c-0.9,0.5-1.5,1.1-1.9,1.9
			c-0.4,0.8-0.7,1.7-0.9,2.7C549.4,106.3,549.3,107.4,549.3,108.5z"/>
		<path class="st0" d="M575.9,205.8c-0.1-0.2-0.1-0.7-0.1-1.5c0-0.8,0-1.3,0-1.5c0-2.5,0.4-4.9,1.3-7.3c0.9-2.4,2-4.7,3.3-6.9
			l6.3-16.5l6.2-23l5.2-10.2c0.2-0.4,0.4-0.6,0.9-0.6c0.4,0,0.8,0,1.2,0c1.6,0,2.7,0.6,3,1.8c0.4,1.2,0.6,2.4,0.6,3.7
			c0,4.7-0.7,9.1-2.1,13.2s-3.2,8.1-5.4,12.1c1.4-0.9,2.8-1.6,4.3-2.1c1.4-0.5,3-0.8,4.6-0.8c2,0,3.7,0.4,4.9,1.1
			c1.2,0.7,2.6,1.9,4,3.6c0.1,0.2,0.1,0.7,0.1,1.5c0,0.9,0,1.4,0,1.6c0,2.3-0.5,4.6-1.6,6.7c-1.1,2.1-2.5,4-4.2,5.7
			c-1.7,1.7-3.6,3.3-5.7,4.6c-2.1,1.4-4.2,2.4-6.3,3.1v0.6c0,0.8,0.2,1.5,0.7,2.1s1,1.1,1.6,1.5c0.6,0.4,1.3,0.7,2,0.9
			c0.7,0.2,1.4,0.3,2,0.3c1.7,0,3.5-0.1,5.4-0.2c1.9-0.2,3.7-0.4,5.6-0.9c1.8-0.4,3.6-1,5.2-1.6c1.6-0.7,3.1-1.5,4.5-2.6
			c0.6-0.5,1.3-1.2,2-2.2c0.7-1,1.4-2,2.1-3c0.7-1,1.3-1.9,1.9-2.7c0.6-0.8,1-1.2,1.3-1.2c0.9,0,1.6,0.4,2.1,1.2
			c0.4,0.8,0.6,1.6,0.6,2.4c0,0.1,0,0.3-0.1,0.5c0,0.3-0.1,0.5-0.1,0.5c-1.5,3.1-3.2,5.7-5.1,7.8c-1.9,2.1-4.1,3.7-6.5,4.9
			c-2.4,1.2-5.1,2.1-8.1,2.6c-3,0.5-6.3,0.8-10,0.8c-3.1,0-5.8-0.6-7.9-1.7c-2.1-1.1-3.9-3.1-5.3-5.8c-0.1-0.3-0.2-0.7-0.4-1.2
			c-0.2-0.5-0.4-1-0.6-1.5c-0.2-0.5-0.5-1-0.8-1.5c-0.3-0.5-0.7-0.8-1.2-0.9l-5.6,12c-0.2,0.5-0.7,0.9-1.3,1.1
			c-0.7,0.2-1.3,0.2-1.8,0.2c-0.5,0-0.9,0-1.3-0.1C576.7,206.3,576.3,206.1,575.9,205.8z M591.3,183.7c0,0.2,0.1,0.6,0.4,1.2
			c0.2,0.5,0.5,1.1,0.8,1.6c0.3,0.5,0.6,1,1,1.5c0.4,0.4,0.7,0.6,1,0.6c0.3,0,0.7-0.1,1.2-0.3c0.5-0.2,1-0.4,1.5-0.6
			c0.5-0.2,1-0.4,1.3-0.6c0.4-0.2,0.7-0.5,0.9-0.7c0.2-0.3,0.7-0.8,1.3-1.5c0.6-0.7,1.3-1.4,2.1-2.2c0.7-0.8,1.4-1.5,2.1-2.2
			c0.7-0.7,1.1-1.2,1.2-1.5c0.1-0.2,0.2-0.4,0.4-0.8c0.2-0.4,0.4-0.8,0.6-1.2c0.2-0.4,0.4-0.8,0.5-1.2c0.2-0.4,0.3-0.7,0.4-0.8
			c0-0.1,0-0.2,0-0.3s0-0.2,0-0.3c0-0.2,0-0.4-0.1-0.6c0-0.2-0.3-0.4-0.6-0.5H605c-0.9,0-1.8,0.1-2.6,0.2s-1.7,0.5-2.5,1
			c-0.2,0.2-0.7,0.6-1.4,1.2s-1.4,1.2-2.1,1.9c-0.7,0.7-1.4,1.3-2.1,1.9c-0.7,0.6-1.1,1-1.3,1.2c-0.2,0.2-0.5,0.7-0.9,1.5
			C591.6,182.8,591.3,183.4,591.3,183.7z"/>
		<path class="st0" d="M619.6,235.8c0-5.1,1.1-9.7,3.3-14c2.2-4.3,5.1-8.1,8.6-11.6c3.5-3.5,7.3-6.6,11.6-9.3
			c4.3-2.7,8.4-5.1,12.5-7.1l3.4-10.9c-0.4,0.5-1.2,1.3-2.3,2.3c-1.1,1.1-2.3,2.2-3.6,3.5c-1.3,1.2-2.5,2.3-3.6,3.4s-2,1.8-2.5,2.2
			c-0.9,0.8-2.1,1.7-3.4,2.7c-1.3,1-2.8,2-4.3,2.9c-1.5,0.9-3.1,1.6-4.6,2.2c-1.6,0.6-3,0.9-4.2,0.9c-1.7,0-2.8-0.4-3.3-1.2
			c-0.5-0.8-0.8-2-0.8-3.6c0-1.2,0.1-2.5,0.3-3.9c0.2-1.3,0.1-2.7-0.2-4l4.6-12.4c0.7-0.7,1.4-1.8,2.1-3.3c0.7-1.5,1.3-3,2-4.5
			c0.7-1.5,1.4-2.8,2.1-3.9c0.7-1.1,1.5-1.6,2.4-1.6c0.9,0,1.7,0.3,2.4,0.8c0.7,0.5,1,1.3,1,2.3c0,0.8-0.1,1.5-0.3,2.1
			c-0.2,0.6-0.5,1.3-0.9,2.3c-1,2.1-2,4.1-3,6c-1,1.9-1.9,3.8-2.7,5.6s-1.5,3.8-2,5.8c-0.5,2-0.8,4.2-0.8,6.6h0.5
			c0.9-0.5,1.7-1,2.3-1.3s1.2-0.7,1.8-1.1c0.6-0.4,1.2-0.7,1.6-1.1c4.3-2.8,8.1-6.1,11.4-9.9c3.3-3.8,6.5-7.7,9.7-11.8
			c0.3-0.5,0.6-0.8,0.8-1.1s0.4-0.4,0.6-0.5c0.2-0.1,0.4-0.2,0.6-0.2s0.6,0,1.1,0c1.1,0,2,0.2,2.6,0.6c0.7,0.4,1.1,1.4,1.2,2.9
			c0.1,1,0,2.2-0.2,3.7c-0.2,1.4-0.5,2.9-0.9,4.3c-0.4,1.4-0.8,2.8-1.2,4.2c-0.4,1.4-0.8,2.4-1.1,3.2v1.8c0.2-0.1,0.5-0.2,1.1-0.4
			c0.6-0.2,1-0.3,1.2-0.4c0.5-0.1,1.8-0.5,3.9-1.3c2.1-0.8,4.4-1.6,6.9-2.5c2.5-0.9,4.7-1.7,6.9-2.5c2.1-0.8,3.4-1.3,4-1.5h0.2
			c0.5,0,1,0.2,1.5,0.6c0.4,0.4,0.6,0.9,0.6,1.4c0,0.5-0.2,1-0.5,1.4c-0.4,0.4-0.8,0.7-1.2,1c-0.5,0.3-1,0.5-1.5,0.8
			c-0.5,0.2-1,0.4-1.4,0.6c-0.5,0.3-1.3,0.7-2.3,1.1c-1,0.4-2.2,0.9-3.5,1.4c-1.3,0.5-2.6,1.1-4,1.7c-1.4,0.6-2.8,1.2-4.1,1.8
			c-3.2,1.3-6.7,2.7-10.4,4.2L651,236.1c-0.5,1.9-1.3,3.8-2.6,5.9c-1.3,2-2.8,3.9-4.5,5.6c-1.7,1.7-3.6,3.1-5.7,4.2
			c-2.1,1.1-4.2,1.6-6.3,1.6c-2.2,0-4.1-0.6-5.6-1.7c-1.6-1.1-2.9-2.6-3.9-4.3c-1-1.8-1.7-3.7-2.2-5.7
			C619.8,239.5,619.6,237.6,619.6,235.8z M625.9,235.8c0,1,0.1,2.1,0.3,3.4c0.2,1.2,0.6,2.5,1.1,3.6c0.5,1.2,1.2,2.1,2.1,2.9
			c0.8,0.8,1.9,1.2,3.2,1.2c1.7,0,3.3-0.5,4.7-1.6c1.4-1.1,2.7-2.3,3.9-3.9c1.1-1.5,2.1-3.1,2.9-4.9c0.8-1.7,1.4-3.2,1.9-4.6
			c0.2-0.9,0.6-2.2,1.1-3.9c0.5-1.7,0.9-3.3,1.3-5c0.4-1.6,0.8-3.1,1.1-4.4c0.3-1.3,0.5-2.1,0.5-2.3V216l3.4-14.8
			c-3.1,1-6.3,2.7-9.6,5.2c-3.2,2.4-6.2,5.2-8.8,8.4c-2.7,3.2-4.8,6.6-6.5,10.3C626.7,228.8,625.9,232.4,625.9,235.8z"/>
	</g>
</g>
</svg>
