<svg xmlns="http://www.w3.org/2000/svg" xmlns:xlink="http://www.w3.org/1999/xlink" width="500" height="500" viewBox="0 0 500 500"><style type="text/css">.st0{fill:#769641;} .st1{fill:#14CCCA;} .st2{clip-path:url(#SVGID_2_);fill:#DDB904;} .st3{clip-path:url(#SVGID_2_);fill:#CC301F;} .st4{clip-path:url(#SVGID_2_);fill:#FFA100;} .st5{clip-path:url(#SVGID_4_);fill:#B31605;} .st6{clip-path:url(#SVGID_6_);fill:#A69F7F;} .st7{fill:#ADD8E6;} .st8{fill:#A0CEDE;} .st9{fill:#DDD4AA;} .st10{fill:#A69F7F;} .st11{fill:#AA9736;} .st12{fill:#DDD29A;} .st13{fill:#4F61EB;} .st14{fill:#CC301F;} .st15{fill:#B31605;} .st16{fill:#FFA100;}</style><g id="Jupiter"><defs><circle id="SVGID_1_" cx="-830" cy="250" r="184.6"/></defs><clipPath id="SVGID_2_"><use xlink:href="#SVGID_1_" overflow="visible"/></clipPath></g><g id="Mars"><defs><circle id="SVGID_3_" cx="-290" cy="250" r="184.6"/></defs><use xlink:href="#SVGID_3_" overflow="visible" fill="#CC301F"/><clipPath id="SVGID_4_"><use xlink:href="#SVGID_3_" overflow="visible"/></clipPath></g><path d="M0 0h500v500h-500z" id="Layer_11"/><g id="Mercury"><defs><circle id="SVGID_5_" cx="250" cy="250" r="184.6"/></defs><use xlink:href="#SVGID_5_" overflow="visible" fill="#DDD4AA"/><clipPath id="SVGID_6_"><use xlink:href="#SVGID_5_" overflow="visible"/></clipPath><path class="st6" d="M45.7 139.3l99.7-10.2-60.6 98.4 11 45.8 32.8 29.2 33.4-9.2v24.7l8.1 36.6 18.1-34.9 28.4 43.9s-15.7 28.4-11.8 28.4c3.9 0 63.1 10.1 63.1 10.1v-60.1l-7.4-48.6 51.7 9.2 11.6 26.2 12.9-1.3 12.9-31.8-33.6-26.2 62-29.9 7.8 33.8 27.1 20 12.9-49.9-53-29.2 12.9-54.6 40.1-20 62 202.5-129 144.2-241.6-15.5-98.2-159.1 26.7-172.5z"/></g></svg>