<svg xmlns="http://www.w3.org/2000/svg" xmlns:xlink="http://www.w3.org/1999/xlink" width="500" height="500" viewBox="0 0 500 500"><style type="text/css">.st0{fill:#769641;} .st1{fill:#14CCCA;} .st2{clip-path:url(#SVGID_2_);fill:#DDB904;} .st3{clip-path:url(#SVGID_2_);fill:#CC301F;} .st4{clip-path:url(#SVGID_2_);fill:#FFA100;} .st5{clip-path:url(#SVGID_4_);fill:#B31605;} .st6{clip-path:url(#SVGID_6_);fill:#A69F7F;} .st7{fill:#ADD8E6;} .st8{fill:#A0CEDE;} .st9{fill:#DDD4AA;} .st10{fill:#A69F7F;} .st11{fill:#AA9736;} .st12{fill:#DDD29A;} .st13{fill:#4F61EB;} .st14{fill:#CC301F;} .st15{fill:#B31605;} .st16{fill:#FFA100;}</style><g id="Jupiter"><defs><circle id="SVGID_1_" cx="250" cy="-290" r="184.6"/></defs><clipPath id="SVGID_2_"><use xlink:href="#SVGID_1_" overflow="visible"/></clipPath></g><g id="Mars"><defs><circle id="SVGID_3_" cx="790" cy="-290" r="184.6"/></defs><use xlink:href="#SVGID_3_" overflow="visible" fill="#CC301F"/><clipPath id="SVGID_4_"><use xlink:href="#SVGID_3_" overflow="visible"/></clipPath></g><g id="Mercury"><defs><circle id="SVGID_5_" cx="1330" cy="-290" r="184.6"/></defs><use xlink:href="#SVGID_5_" overflow="visible" fill="#DDD4AA"/><clipPath id="SVGID_6_"><use xlink:href="#SVGID_5_" overflow="visible"/></clipPath></g><g id="Saturn"><path d="M0 0h500v500h-500z"/><path class="st9" d="M425.1 191.4c-20.1 44.5-54.4 92.2-97.7 135.7-43.8 43.9-91.8 78.3-135.3 98.2l-2.7-.9c-51.8-18-93-58.4-112.3-109.5l-1-2.7c-.9-2.6-1.8-5.1-2.6-7.8-.4-1.4-.8-2.8-1.2-4.1-.4-1.2-.7-2.5-1-3.8-.1-.5-.3-1-.3-1.4v-.1c-4-14.4-5.5-29.5-5.5-45-.1-102 82.5-184.6 184.5-184.6 15.7 0 30.9 1.9 45.5 5.6h1.3c1.3 1 2.6 1 3.9 1l4.1 2c2.2 0 4.4 1.3 6.6 2l2.7.9c51.3 19 91.8 60.1 110 111.8.4.9.7 1.8 1 2.7zm5.2 18.9c-22.3 42-55.3 85.8-95.5 126.2-39.5 39.7-82.2 72.1-122.6 94.2-1.5-.3-2.9-.6-4.4-1 3.8-2.1 7.7-4.2 11.6-6.5 2.6-1.5 5.2-3 7.8-4.6l5.4-3.3 1.3-.8c1.5-.9 3-1.9 4.5-2.9l.9-.6c9.6-6.2 19.2-13 28.8-20.2.5-.4 1-.7 1.4-1.1l4.7-3.6c.6-.5 1.2-1 1.9-1.5l6.1-4.8 1.6-1.3 3.3-2.7c1.6-1.3 3.3-2.7 4.9-4.1 4.4-3.7 8.9-7.6 13.3-11.5.9-.8 1.8-1.6 2.8-2.5l3.5-3.1c1.3-1.2 2.6-2.4 4-3.6 1.2-1.1 2.3-2.2 3.5-3.2l4.9-4.7 2.6-2.5 4.6-4.5 1.7-1.7c1-1 2-2 2.9-3 1-1 2-2 2.9-3l2.9-3 6.6-7 3.7-4 4.6-5.1 2.4-2.7c.2-.2.4-.5.7-.8l2.7-3.1c2.5-2.9 4.9-5.7 7.3-8.6l3.4-4.1c2.2-2.7 4.4-5.4 6.5-8.1 1.9-2.4 3.8-4.8 5.6-7.2l1-1.3 2.8-3.6 2.1-2.8 1.9-2.5c1.3-1.8 2.6-3.5 3.8-5.3l1.8-2.5 3.6-5.2c.6-.8 1.1-1.6 1.6-2.4 1.6-2.4 3.3-4.9 4.8-7.3.8-1.2 1.6-2.4 2.3-3.6l2.3-3.6c.7-1.1 1.4-2.2 2.1-3.4.1-.1.2-.2.2-.4l2.1-3.4s.1-.1.1-.2l1.8-3.1c1.6-2.7 3.1-5.3 4.6-8l1.8-3.2c.6-1.2 1.3-2.4 1.9-3.5s1.2-2.4 1.9-3.5v.1c.1 1.4.4 2.8.7 4.3zm4.3 39.7c0 102-82.7 184.6-184.6 184.6-8 0-15.9-.6-23.7-1.6h-.2c-.5 0-1-.1-1.5-.2 38.3-22.8 78.1-54 115.2-91.3 37.9-38 69.7-78.9 92.8-118.7.1.5.2 1.1.2 1.6 1.2 8.4 1.8 16.9 1.8 25.6z"/><path class="st10" d="M430.2 179.5c-1.6 4-3.3 7.9-5.1 11.9-20.1 44.5-54.4 92.2-97.7 135.7-43.8 43.9-91.8 78.3-135.3 98.2-27.1 12.4-52.4 19.2-73.9 19.2-19 0-33.9-5.3-44.4-15.7-20.5-20.5-21.2-58.2-2.1-106.3 1.3-3.4 2.8-6.8 4.3-10.3.1-.3.2-.5.4-.8.3.9.6 1.8 1 2.7-.1.3-.2.5-.4.8-1.2 2.8-2.4 5.6-3.5 8.3-18.9 47.3-18.3 84.3 1.6 104.1 10.1 10.1 24.5 15.2 43 15.2 20.7 0 45.1-6.4 71.2-18.1 43.8-19.7 92.3-54.2 136.6-98.7 43.8-43.9 78.3-92.2 98.2-137 1.5-3.3 2.9-6.6 4.2-9.9 18.9-47.3 18.3-84.3-1.6-104.1-10.1-10.1-24.5-15.2-43-15.2-20.3 0-44.1 6.1-69.5 17.4l-.8.3-2.7-.9c.3-.1.6-.2.8-.4 26.5-11.9 51.2-18.4 72.3-18.4 19 0 33.9 5.3 44.4 15.7 20.5 20.4 21.2 58.2 2 106.3z"/><path class="st11" d="M429.3 205.8c-21.5 41.4-54.6 86.3-96.6 128.5-40.3 40.5-83.9 73.4-124.9 95.4-36.5 19.6-70.9 30.6-99.1 30.6-19.8 0-35.3-5.5-46.1-16.2-26.3-26.1-20-79.1 10.9-139.6.8 2.6 1.7 5.2 2.6 7.8-1.5 3.5-3 6.9-4.3 10.3-19.2 48.1-18.5 85.8 2.1 106.3 10.5 10.4 25.4 15.7 44.4 15.7 21.5 0 46.8-6.8 73.9-19.2 43.5-19.9 91.5-54.3 135.3-98.2 43.3-43.5 77.6-91.2 97.7-135.7 1.8-4 3.5-8 5.1-11.9 19.2-48.1 18.5-85.8-2.1-106.3-10.5-10.4-25.4-15.7-44.4-15.7-21.1 0-45.8 6.5-72.2 18.4-2.2-.8-4.4-1.5-6.6-2.2 33.2-16.8 64.5-26 90.4-26 19.8 0 35.3 5.5 46.1 16.2 26.5 26.4 19.8 80.3-12.2 141.8z"/><path class="st10" d="M445.9 177c-4.4 10.9-9.6 22.1-15.5 33.3-22.3 42-55.3 85.8-95.5 126.2-39.5 39.7-82.2 72.1-122.6 94.2-38.1 20.9-74.1 32.6-103.5 32.6-20.6 0-36.8-5.8-48.2-17.1-22.4-22.2-23.2-63.1-2.4-115.2 4-10.1 8.8-20.3 14.2-30.7.1-.3.3-.6.5-.9l1.2 4.2-.4.9c-31.1 60.5-37.4 113.5-11.1 139.6 10.8 10.8 26.3 16.4 46.1 16.4 28.2 0 62.6-11.5 99.1-30.5.1 0 .1-.1.1-.1 17.9-9.6 36.2-21.4 54.6-34.9 1.3-1 2.6-2 4-3l5.1-3.9c.8-.6 1.6-1.2 2.4-1.9l2-1.5 6.1-4.8 1.6-1.3 3.3-2.7c1.6-1.3 3.3-2.7 4.9-4.1 3.3-2.8 6.7-5.6 10-8.5 10.5-9.1 20.8-18.8 31.1-28.9 4-4 7.6-7.9 11.4-11.9 36.5-38.6 65.4-79 84.9-116.5 0 0 0-.1.1-.1 32-61.5 38.7-115.5 12.1-141.9-6.8-6.7-15.4-11.4-25.7-13.9-1-.3-2.1-.5-3.1-.7-5.3-1.1-11.1-1.6-17.3-1.6-17.8 0-38.1 4.4-59.9 12.6l-6 2.5c-8 3.2-16.2 7.3-24.5 11.3-.3 0-.6.1-.9.3l-4.2-1.3.9-.5c34.7-17.9 67.4-27.8 94.5-27.8 20.6 0 36.8 5.7 48.2 17.1 22.3 22 23.2 62.9 2.4 115z"/><path class="st12" d="M456.7 173.9c-6.4 15.9-14.4 32.3-24 48.9-23 39.8-54.9 80.7-92.8 118.7-37.2 37.3-76.9 68.5-115.2 91.3-44.9 26.7-87.7 42-121.9 42-21.2 0-37.8-5.9-49.4-17.5-29.7-29.6-20.5-91.5 18-160.8.3 1.3.6 2.5 1 3.8-5.5 10.4-10.2 20.7-14.2 30.7-20.8 52.1-20 93 2.3 115.2 11.4 11.3 27.6 17.1 48.2 17.1 29.4 0 65.4-11.7 103.5-32.6 40.4-22.2 83.1-54.6 122.6-94.2 40.2-40.4 73.3-84.1 95.5-126.2 6-11.3 11.2-22.4 15.5-33.3 20.8-52.1 20-93-2.3-115.2-11.4-11.4-27.6-17.3-48.2-17.3-27 0-59.7 11.6-94.5 28.6l-1.2-.4c-1.3 0-1.8-.8-3.1-1.1 39.9-21.9 77.9-34.4 108.6-34.4 21.2 0 37.8 5.9 49.4 17.5 23 22.7 23.8 65.1 2.2 119.2z"/><path class="st10" d="M457.6 174.3c-6.5 16.3-14.8 33.1-24.7 50.1-23 39.6-54.7 80.1-92.3 117.8-36.8 37-76.2 68-114.3 90.8-45.5 27.2-88.9 42.8-123.6 42.8-21.4 0-38.3-6-50.1-17.7-23.2-23.1-24-65.9-2.2-120.4 5.6-14 12.5-28.3 20.5-42.7.2-.3.3-.6.5-.8.1.5.2 1 .4 1.5l-.5.9c-38.4 69.4-47.7 131.2-18 160.8 11.6 11.6 28.2 17.5 49.4 17.5 34.2 0 77-15.2 121.9-42 38.3-22.8 78.1-54 115.2-91.3 37.9-38 69.7-78.9 92.8-118.7 9.6-16.6 17.7-33 24-48.9 21.6-54.1 20.9-96.5-2-119.3-11.6-11.7-28.2-17.5-49.3-17.5-30.7 0-68.5 12.3-108.3 34.2l-.9.5c-.5-.1-.9-.2-1.4-.4.3-.2.6-.5 1-.5 40.4-22.3 78.6-34.8 109.7-34.8 21.4 0 38.3 6 50.1 17.7 23.1 23.1 23.8 65.9 2.1 120.4z"/><path class="st12" d="M414.9 83c-9.5-9.4-23-14.2-40.3-14.2-15.7 0-33.5 3.9-52.7 11.1 2.4 1 4.7 2.1 7.1 3.2 12.7-3.7 24.7-5.7 35.5-5.7 16.6 0 29.6 4.6 38.8 13.8 17.9 17.9 18.6 50.9 1.8 92.9-1.4 3.5-2.9 6.9-4.4 10.4-17.6 38.9-47.6 80.6-85.4 118.6-38.3 38.4-80.3 68.5-118.3 85.9-23.7 10.8-45.8 16.8-64.6 16.8-16.6 0-29.6-4.6-38.8-13.8-14.6-14.6-17.8-39.3-9.3-70.7-1.4-2.9-2.7-5.8-4-8.7-15.1 40.4-15.1 74.3 3.4 92.8 9.5 9.4 23 14.2 40.3 14.2 24.6 0 54.7-9.6 86.6-26.7 35.8-19.3 74-48 109.2-83.4 36.8-36.9 65.6-76.1 84.5-112.4 27.9-53.7 33.8-100.9 10.6-124.1z"/><path class="st11" d="M416.7 81.2c-10-9.9-24.1-16-42.2-16-16.6 0-36.4 5-56.8 13l4.2 1.7.3-.1c19-7.2 36.8-11 52.4-11 5.4 0 10.4.5 15.1 1.4l2.7.6c9 2.2 15.5 6.3 21.5 12.2 23.2 23.1 18.4 70.3-9.6 124.1 0 0 0 .1-.1.1-17 32.8-42.2 68.1-74.2 101.9-3.3 3.5-6 7-10 10.4-9 8.8-18 17.3-27.1 25.2l-8.7 7.5-4.3 3.6-2.9 2.4c-.5.4-.9.8-1.4 1.1l-5.3 4.2-1.7 1.3-2.1 1.6-4.5 3.4-3.5 2.6c-16.1 11.8-32.1 22.1-47.8 30.5l-.1.1c-31.9 17-62 26.7-86.6 26.7-17.3 0-30.8-4.8-40.3-14.2-18.6-18.5-18.5-52.4-3.4-92.8-.5-1.1-1-2.3-1.4-3.5-17.1 44.3-16.1 79.1 3 98.1 10 9.9 24.1 15 42.1 15 25.7 0 57.2-10.2 90.5-28.5 35.3-19.4 72.6-47.7 107.2-82.4 35.2-35.3 64.1-73.6 83.5-110.3 5.2-9.9 9.8-19.6 13.6-29.2 18.1-45.5 17.4-81.3-2.1-100.7z"/><path class="st10" d="M426.4 74.9c-10.2-10.1-24.7-15.3-43.2-15.3-20.3 0-44 6-69.4 17.2l.4.1 3.9 1.5c20.5-7.9 39.7-12.5 56.4-12.5 18 0 32.2 5.3 42.2 15.2 19.5 19.4 20.2 55.2 2 100.7-3.8 9.6-8.4 19.3-13.6 29.2-19.5 36.8-48.4 75-83.5 110.3-34.5 34.7-71.9 63-107.2 82.4-33.3 18.2-64.8 28.5-90.5 28.5-18 0-32.2-5-42.1-15-19.1-19-20.2-53.8-3-98.1-.6-1.4-1.1-2.8-1.6-4.2-21.2 48.7-23.4 90.3-1.5 112 10.2 10.1 24.7 15.3 43.2 15.3 29.9 0 67.3-13.3 106.6-36.7 33.5-19.9 68.3-47.2 100.7-79.8 33.1-33.2 60.9-69 81.1-103.8 8.4-14.5 15.4-28.8 21-42.8 18.8-47.2 18.1-84.3-1.9-104.2z"/><path class="st12" d="M427.1 74.3c-10.4-10.3-25.1-15.5-43.9-15.5-20.6 0-44.7 6.2-70.5 17.7.5.1.9.3 1.4.5 25.3-11.1 48.9-17.2 69.1-17.2 18.5 0 33 5.1 43.2 15.3 20 19.9 20.6 57 1.7 104.3-5.6 13.9-12.6 28.3-21 42.8-20.1 34.8-48 70.6-81.1 103.8-32.5 32.6-67.2 59.9-100.7 79.8-39.2 23.4-76.7 36.7-106.6 36.7-18.5 0-33-5.1-43.2-15.3-21.8-21.7-19.6-63.3 1.5-112v-.1l-.4-1.2c-1.3 2.9-2.5 5.8-3.6 8.7-19 47.7-18.3 85 1.9 105.2 10.3 10.3 25.1 15.5 43.8 15.5 30.3 0 68.3-13.6 108-37.4 33.2-19.9 67.7-47 99.9-79.3 32.9-33 60.5-68.4 80.7-103 8.7-14.8 15.9-29.5 21.6-43.8 19.1-47.9 18.4-85.3-1.8-105.5z"/><path class="st9" d="M89.7 341.7c-4.9-8.5-9.1-17.5-12.6-26.8l-1-2.7c-.9-2.6-1.8-5.1-2.6-7.8-.4-1.4-.8-2.8-1.2-4.1-.4-1.2-.7-2.5-1-3.8-.1-.5-.3-1-.3-1.4v-.1c-4-14.4-5.5-29.5-5.5-45 0-102 82.6-186.3 184.6-184.6 54.3.9 82.5 19.2 91 24 38.4 21.8-229.4 290.6-251.4 252.3z"/></g></svg>