<svg xmlns="http://www.w3.org/2000/svg" xmlns:xlink="http://www.w3.org/1999/xlink" width="500" height="500" viewBox="0 0 500 500"><style type="text/css">.st0{fill:#769641;} .st1{fill:#14CCCA;} .st2{clip-path:url(#SVGID_2_);fill:#DDB904;} .st3{clip-path:url(#SVGID_2_);fill:#CC301F;} .st4{clip-path:url(#SVGID_2_);fill:#FFA100;} .st5{clip-path:url(#SVGID_4_);fill:#B31605;} .st6{clip-path:url(#SVGID_6_);fill:#A69F7F;} .st7{fill:#ADD8E6;} .st8{fill:#A0CEDE;} .st9{fill:#DDD4AA;} .st10{fill:#A69F7F;} .st11{fill:#AA9736;} .st12{fill:#DDD29A;} .st13{fill:#4F61EB;} .st14{fill:#CC301F;} .st15{fill:#B31605;} .st16{fill:#FFA100;}</style><g id="Jupiter"><defs><circle id="SVGID_1_" cx="-290" cy="-290" r="184.6"/></defs><clipPath id="SVGID_2_"><use xlink:href="#SVGID_1_" overflow="visible"/></clipPath></g><g id="Mars"><defs><circle id="SVGID_3_" cx="250" cy="-290" r="184.6"/></defs><use xlink:href="#SVGID_3_" overflow="visible" fill="#CC301F"/><clipPath id="SVGID_4_"><use xlink:href="#SVGID_3_" overflow="visible"/></clipPath></g><g id="Mercury"><defs><circle id="SVGID_5_" cx="790" cy="-290" r="184.6"/></defs><use xlink:href="#SVGID_5_" overflow="visible" fill="#DDD4AA"/><clipPath id="SVGID_6_"><use xlink:href="#SVGID_5_" overflow="visible"/></clipPath></g><g id="Neptune"><path d="M0 0h500v500h-500z"/><circle class="st13" cx="250" cy="250" r="184.6"/><path class="st7" d="M75.7 311l224.7-5.5 7.6-17.4-8.7-18.5-28.3 10.9 12-24.5 84-5 9.8 30 57.3-16.8c.2 6.6-3 28.2-6.1 35l-161.7 34.6-187.9-15.5-2.7-7.3z"/><path class="st13" d="M313.9 264.3l38.2 3.6 12.9 20.5-18.8-7.6-18.8 25.3 7.6-31.8z"/></g></svg>