<svg xmlns="http://www.w3.org/2000/svg" xmlns:xlink="http://www.w3.org/1999/xlink" width="500" height="500" viewBox="0 0 500 500"><style type="text/css">.st0{fill:#769641;} .st1{fill:#14CCCA;} .st2{clip-path:url(#SVGID_2_);fill:#DDB904;} .st3{clip-path:url(#SVGID_2_);fill:#CC301F;} .st4{clip-path:url(#SVGID_2_);fill:#FFA100;} .st5{clip-path:url(#SVGID_4_);fill:#B31605;} .st6{clip-path:url(#SVGID_6_);fill:#A69F7F;} .st7{fill:#ADD8E6;} .st8{fill:#A0CEDE;} .st9{fill:#DDD4AA;} .st10{fill:#A69F7F;} .st11{fill:#AA9736;} .st12{fill:#DDD29A;} .st13{fill:#4F61EB;} .st14{fill:#CC301F;} .st15{fill:#B31605;} .st16{fill:#FFA100;}</style><g id="Jupiter"><defs><circle id="SVGID_1_" cx="-830" cy="-290" r="184.6"/></defs><clipPath id="SVGID_2_"><use xlink:href="#SVGID_1_" overflow="visible"/></clipPath></g><g id="Mars"><defs><circle id="SVGID_3_" cx="-290" cy="-290" r="184.6"/></defs><use xlink:href="#SVGID_3_" overflow="visible" fill="#CC301F"/><clipPath id="SVGID_4_"><use xlink:href="#SVGID_3_" overflow="visible"/></clipPath></g><g id="Mercury"><defs><circle id="SVGID_5_" cx="250" cy="-290" r="184.6"/></defs><use xlink:href="#SVGID_5_" overflow="visible" fill="#DDD4AA"/><clipPath id="SVGID_6_"><use xlink:href="#SVGID_5_" overflow="visible"/></clipPath></g><g id="Venus"><path d="M0 0h500v500h-500z"/><circle class="st14" cx="250" cy="250" r="184.6"/><path class="st15" d="M160.8 121.8l-9.9 18.4-24.1-9.2 11.4 29-11.4 22.6 28.3 31.1 5.7-32.5 72.1-2.8-69.3-22.6zm176.8 58.1l39.5 43 7-31.8 25.5 4.3-11.4-27.6-24.7 6.3-16.3-45.1 7.1 39h-39.3l29.4 8zm1.4 172.1v-23l28.3 11.5 19.6-42-19.6 70.7 19.6-9.9-23.9 24-24 15.6 11.2-29.7-25.2 2.8zm-236.2-85.9l-12.7 27.9h22.9v-28l26.6 13.3 31.1 1.7-7.1-15h-14.6l-13.7-13-4.9-9h-13.4l-19.8-8.6 4.2-12.9-15.8 21.2-6.8 9.1z"/><path class="st16" d="M126.5 306l35.5 12.2 35.4-43.7 56 10.9 7.7 13.6h40.9l10 7.3-46.6 27.7-38.2-27.9-7.8 22.8-16.2 49.1h-41.2l-37.3-44h-16.7zm205.4-169.9l-43.9 31.7v-38.8l-55-7.2v35.2l20.5 19.2 9 23.8h42.5l12.7-24-5.7-15.1 31.1-19.3zm87.1 93.2l-26.6 19.5-14.1-9.8-22.4 25.3 23.9-6 19.6 16.2 19.6-29.1zm-310.7-83.2l-12.3 21.7v15.2l12.3-18.5 18.5-3.6-8.4-31.9zm179.8 231.8l-11.4 21.1h-43.7l17 13.8-17 12.2h55l37-17.6-36.9 1.4 23.9-17-16.9 7.1zm-93.1-293.9h-15l7.5 27.9z"/></g></svg>