<svg xmlns="http://www.w3.org/2000/svg" xmlns:xlink="http://www.w3.org/1999/xlink" width="500" height="500" viewBox="0 0 500 500"><style type="text/css">.st0{fill:#769641;} .st1{fill:#14CCCA;} .st2{clip-path:url(#SVGID_2_);fill:#DDB904;} .st3{clip-path:url(#SVGID_2_);fill:#CC301F;} .st4{clip-path:url(#SVGID_2_);fill:#FFA100;} .st5{clip-path:url(#SVGID_4_);fill:#B31605;} .st6{clip-path:url(#SVGID_6_);fill:#A69F7F;} .st7{fill:#ADD8E6;} .st8{fill:#A0CEDE;} .st9{fill:#DDD4AA;} .st10{fill:#A69F7F;} .st11{fill:#AA9736;} .st12{fill:#DDD29A;} .st13{fill:#4F61EB;} .st14{fill:#CC301F;} .st15{fill:#B31605;} .st16{fill:#FFA100;}</style><path d="M0 0h500v500h-500z" id="Layer_9"/><g id="Jupiter"><defs><circle id="SVGID_1_" cx="250" cy="250" r="184.6"/></defs><clipPath id="SVGID_2_"><use xlink:href="#SVGID_1_" overflow="visible"/></clipPath><circle class="st2" cx="250" cy="250" r="184.6"/><path class="st3" d="M57.1 200.9h402.5v26.8h-402.5zm0 92.5h402.5v18.4h-402.5zm-8.4-183.6h402.5v9.2h-402.5z"/><path class="st4" d="M57.1 342.2h402.5v60h-402.5zm-8.4-68.8h402.5v20h-402.5zm8.4-113.7h402.5v41.3h-402.5z"/><path class="st3" d="M451.3 273.4h-114.3l-37.5 10-32.8-10h-218v-8.9h217.7l32.8-8.9 37.2 8.9h114.9z"/><path class="st4" d="M57.1 119h402.5v20.6h-402.5z"/></g><g id="Mars"><defs><circle id="SVGID_3_" cx="790" cy="250" r="184.6"/></defs><use xlink:href="#SVGID_3_" overflow="visible" fill="#CC301F"/><clipPath id="SVGID_4_"><use xlink:href="#SVGID_3_" overflow="visible"/></clipPath></g><g id="Mercury"><defs><circle id="SVGID_5_" cx="1330" cy="250" r="184.6"/></defs><use xlink:href="#SVGID_5_" overflow="visible" fill="#DDD4AA"/><clipPath id="SVGID_6_"><use xlink:href="#SVGID_5_" overflow="visible"/></clipPath></g></svg>