<svg xmlns="http://www.w3.org/2000/svg" xmlns:xlink="http://www.w3.org/1999/xlink" width="500" height="500" viewBox="0 0 500 500"><style type="text/css">.st0{fill:#769641;} .st1{fill:#14CCCA;} .st2{clip-path:url(#SVGID_2_);fill:#DDB904;} .st3{clip-path:url(#SVGID_2_);fill:#CC301F;} .st4{clip-path:url(#SVGID_2_);fill:#FFA100;} .st5{clip-path:url(#SVGID_4_);fill:#B31605;} .st6{clip-path:url(#SVGID_6_);fill:#A69F7F;} .st7{fill:#ADD8E6;} .st8{fill:#A0CEDE;} .st9{fill:#DDD4AA;} .st10{fill:#A69F7F;} .st11{fill:#AA9736;} .st12{fill:#DDD29A;} .st13{fill:#4F61EB;} .st14{fill:#CC301F;} .st15{fill:#B31605;} .st16{fill:#FFA100;}</style><g id="Jupiter"><defs><circle id="SVGID_1_" cx="-290" cy="250" r="184.6"/></defs><clipPath id="SVGID_2_"><use xlink:href="#SVGID_1_" overflow="visible"/></clipPath></g><path d="M0 0h500v500h-500z" id="Layer_10"/><g id="Mars"><defs><circle id="SVGID_3_" cx="250" cy="250" r="184.6"/></defs><use xlink:href="#SVGID_3_" overflow="visible" fill="#CC301F"/><clipPath id="SVGID_4_"><use xlink:href="#SVGID_3_" overflow="visible"/></clipPath><path class="st5" d="M65.4 105h113.7l-40.1 54.7 2.6 41.3-49.1 94.8 50.4 16.1 69.8 77.7 47.8-17.4 33.6 30 50.4-16.5-11.6-43.5 42.6-5.6 34.5 5.6s-7.4-21.5-7.4-30.3l-5.2-28.4-25.8-50.2 24.5-32.3 38.5 13.4 39.1 47.3-50.4 178.3-220.9 46.5-143.5-46.7 6.5-334.8z"/></g><g id="Mercury"><defs><circle id="SVGID_5_" cx="790" cy="250" r="184.6"/></defs><use xlink:href="#SVGID_5_" overflow="visible" fill="#DDD4AA"/><clipPath id="SVGID_6_"><use xlink:href="#SVGID_5_" overflow="visible"/></clipPath></g></svg>