<svg xmlns="http://www.w3.org/2000/svg" xmlns:xlink="http://www.w3.org/1999/xlink" width="500" height="500" viewBox="0 0 500 500"><style type="text/css">.st0{fill:#769641;} .st1{fill:#14CCCA;} .st2{clip-path:url(#SVGID_2_);fill:#DDB904;} .st3{clip-path:url(#SVGID_2_);fill:#CC301F;} .st4{clip-path:url(#SVGID_2_);fill:#FFA100;} .st5{clip-path:url(#SVGID_4_);fill:#B31605;} .st6{clip-path:url(#SVGID_6_);fill:#A69F7F;} .st7{fill:#ADD8E6;} .st8{fill:#A0CEDE;} .st9{fill:#DDD4AA;} .st10{fill:#A69F7F;} .st11{fill:#AA9736;} .st12{fill:#DDD29A;} .st13{fill:#4F61EB;} .st14{fill:#CC301F;} .st15{fill:#B31605;} .st16{fill:#FFA100;}</style><g id="Jupiter"><defs><circle id="SVGID_1_" cx="790" cy="-290" r="184.6"/></defs><clipPath id="SVGID_2_"><use xlink:href="#SVGID_1_" overflow="visible"/></clipPath></g><g id="Mars"><defs><circle id="SVGID_3_" cx="1330" cy="-290" r="184.6"/></defs><use xlink:href="#SVGID_3_" overflow="visible" fill="#CC301F"/><clipPath id="SVGID_4_"><use xlink:href="#SVGID_3_" overflow="visible"/></clipPath></g><g id="Mercury"><defs><circle id="SVGID_5_" cx="1870" cy="-290" r="184.6"/></defs><use xlink:href="#SVGID_5_" overflow="visible" fill="#DDD4AA"/><clipPath id="SVGID_6_"><use xlink:href="#SVGID_5_" overflow="visible"/></clipPath></g><g id="Uranus"><path d="M0 0h500v500h-500z"/><circle class="st7" cx="250" cy="250" r="184.6"/><path class="st8" d="M427.2 72.2c-10.5-10.4-25.4-15.7-44.4-15.7-21.3 0-46.3 6.6-73.1 18.8l2.7.9c25.8-11.5 49.8-17.7 70.3-17.7 18.4 0 32.9 5.1 43 15.2 19.9 19.8 20.5 56.8 1.6 104.1-19 47.6-55.3 99.8-102.4 147-70.7 71-152.3 116.8-207.8 116.8-18.4 0-32.9-5.1-43-15.2-19.9-19.8-20.5-56.8-1.6-104.1 1.2-3 2.5-6.1 3.8-9.1l-1-2.7c-1.7 3.7-3.3 7.4-4.7 11.1-19.2 48.1-18.5 85.8 2.1 106.3 10.5 10.4 25.4 15.7 44.4 15.7 56 0 138.1-46.1 209.2-117.4 47.2-47.4 83.7-99.8 102.8-147.7 19.3-48.1 18.6-85.8-1.9-106.3zm15.4-11.4c-11.4-11.4-27.6-17.1-48.2-17.1-27.3 0-60.3 10.1-95.4 28.3l4.2 1.2c33.6-17 65.1-26.5 91.2-26.5 19.8 0 35.3 5.5 46.1 16.2 44.5 44.3-4.3 165.6-108.8 270.5-76.3 76.5-164.2 126-224 126-19.8 0-35.3-5.5-46.1-16.2-26.4-26.4-20-79.7 11.4-140.6l-1.2-4.2c-5.6 10.7-10.5 21.3-14.6 31.6-20.8 52.1-20 93 2.3 115.2 11.4 11.4 27.6 17.1 48.2 17.1 60.6 0 149.3-49.8 226.1-126.9 51-51.2 90.5-107.9 111.1-159.5 20.8-52 19.9-92.9-2.3-115.1zm11.8-7.9c-11.8-11.8-28.7-17.7-50.1-17.7-31.4 0-70 12.7-110.7 35.4l1.4.3c40.2-22.2 78.3-34.7 109.3-34.7 21.2 0 37.8 5.9 49.4 17.4 22.9 22.8 23.6 65.2 2 119.3-21.7 54.3-63.1 113.8-116.8 167.6-80.7 80.9-173.7 133.2-237.1 133.2-21.2 0-37.8-5.9-49.4-17.4-29.9-29.8-20.4-92 18.4-161.7l-.4-1.5c-8.3 14.8-15.3 29.4-21 43.6-21.8 54.5-21 97.3 2.2 120.4 11.8 11.8 28.7 17.7 50.1 17.7 63.6 0 157-52.4 237.8-133.5 53.7-53.9 95.3-113.6 117-168 21.8-54.5 21.1-97.3-2.1-120.4z"/></g></svg>