<svg xmlns="http://www.w3.org/2000/svg" xmlns:xlink="http://www.w3.org/1999/xlink" width="1081.88" height="652.46" viewBox="0 0 1081.88 652.46"><style type="text/css">.Drop_x0020_Shadow{fill:none;} .Outer_x0020_Glow_x0020_5_x0020_pt{fill:none;} .Blue_x0020_Neon{fill:none;stroke:#8AACDA;stroke-width:7;stroke-linecap:round;stroke-linejoin:round;} .Chrome_x0020_Highlight{fill:url(#SVGID_1_);stroke:#FFFFFF;stroke-width:0.3629;stroke-miterlimit:1;} .Jive_GS{fill:#FFDD00;} .Alyssa_GS{fill:#A6D0E4;} .st0{fill:#DDB904;} .st1{fill:#FFFFFF;} .st2{clip-path:url(#SVGID_3_);} .st3{fill:#E6E6E6;} .st4{clip-path:url(#SVGID_5_);} .st5{fill:#CCCCCC;}</style><linearGradient id="SVGID_1_" gradientUnits="userSpaceOnUse" x1="236.583" y1="-1116" x2="236.583" y2="-1117"><stop offset="0" stop-color="#656565"/><stop offset=".618" stop-color="#1B1B1B"/><stop offset=".629" stop-color="#545454"/><stop offset=".983" stop-color="#3E3E3E"/></linearGradient><g id="cloud-right"><defs><path id="SVGID_4_" d="M0 0h1081.88v652.46h-1081.88z"/></defs><clipPath id="SVGID_3_"><use xlink:href="#SVGID_4_" overflow="visible"/></clipPath><path class="st5" d="M1081.72 63.78c-2.01-13.49-1.19-26.66-13.46-32.76-11.49-5.71-27.29-10.29-40.04-9.4-16.52 1.15-31.53 13.12-45.75 21.58-14.37 8.55-36.55 14.13-44.22 29-7.58 14.69 5.89 35.54 8.61 51.82 2.76 16.5.44 24.08 13.56 34.5-9.99-11.62-17.96-16.05-32.2-21.7-14.46-5.74-29.64 5.64-44.8 9.15-14.89 3.45-37.98-1.73-46.91 10.64-9.1 12.62-6.08 23.33-2.7 38.56-7.76-15.19-24.01-21.54-41.01-21.35-16.13.18-29.94 19.21-40.92 31.09-10.46 11.32-26.44 22.73-27.52 37.89-1.08 15.01 15.26 28.18 22.24 41.51 7.05 13.46 15.5 33.5 29.61 39.71-11.21-7.72-27.4-20.98-40.97-21.99-13.57-1.01-24.84 9.97-37.07 15.95-12.23 5.98-19.72 13.52-27.26 24.84-7.54 11.32-14.01 29.57-14.81 43.16-17.11-5.68-29.99-34.96-45.42-44.29-15.42-9.33-43.89-13.1-59.24-3.65-9.75 6.01-7.17 23.24-6.07 34.5 1.1 11.26.9 31.31 11.64 35.32 3.6 1.35-19.05-22.54-36.54-21.37-17.5 1.17-33.73 20.83-37.4 37.98-3.67 17.15 15.91 30.42 33.44 30.7-7.06 10.8-10 29.44-6.12 41.67s8.8 21.55 20.79 26.31c-14.26-5.51-30.28.05-45.38 2.4-15.1 2.35-30.02 4.67-41.94 14.26-11.91 9.59-15.83 24.27-21.36 38.51-5.53 14.25-18.19 33.77-15.86 48.88 4.76-8.82-3.47-18.22-11.25-24.53-11.47-9.29-18.81-24.22-32.34-30.15-13.73-6.02-28.21-8.26-43.19-7.78-14.66.47-32.12.96-43.82 9.78-12.02 9.07-17.21 25.47-19.1 40.43l-8.19 14.13c-9.99-13.33-25.83-19.49-39.68-28.74-13.85-9.24-24.8-23.2-40.94-27.31-14.87-3.79-30.74-3.78-45.97-1.9-15.42 1.9-32.51 3.25-45.19 12.23-12.49 8.84-16.58 26.18-21.78 40.56-5.3 14.63-9.98 31.41-4.15 45.85 20.89 6.28 22.34 5.77 44.15 5.99 21.81.21 21.96-15.71 43.77-15.49l43.52 10.78 43.64-2.19c21.81.21 21.82-1.47 43.63-1.25 21.81.21 21.83-2.39 43.64-2.17l43.48 13.98 43.64-2.12c21.81.21 21.88-6.67 43.69-6.45 21.81.21 21.81.2 43.62.42 21.81.21 21.84-2.44 43.64-2.22l43.6 2.11c21.81.21 21.77 4.06 43.58 4.28l43.67-4.45 43.51 11.96 43.75-12.49 43.51 12.05c21.81.21 21.87-6.52 43.68-6.3l43.6 2.6 43.73-10.19 43.49 13.76 43.69-6.89 43.55 7.91s23.58 5.44 38.93-10.06c15.45-15.6 13.75-17.37 13.46-39.32l-16.69-43.69 5.83-43.98-3.36-43.86c-.29-21.95 10.44-22.09 10.16-44.04-.29-21.95 1.25-21.97.97-43.92-.29-21.95.21-21.96-.07-43.91l-2.88-43.87c-.29-21.95 2.8-21.99 2.52-43.94l-5.33-43.84c-.29-21.95-15.26-21.76-15.54-43.71-.29-21.95 9.64-22.08 9.36-44.03-.29-21.96 9.31-23.17 6.34-44.92-2.99-22.17-15.81-20.6-16.8-42.53z"/></g></svg>