<?xml version="1.0" encoding="utf-8"?>
<!-- Generator: Adobe Illustrator 18.1.1, SVG Export Plug-In . SVG Version: 6.00 Build 0)  -->
<svg version="1.1" id="Layer_1" xmlns="http://www.w3.org/2000/svg" xmlns:xlink="http://www.w3.org/1999/xlink" x="0px" y="0px"
	 width="2835.17px" height="1564.2px" viewBox="310 221.65 2835.17 1564.2"
	 style="enable-background:new 310 221.65 2835.17 1564.2;" xml:space="preserve">
<style type="text/css">
	.st0{fill:#FFFFFF;}
</style>
<g id="stars">
	<circle class="st0" cx="588.17" cy="1194.92" r="17.23"/>
	<circle class="st0" cx="2525" cy="1248.91" r="17.23"/>
	<circle class="st0" cx="1748.92" cy="1514.35" r="17.23"/>
	<circle class="st0" cx="1096.56" cy="679.79" r="17.23"/>
	<circle class="st0" cx="1114.56" cy="1327.65" r="17.23"/>
	<circle class="st0" cx="345.23" cy="1467.11" r="17.23"/>
	<circle class="st0" cx="2129.09" cy="1725.81" r="17.23"/>
	<circle class="st0" cx="327.23" cy="238.88" r="17.23"/>
	<circle class="st0" cx="2590.24" cy="731.52" r="17.23"/>
	<circle class="st0" cx="2205.21" cy="625.44" r="10.91"/>
	<circle class="st0" cx="2758.59" cy="697.42" r="10.91"/>
	<circle class="st0" cx="653.05" cy="852.64" r="10.91"/>
	<circle class="st0" cx="1051.21" cy="1493.75" r="10.91"/>
	<circle class="st0" cx="1422.38" cy="317.25" r="10.91"/>
	<circle class="st0" cx="808.27" cy="589.45" r="10.91"/>
	<circle class="st0" cx="2619.12" cy="1657.96" r="10.91"/>
	<circle class="st0" cx="3134.26" cy="1466.76" r="10.91"/>
	<circle class="st0" cx="3057.78" cy="1774.94" r="10.91"/>
	<circle class="st0" cx="970.23" cy="429.73" r="10.91"/>
	<circle class="st0" cx="2844.08" cy="238.52" r="10.91"/>
	<circle class="st0" cx="3111.77" cy="297.01" r="10.91"/>
	<circle class="st0" cx="2952.05" cy="944.87" r="10.91"/>
	<circle class="st0" cx="905" cy="1052.84" r="10.91"/>
	<circle class="st0" cx="2193.97" cy="1273.3" r="10.91"/>
	<circle class="st0" cx="1500.8" cy="1248.24" r="14.42"/>
	<circle class="st0" cx="2154.35" cy="1355.04" r="8.28"/>
	<circle class="st0" cx="2682.99" cy="815.16" r="8.28"/>
	<circle class="st0" cx="2017.13" cy="551.97" r="8.28"/>
	<circle class="st0" cx="815.89" cy="1343.8" r="8.28"/>
	<circle class="st0" cx="1659.46" cy="1667.73" r="8.28"/>
	<circle class="st0" cx="2370.31" cy="1496.76" r="8.28"/>
	<circle class="st0" cx="2498.53" cy="1195.33" r="8.28"/>
	<circle class="st0" cx="3024.91" cy="1195.33" r="8.28"/>
	<circle class="st0" cx="2815.71" cy="1573.25" r="8.28"/>
	<circle class="st0" cx="2885.44" cy="1530.51" r="8.28"/>
	<circle class="st0" cx="698.92" cy="731.93" r="8.28"/>
	<circle class="st0" cx="521.21" cy="477.73" r="8.28"/>
	<circle class="st0" cx="557.2" cy="1265.06" r="8.28"/>
	<circle class="st0" cx="361.49" cy="1521.51" r="8.28"/>
	<circle class="st0" cx="1211.81" cy="1177.33" r="8.28"/>
	<circle class="st0" cx="1297.29" cy="551.97" r="8.28"/>
	<circle class="st0" cx="2498.53" cy="277.53" r="8.28"/>
	<circle class="st0" cx="967.19" cy="354.6" r="4.12"/>
	<circle class="st0" cx="854.72" cy="269.11" r="4.12"/>
	<circle class="st0" cx="859.22" cy="849.49" r="4.12"/>
	<circle class="st0" cx="2361.89" cy="853.99" r="4.12"/>
	<circle class="st0" cx="1790.52" cy="1121.68" r="4.12"/>
	<circle class="st0" cx="2546.35" cy="302.86" r="4.12"/>
	<circle class="st0" cx="2422.63" cy="559.3" r="4.12"/>
	<circle class="st0" cx="1965.98" cy="804.5" r="4.12"/>
	<circle class="st0" cx="1945.73" cy="862.99" r="4.12"/>
	<circle class="st0" cx="1916.49" cy="822.49" r="4.12"/>
	<circle class="st0" cx="2573.35" cy="687.52" r="4.12"/>
	<circle class="st0" cx="2541.85" cy="732.51" r="4.12"/>
	<circle class="st0" cx="2917.52" cy="489.57" r="4.12"/>
	<circle class="st0" cx="2892.78" cy="1202.66" r="4.12"/>
	<circle class="st0" cx="2949.02" cy="1234.16" r="4.12"/>
	<circle class="st0" cx="2674.57" cy="1675.06" r="4.12"/>
	<circle class="st0" cx="2427.13" cy="1310.64" r="4.12"/>
	<circle class="st0" cx="1817.51" cy="1497.35" r="4.12"/>
	<circle class="st0" cx="1464.34" cy="1310.64" r="4.12"/>
	<circle class="st0" cx="1115.66" cy="1184.67" r="4.12"/>
	<circle class="st0" cx="1516.08" cy="800" r="4.12"/>
	<circle class="st0" cx="1635.3" cy="629.04" r="4.12"/>
	<circle class="st0" cx="463.3" cy="1177.92" r="4.12"/>
	<circle class="st0" cx="571.28" cy="1704.3" r="4.12"/>
	<circle class="st0" cx="494.8" cy="1652.56" r="4.12"/>
	<circle class="st0" cx="1079.67" cy="1657.06" r="4.12"/>
</g>
</svg>
