<svg xmlns="http://www.w3.org/2000/svg" width="1260.35" height="695.35" viewBox="0 0 1260.35 695.35"><style type="text/css">.Drop_x0020_Shadow{fill:none;} .Outer_x0020_Glow_x0020_5_x0020_pt{fill:none;} .Blue_x0020_Neon{fill:none;stroke:#8AACDA;stroke-width:7;stroke-linecap:round;stroke-linejoin:round;} .Chrome_x0020_Highlight{fill:url(#SVGID_1_);stroke:#FFFFFF;stroke-width:0.3629;stroke-miterlimit:1;} .Jive_GS{fill:#FFDD00;} .Alyssa_GS{fill:#A6D0E4;} .st0{fill:#DDB904;} .st1{fill:#FFFFFF;} .st2{clip-path:url(#SVGID_3_);} .st3{fill:#E6E6E6;} .st4{clip-path:url(#SVGID_5_);} .st5{fill:#CCCCCC;}</style><linearGradient id="SVGID_1_" gradientUnits="userSpaceOnUse" x1="-1181.438" y1="-1253.791" x2="-1181.438" y2="-1254.791"><stop offset="0" stop-color="#656565"/><stop offset=".618" stop-color="#1B1B1B"/><stop offset=".629" stop-color="#545454"/><stop offset=".983" stop-color="#3E3E3E"/></linearGradient><g id="stars"><circle class="st1" cx="123.66" cy="432.66" r="7.66"/><circle class="st1" cx="984.66" cy="456.66" r="7.66"/><circle class="st1" cx="639.66" cy="574.66" r="7.66"/><circle class="st1" cx="349.66" cy="203.66" r="7.66"/><circle class="st1" cx="357.66" cy="491.66" r="7.66"/><circle class="st1" cx="15.66" cy="553.66" r="7.66"/><circle class="st1" cx="808.66" cy="668.66" r="7.66"/><circle class="st1" cx="7.66" cy="7.66" r="7.66"/><circle class="st1" cx="1013.66" cy="226.66" r="7.66"/><circle class="st1" cx="842.5" cy="179.5" r="4.85"/><circle class="st1" cx="1088.5" cy="211.5" r="4.85"/><circle class="st1" cx="152.5" cy="280.5" r="4.85"/><circle class="st1" cx="329.5" cy="565.5" r="4.85"/><circle class="st1" cx="494.5" cy="42.5" r="4.85"/><circle class="st1" cx="221.5" cy="163.5" r="4.85"/><circle class="st1" cx="1026.5" cy="638.5" r="4.85"/><circle class="st1" cx="1255.5" cy="553.5" r="4.85"/><circle class="st1" cx="1221.5" cy="690.5" r="4.85"/><circle class="st1" cx="293.5" cy="92.5" r="4.85"/><circle class="st1" cx="1126.5" cy="7.5" r="4.85"/><circle class="st1" cx="1245.5" cy="33.5" r="4.85"/><circle class="st1" cx="1174.5" cy="321.5" r="4.85"/><circle class="st1" cx="264.5" cy="369.5" r="4.85"/><circle class="st1" cx="837.5" cy="467.5" r="4.85"/><circle class="st1" cx="529.36" cy="456.36" r="6.41"/><circle class="st1" cx="819.89" cy="503.84" r="3.68"/><circle class="st1" cx="1054.89" cy="263.84" r="3.68"/><circle class="st1" cx="758.89" cy="146.84" r="3.68"/><circle class="st1" cx="224.89" cy="498.84" r="3.68"/><circle class="st1" cx="599.89" cy="642.84" r="3.68"/><circle class="st1" cx="915.89" cy="566.84" r="3.68"/><circle class="st1" cx="972.89" cy="432.84" r="3.68"/><circle class="st1" cx="1206.89" cy="432.84" r="3.68"/><circle class="st1" cx="1113.89" cy="600.84" r="3.68"/><circle class="st1" cx="1144.89" cy="581.84" r="3.68"/><circle class="st1" cx="172.89" cy="226.84" r="3.68"/><circle class="st1" cx="93.89" cy="113.84" r="3.68"/><circle class="st1" cx="109.89" cy="463.84" r="3.68"/><circle class="st1" cx="22.89" cy="577.84" r="3.68"/><circle class="st1" cx="400.89" cy="424.84" r="3.68"/><circle class="st1" cx="438.89" cy="146.84" r="3.68"/><circle class="st1" cx="972.89" cy="24.84" r="3.68"/><circle class="st1" cx="292.15" cy="59.1" r="1.83"/><circle class="st1" cx="242.15" cy="21.1" r="1.83"/><circle class="st1" cx="244.15" cy="279.1" r="1.83"/><circle class="st1" cx="912.15" cy="281.1" r="1.83"/><circle class="st1" cx="658.15" cy="400.1" r="1.83"/><circle class="st1" cx="994.15" cy="36.1" r="1.83"/><circle class="st1" cx="939.15" cy="150.1" r="1.83"/><circle class="st1" cx="736.15" cy="259.1" r="1.83"/><circle class="st1" cx="727.15" cy="285.1" r="1.83"/><circle class="st1" cx="714.15" cy="267.1" r="1.83"/><circle class="st1" cx="1006.15" cy="207.1" r="1.83"/><circle class="st1" cx="992.15" cy="227.1" r="1.83"/><circle class="st1" cx="1159.15" cy="119.1" r="1.83"/><circle class="st1" cx="1148.15" cy="436.1" r="1.83"/><circle class="st1" cx="1173.15" cy="450.1" r="1.83"/><circle class="st1" cx="1051.15" cy="646.1" r="1.83"/><circle class="st1" cx="941.15" cy="484.1" r="1.83"/><circle class="st1" cx="670.15" cy="567.1" r="1.83"/><circle class="st1" cx="513.15" cy="484.1" r="1.83"/><circle class="st1" cx="358.15" cy="428.1" r="1.83"/><circle class="st1" cx="536.15" cy="257.1" r="1.83"/><circle class="st1" cx="589.15" cy="181.1" r="1.83"/><circle class="st1" cx="68.15" cy="425.1" r="1.83"/><circle class="st1" cx="116.15" cy="659.1" r="1.83"/><circle class="st1" cx="82.15" cy="636.1" r="1.83"/><circle class="st1" cx="342.15" cy="638.1" r="1.83"/></g></svg>