<svg xmlns="http://www.w3.org/2000/svg" xmlns:xlink="http://www.w3.org/1999/xlink" width="1076.11" height="649.68" viewBox="0 0 1076.11 649.68"><style type="text/css">.Drop_x0020_Shadow{fill:none;} .Outer_x0020_Glow_x0020_5_x0020_pt{fill:none;} .Blue_x0020_Neon{fill:none;stroke:#8AACDA;stroke-width:7;stroke-linecap:round;stroke-linejoin:round;} .Chrome_x0020_Highlight{fill:url(#SVGID_1_);stroke:#FFFFFF;stroke-width:0.3629;stroke-miterlimit:1;} .Jive_GS{fill:#FFDD00;} .Alyssa_GS{fill:#A6D0E4;} .st0{fill:#DDB904;} .st1{fill:#FFFFFF;} .st2{clip-path:url(#SVGID_3_);} .st3{fill:#E6E6E6;} .st4{clip-path:url(#SVGID_5_);} .st5{fill:#CCCCCC;}</style><linearGradient id="SVGID_1_" gradientUnits="userSpaceOnUse" x1="240" y1="-350.325" x2="240" y2="-351.325"><stop offset="0" stop-color="#656565"/><stop offset=".618" stop-color="#1B1B1B"/><stop offset=".629" stop-color="#545454"/><stop offset=".983" stop-color="#3E3E3E"/></linearGradient><g id="cloud-left"><defs><path id="SVGID_2_" d="M0 0h1076.11v649.68h-1076.11z"/></defs><clipPath id="SVGID_3_"><use xlink:href="#SVGID_2_" overflow="visible"/></clipPath><path class="st3" d="M1007.92 655.42c5.24-17.06-3.1-23.96-20.24-15.16 4.99-31.97-38.38-43.56-59.07-17.74 6.5-27.07-6.14-42.01-17.37-46.24-13.14-4.95-23.22 1.49-16.95 32.52-11.49-29.27-59.49-39.81-81.07-18.15 11.11-27.95 16.64-59.75 11.68-86.03-5.63-29.79-26.67-45.83-54.34-56.86-23.26-9.28-36.83-33.37-50.72 6.46-8.59 24.64 20.51 61.36 2.34 82.54-15.91-28.86-22.74-77.63-62.65-67.46 21.07-27.46-33.08-16.68-41.22-14.68-16.66 4.09-42.1 15.28-47.98 31.5-5.97 16.48 26.37 72.82-8.06 54.37-15.48-8.29-19.08-57.39-45.14-71.84-32.41-17.97-72.02 4.71-53.36 47.69-13.05-5.72-41.54-5.19-55.66-3.33 10.98-18.21 19.15-60 5.62-88.37-14.77-30.95-54.28-47.8-80.6-21.91 26.45-11.16 18.57-22.51 3.06-32.53-15.52-10.02-26.86-17.34-25.99 11.47-6.71-8.54-20.56-10.71-30.65-6.76-1.97-7.73-9.58-7.74-15.89-12.02-16.34-7.62-22.73-30.99-41.73-19.76 11.33-14.7 20.99-25.17 26.64-42.44 5.76-17.6-2.3-32.09-13.36-50.24-12.29-20.17-48.44-53.18-64.32-20.33 6.73-18.89 12.84-42.25 12.37-64.89-.45-21.79-12.03-42.25-20.47-61.67-8.79-20.23-13.7-47.68-32.59-58.97-18.23-10.89-45.58-7.08-66.69-2.56-20.11 4.35-41.86 14.24-57.68 28.07-16.38 14.32-16.61 37.79-21.07 57.6-4.49 19.96-15.58 41.12-14.41 64.36 1.17 23.14 1.41 46.27 1.44 66.46.04 27.24 12.47 54.47 12.52 81.71s-13.78 54.51-13.74 81.75.54 54.49.58 81.73c.02 12.31-1.73 45.86-3.87 79.23-2.21 34.43 6.22 63.18 15.03 72.96 7.05 7.81 39.46 12.94 51.33 12.93l86.31-14.65 86.31 7.53 69.05-7.9s46.03 13.91 69.05 13.91l69.05-6.06s46.03-7 69.05-7 46.03 6.47 69.05 6.47l69.05.79 69.05 2.91c26.88 0 53.76-7.26 80.64-7.27 26.88 0 53.76 4.44 80.65 4.43 26.88 0 53.76-3.15 80.65-3.15 26.87.01 49.48-3.41 76.37-3.42z"/></g></svg>