<?xml version="1.0" encoding="utf-8"?>
<!-- Generator: Adobe Illustrator 18.1.1, SVG Export Plug-In . SVG Version: 6.00 Build 0)  -->
<svg version="1.1" id="Layer_1" xmlns="http://www.w3.org/2000/svg" xmlns:xlink="http://www.w3.org/1999/xlink" x="0px" y="0px"
	 width="2238px" height="810px" viewBox="-809 512 2238 810" style="enable-background:new -809 512 2238 810;"
	 xml:space="preserve">
<style type="text/css">
	.st0{fill:#FFFFFF;}
</style>
<g>
	<circle class="st0" cx="-588.79" cy="1174.97" r="13.62"/>
	<circle class="st0" cx="942.53" cy="1217.65" r="13.62"/>
	<circle class="st0" cx="328.94" cy="927.35" r="13.62"/>
	<circle class="st0" cx="-186.84" cy="767.68" r="13.62"/>
	<circle class="st0" cx="-142.61" cy="799.73" r="13.62"/>
	<circle class="st0" cx="-780.87" cy="890" r="13.62"/>
	<circle class="st0" cx="629.51" cy="1094.53" r="13.62"/>
	<circle class="st0" cx="-795.1" cy="545.62" r="13.62"/>
	<circle class="st0" cx="994.11" cy="808.59" r="13.62"/>
	<circle class="st0" cx="689.7" cy="724.71" r="8.63"/>
	<circle class="st0" cx="1127.22" cy="781.63" r="8.63"/>
	<circle class="st0" cx="-537.49" cy="904.35" r="8.63"/>
	<circle class="st0" cx="-222.69" cy="911.06" r="8.63"/>
	<circle class="st0" cx="70.77" cy="607.59" r="8.63"/>
	<circle class="st0" cx="-414.78" cy="696.26" r="8.63"/>
	<circle class="st0" cx="1016.95" cy="1040.89" r="8.63"/>
	<circle class="st0" cx="1424.23" cy="889.71" r="8.63"/>
	<circle class="st0" cx="1363.76" cy="1133.37" r="8.63"/>
	<circle class="st0" cx="-286.72" cy="569.98" r="8.63"/>
	<circle class="st0" cx="1194.8" cy="545.34" r="8.63"/>
	<circle class="st0" cx="1406.45" cy="591.58" r="8.63"/>
	<circle class="st0" cx="1280.17" cy="977.27" r="8.63"/>
	<circle class="st0" cx="-338.3" cy="1062.64" r="8.63"/>
	<circle class="st0" cx="680.8" cy="1236.93" r="8.63"/>
	<circle class="st0" cx="132.77" cy="1217.12" r="11.4"/>
	<circle class="st0" cx="649.48" cy="801.39" r="6.55"/>
	<circle class="st0" cx="1067.44" cy="874.72" r="6.55"/>
	<circle class="st0" cx="540.99" cy="666.63" r="6.55"/>
	<circle class="st0" cx="-408.75" cy="792.5" r="6.55"/>
	<circle class="st0" cx="258.21" cy="1048.61" r="6.55"/>
	<circle class="st0" cx="820.22" cy="913.44" r="6.55"/>
	<circle class="st0" cx="921.6" cy="1175.29" r="6.55"/>
	<circle class="st0" cx="1337.78" cy="1175.29" r="6.55"/>
	<circle class="st0" cx="1172.38" cy="973.91" r="6.55"/>
	<circle class="st0" cx="1227.51" cy="940.12" r="6.55"/>
	<circle class="st0" cx="-501.23" cy="808.91" r="6.55"/>
	<circle class="st0" cx="-641.73" cy="607.93" r="6.55"/>
	<circle class="st0" cx="-613.28" cy="1230.42" r="6.55"/>
	<circle class="st0" cx="-768.01" cy="933" r="6.55"/>
	<circle class="st0" cx="-95.72" cy="1161.06" r="6.55"/>
	<circle class="st0" cx="-28.14" cy="666.63" r="6.55"/>
	<circle class="st0" cx="921.6" cy="576.18" r="6.55"/>
	<circle class="st0" cx="-289.12" cy="637.11" r="3.25"/>
	<circle class="st0" cx="-378.05" cy="569.53" r="3.25"/>
	<circle class="st0" cx="-374.49" cy="901.86" r="3.25"/>
	<circle class="st0" cx="813.57" cy="905.41" r="3.25"/>
	<circle class="st0" cx="361.82" cy="1117.06" r="3.25"/>
	<circle class="st0" cx="959.41" cy="596.21" r="3.25"/>
	<circle class="st0" cx="861.59" cy="672.42" r="3.25"/>
	<circle class="st0" cx="500.55" cy="866.29" r="3.25"/>
	<circle class="st0" cx="484.54" cy="912.53" r="3.25"/>
	<circle class="st0" cx="461.42" cy="880.51" r="3.25"/>
	<circle class="st0" cx="980.76" cy="773.8" r="3.25"/>
	<circle class="st0" cx="955.86" cy="809.37" r="3.25"/>
	<circle class="st0" cx="1252.87" cy="617.29" r="3.25"/>
	<circle class="st0" cx="1233.31" cy="1181.09" r="3.25"/>
	<circle class="st0" cx="1277.77" cy="1205.99" r="3.25"/>
	<circle class="st0" cx="1060.79" cy="1054.41" r="3.25"/>
	<circle class="st0" cx="865.15" cy="1266.46" r="3.25"/>
	<circle class="st0" cx="383.17" cy="913.9" r="3.25"/>
	<circle class="st0" cx="103.94" cy="1266.46" r="3.25"/>
	<circle class="st0" cx="-171.74" cy="1166.86" r="3.25"/>
	<circle class="st0" cx="144.84" cy="862.73" r="3.25"/>
	<circle class="st0" cx="239.1" cy="727.56" r="3.25"/>
	<circle class="st0" cx="-687.51" cy="1161.52" r="3.25"/>
	<circle class="st0" cx="-602.14" cy="1077.53" r="3.25"/>
	<circle class="st0" cx="-662.61" cy="1036.62" r="3.25"/>
	<circle class="st0" cx="-200.19" cy="1040.18" r="3.25"/>
</g>
</svg>
