<svg xmlns="http://www.w3.org/2000/svg" width="500" height="543.7" viewBox="0 0 500 543.7"><style type="text/css">.st0{fill:#282830;} .st1{fill:#F7E06F;} .st2{fill:#D6F0FC;} .st3{fill:#FFEDCA;} .st4{fill:#FCC797;} .st5{fill:#F9F3D9;} .st6{fill:#F2F8F9;} .st7{fill:#F9480B;} .st8{fill:none;} .st9{fill:#FFFFFF;}</style><path class="st0" d="M0 0h500v543.7h-500z"/><path class="st4" d="M278.8 194.8c16.3-10.8 43-13.7 88.3-16.8-45-3.1-71.6-6-87.9-16.6 5.9-12.7 18.1-27.4 36.5-48.6-21.2 18.5-36 30.7-48.7 36.6-11-16.3-13.8-43-17-88.5-3.1 45.5-6 72.2-17 88.5-12.7-5.9-27.5-18.1-48.7-36.6 18.4 21.2 30.6 35.9 36.5 48.6-16.3 10.6-42.9 13.5-87.9 16.6 45.3 3.1 72 6 88.3 16.8-5.8 12.8-18.1 27.7-36.9 49.3 21.5-18.7 36.4-31 49.2-36.8 10.5 16.3 13.4 42.9 16.5 87.7 3.1-44.8 5.9-71.4 16.5-87.7 12.8 5.8 27.7 18.1 49.2 36.8-18.8-21.6-31.1-36.5-36.9-49.3z"/><path class="st8" d="M0 336.8h500v206.9h-500z"/><path class="st9" d="M202.7 368.1c-.1-.2-.2-.5-.4-1s-.4-1.1-.7-1.8c-.3-.7-.6-1.5-1-2.3-.3-.8-.7-1.7-1.1-2.6h-10l-3.2 7.7h-4.8c.1-.2.4-.8.8-1.8.4-.9.9-2.1 1.5-3.5s1.3-3 2-4.7 1.5-3.5 2.3-5.3l2.3-5.3s1.4-3.3 2-4.7c.6-1.4 1.1-2.6 1.5-3.5.4-.9.7-1.5.8-1.8.1.2.4.8.8 1.8.4.9.9 2.1 1.5 3.5s1.3 3 2 4.7 1.5 3.5 2.3 5.3l2.3 5.3s1.4 3.3 2 4.7c.6 1.4 1.1 2.6 1.5 3.5.4.9.7 1.5.8 1.8h-5.2zm-11.5-11.8h6.6l-2.9-7s-.1-.2-.2-.5-.2-.6-.2-.9l-.2.9-.2.5-2.9 7zm28.2-.7c-.7 0-1.5.1-2.1.3-.7.2-1.3.5-1.8.9s-.9.9-1.3 1.4c-.3.6-.5 1.2-.5 2v7.9h-3.8v-17h3.4c.1 1 .1 1.7.2 2.3.1.6.1 1.3.2 2 .3-.7.8-1.4 1.4-2 .6-.6 1.2-1.1 1.8-1.5.6-.4 1.2-.7 1.9-1 .6-.2 1.1-.3 1.6-.3l-1 5zm14.5 8l1.2 1.5 1.2 1.4c-.8.6-1.6 1.1-2.6 1.5s-2 .5-3.1.5c-1.3 0-2.4-.2-3.5-.7-1.1-.5-2.1-1.1-2.9-1.9-.8-.8-1.5-1.8-1.9-2.9-.5-1.1-.7-2.3-.7-3.5 0-1.2.2-2.4.7-3.5s1.1-2 1.9-2.8c.8-.8 1.8-1.5 2.9-1.9 1.1-.5 2.3-.7 3.5-.7 1.1 0 2.2.2 3.1.5 1 .4 1.9.8 2.7 1.5l-2.4 2.8c-.9-.7-2.1-1.1-3.4-1.1-.8 0-1.5.1-2.1.4-.6.3-1.2.6-1.7 1.1-.5.5-.8 1-1.1 1.6-.3.6-.4 1.3-.4 2.1 0 .7.1 1.4.4 2 .3.6.6 1.2 1.1 1.7.5.5 1 .9 1.7 1.1.6.3 1.3.4 2.1.4 1.3 0 2.4-.3 3.3-1.1zm7.2-20h3.8v7.4h4.4v3.4h-4.4v13.6h-3.8v-13.6h-2.9v-3.4h2.9v-7.4zm27.3 24.9h-3.2l-.5-4.7c-.6 1.4-1.5 2.5-2.5 3.4-1.1.9-2.5 1.3-4.3 1.3-1.8 0-3.2-.5-4.2-1.4-1-.9-1.6-2.1-1.6-3.7v-12.4h3.8v10.6c.1.8.3 1.5.9 2.1.5.6 1.4.9 2.5.9.8 0 1.5-.1 2.1-.4s1.2-.6 1.7-1.1c.5-.5.8-1.1 1.1-1.7.3-.7.4-1.4.4-2.2v-8.2h3.8v17.5zm14.2-12.9c-.7 0-1.5.1-2.1.3-.7.2-1.3.5-1.8.9s-.9.9-1.3 1.4c-.3.6-.5 1.2-.5 2v7.9h-3.8v-17h3.4c.1 1 .1 1.7.2 2.3.1.6.1 1.3.2 2 .3-.7.8-1.4 1.4-2 .6-.6 1.2-1.1 1.8-1.5.6-.4 1.2-.7 1.9-1 .6-.2 1.1-.3 1.6-.3l-1 5zm19.6 12.9h-3.2l-.5-4.7c-.6 1.4-1.5 2.5-2.5 3.4-1.1.9-2.5 1.3-4.3 1.3-1.8 0-3.2-.5-4.2-1.4-1-.9-1.6-2.1-1.6-3.7v-12.4h3.8v10.6c.1.8.3 1.5.9 2.1.5.6 1.4.9 2.5.9.8 0 1.5-.1 2.1-.4s1.2-.6 1.7-1.1c.5-.5.8-1.1 1.1-1.7.3-.7.4-1.4.4-2.2v-8.2h3.8v17.5zm14.4-15.9c-.2.2-.4.5-.6.8-.2.3-.4.6-.7.9s-.5.6-.8 1c-.3-.2-.5-.3-.8-.4-.3-.1-.5-.2-.9-.3-.3-.1-.7-.1-1-.1-.4 0-.8.1-1.2.3-.4.2-.6.5-.6 1.1 0 .5.2.8.5 1.1.4.3.8.6 1.3.8s1.1.5 1.7.8c.6.3 1.2.6 1.7 1s1 .9 1.3 1.5c.4.6.5 1.3.5 2.2 0 .8-.1 1.5-.4 2.1-.3.6-.7 1.2-1.2 1.6-.5.5-1.1.8-1.9 1.1-.7.3-1.5.4-2.4.4-1.1 0-2.2-.2-3.2-.6-1-.4-1.8-.9-2.4-1.6.2-.2.4-.5.7-.8l.8-.9c.2-.3.5-.6.9-1 0 0 .1 0 .3.1s.4.3.7.4c.3.2.6.3 1 .4.4.1.8.2 1.2.2.7 0 1.2-.1 1.5-.4.4-.3.5-.7.5-1.1 0-.4-.2-.8-.5-1-.4-.3-.8-.5-1.3-.7-.5-.2-1.1-.5-1.7-.7-.6-.3-1.2-.6-1.7-1s-1-.9-1.3-1.5c-.4-.6-.5-1.4-.5-2.4s.2-1.8.5-2.4c.3-.6.8-1.2 1.3-1.6.5-.4 1.1-.7 1.8-.9.6-.2 1.3-.3 1.9-.3.8 0 1.7.2 2.6.5 1 .3 1.8.8 2.4 1.4zm-298.4 30.9h2.5v14.6h-2.5v-14.6zm5.7 2.3h1.9v3.7h2.2v1.7h-2.2v6.8h-1.9v-6.8h-1.4v-1.7h1.4v-3.7zm6 .8c-.2-.1-.3-.2-.5-.2l-.5-.3c.3-.3.5-.6.6-1 .1-.4.1-.8 0-1.3l1.2-.1c.1.6.1 1.1-.1 1.6-.1.4-.3.9-.7 1.3zm7.4 3.7l-.3.4c-.1.2-.2.3-.3.4-.1.1-.2.3-.4.5-.1-.1-.3-.2-.4-.2-.1-.1-.3-.1-.4-.1l-.5-.1c-.2 0-.4 0-.6.1-.2.1-.3.3-.3.5s.1.4.3.6c.2.2.4.3.7.4.3.1.5.3.9.4s.6.3.9.5c.3.2.5.4.7.8.2.3.3.7.3 1.1 0 .4-.1.7-.2 1.1-.1.3-.3.6-.6.8-.3.2-.6.4-.9.5-.4.1-.8.2-1.2.2-.5 0-1.1-.1-1.6-.3-.5-.2-.9-.5-1.2-.8.1-.1.2-.2.3-.4l.4-.5c.1-.1.3-.3.4-.5l.1.1c.1.1.2.1.4.2.1.1.3.2.5.2.2.1.4.1.6.1.3 0 .6-.1.8-.2.2-.1.3-.3.3-.5s-.1-.4-.3-.5c-.2-.1-.4-.3-.7-.4-.3-.1-.5-.2-.9-.4-.3-.1-.6-.3-.9-.5-.3-.2-.5-.5-.7-.8-.2-.3-.3-.7-.3-1.2s.1-.9.3-1.2c.2-.3.4-.6.7-.8.3-.2.6-.3.9-.4.3-.1.6-.1.9-.1.4 0 .8.1 1.3.2l1 .8zm7.5-4.5h1.9v3.7h2.2v1.7h-2.2v6.8h-1.9v-6.8h-1.4v-1.7h1.4v-3.7zm5.5-3.4h1.9v9.2c.3-.7.7-1.2 1.2-1.6.5-.4 1.2-.6 2.1-.6.9 0 1.6.2 2.1.7.5.5.8 1.1.8 1.9v6.2h-1.9v-5.3c0-.4-.2-.8-.4-1.1-.3-.3-.7-.5-1.2-.5-.4 0-.7.1-1.1.2-.3.1-.6.3-.8.6-.2.2-.4.5-.5.9-.1.3-.2.7-.2 1.1v4.1h-1.9v-15.8zm17.8 14.7c-.4.4-.9.7-1.5.9-.6.2-1.2.3-1.8.3-.6 0-1.2-.1-1.8-.4-.6-.2-1-.6-1.4-1-.4-.4-.7-.9-1-1.4-.2-.5-.4-1.1-.4-1.7 0-.6.1-1.2.4-1.7.2-.5.6-1 1-1.4.4-.4.9-.7 1.4-1 .5-.2 1.1-.4 1.7-.4 1 0 1.8.3 2.5.9s1.2 1.3 1.6 2.3c-.4.1-.9.3-1.4.5l-1.6.6-1.7.7s-1.1.4-1.6.6c.2.4.5.7.9 1 .4.3.9.4 1.4.4.3 0 .7-.1 1-.2.4-.1.6-.3.9-.5l1.4 1.5zm-1.7-5c-.2-.3-.4-.5-.7-.6-.3-.1-.6-.2-.9-.2-.4 0-.7.1-1 .2-.3.1-.6.3-.8.6s-.4.5-.5.8-.2.6-.2.9v.1c.3-.1.7-.3 1.1-.4s.8-.3 1.1-.5c.4-.2.7-.3 1.1-.4.2-.3.5-.4.8-.5zm17.5 1.7c0 .6-.1 1.2-.3 1.8s-.5 1-.9 1.4c-.4.4-.9.7-1.4.9-.5.2-1.1.3-1.8.3s-1.2-.1-1.7-.4-.8-.5-1-.8v.9h-1.9v-15.6h1.9v8.2c.1-.1.2-.3.4-.4.2-.2.4-.3.6-.4.2-.1.5-.2.8-.3.3-.1.6-.1 1-.1.7 0 1.2.1 1.8.3.5.2 1 .5 1.4.9.4.4.7.9.9 1.4s.2 1.2.2 1.9zm-2.1 0c0-.7-.2-1.4-.7-1.9s-1-.7-1.8-.7c-.4 0-.7.1-1.1.2-.3.1-.6.3-.8.5-.2.2-.4.5-.6.8-.1.3-.2.6-.2 1s.1.7.2 1c.1.3.3.6.6.8.2.2.5.4.8.6.3.1.7.2 1.1.2.4 0 .7-.1 1-.2s.6-.3.8-.6c.2-.2.4-.5.5-.8.2-.2.2-.5.2-.9zm8.7-2c-.4 0-.7 0-1.1.1-.3.1-.6.2-.9.4-.3.2-.5.4-.6.7-.2.3-.2.6-.2 1v3.9h-1.9v-8.5h1.7c0 .5.1.9.1 1.2 0 .3.1.6.1 1 .2-.4.4-.7.7-1l.9-.8c.3-.2.6-.4.9-.5.3-.1.6-.2.8-.2l-.5 2.7zm1.5-5.5c0-.3.1-.6.4-.9.3-.2.5-.3.8-.3.3 0 .6.1.8.3.2.2.4.5.4.9s-.1.6-.4.9c-.2.2-.5.3-.8.3-.3 0-.6-.1-.8-.3-.2-.3-.4-.6-.4-.9zm2.2 11.8h-1.9v-8.5h1.9v8.5zm1.8-4.2c0-.6.1-1.2.3-1.8.2-.6.5-1 .9-1.4.4-.4.9-.7 1.4-.9.5-.2 1.1-.3 1.7-.3.5 0 .9.1 1.2.2l.9.4c.2.1.4.3.5.4l.2.2v-1h1.8v8.1c0 .7-.1 1.4-.3 1.9-.2.6-.5 1-.9 1.4-.4.4-.9.7-1.5.9-.6.2-1.2.3-1.9.3-.5 0-1-.1-1.4-.2-.4-.1-.7-.2-1.1-.4l-.9-.6-.8-.6 1.2-1.3 1.2.9c.4.2.9.4 1.6.4.8 0 1.5-.2 2-.6.5-.4.7-1 .7-1.7v-1l-.4.4c-.2.2-.4.3-.6.4-.2.1-.5.2-.8.3-.3.1-.7.1-1.1.1-.6 0-1.2-.1-1.8-.3s-1-.5-1.4-.9-.7-.9-.9-1.4.2-1.3.2-1.9zm1.9-.1c0 .4.1.7.2 1 .1.3.3.6.5.8.2.2.5.4.8.6.3.1.7.2 1.1.2.4 0 .7-.1 1.1-.2s.6-.3.8-.6c.2-.2.4-.5.5-.8.1-.3.2-.7.2-1 0-.4-.1-.7-.2-1-.1-.3-.3-.6-.5-.8-.2-.2-.5-.4-.8-.5-.3-.1-.7-.2-1.1-.2-.4 0-.7.1-1.1.2-.3.1-.6.3-.8.5-.2.2-.4.5-.5.8-.1.3-.2.6-.2 1zm9.6-11.4h1.9v9.2c.3-.7.7-1.2 1.2-1.6.5-.4 1.2-.6 2.1-.6.9 0 1.6.2 2.1.7.5.5.8 1.1.8 1.9v6.2h-1.9v-5.3c0-.4-.2-.8-.4-1.1-.3-.3-.7-.5-1.2-.5-.4 0-.7.1-1.1.2-.3.1-.6.3-.8.6-.2.2-.4.5-.5.9-.1.3-.2.7-.2 1.1v4.1h-1.9v-15.8zm11.2 3.4h1.9v3.7h2.2v1.7h-2.2v6.8h-1.9v-6.8h-1.4v-1.7h1.4v-3.7zm12.7 11.3c-.4.4-.9.7-1.5.9-.6.2-1.2.3-1.8.3-.6 0-1.2-.1-1.8-.4-.6-.2-1-.6-1.4-1-.4-.4-.7-.9-1-1.4-.2-.5-.4-1.1-.4-1.7 0-.6.1-1.2.4-1.7.2-.5.6-1 1-1.4.4-.4.9-.7 1.4-1 .5-.2 1.1-.4 1.7-.4 1 0 1.8.3 2.5.9s1.2 1.3 1.6 2.3c-.4.1-.9.3-1.4.5l-1.6.6-1.7.7s-1.1.4-1.6.6c.2.4.5.7.9 1 .4.3.9.4 1.4.4.3 0 .7-.1 1-.2.4-.1.6-.3.9-.5l1.4 1.5zm-1.7-5c-.2-.3-.4-.5-.7-.6-.3-.1-.6-.2-.9-.2-.4 0-.7.1-1 .2-.3.1-.6.3-.8.6s-.4.5-.5.8-.2.6-.2.9v.1c.3-.1.7-.3 1.1-.4s.8-.3 1.1-.5c.4-.2.7-.3 1.1-.4.2-.3.5-.4.8-.5zm8.7-1.8l-.3.4c-.1.2-.2.3-.3.4-.1.1-.2.3-.4.5-.1-.1-.3-.2-.4-.2-.1-.1-.3-.1-.4-.1l-.5-.1c-.2 0-.4 0-.6.1-.2.1-.3.3-.3.5s.1.4.3.6c.2.2.4.3.7.4.3.1.5.3.9.4s.6.3.9.5c.3.2.5.4.7.8.2.3.3.7.3 1.1 0 .4-.1.7-.2 1.1-.1.3-.3.6-.6.8-.3.2-.6.4-.9.5-.4.1-.8.2-1.2.2-.5 0-1.1-.1-1.6-.3-.5-.2-.9-.5-1.2-.8.1-.1.2-.2.3-.4l.4-.5c.1-.1.3-.3.4-.5l.1.1c.1.1.2.1.4.2.1.1.3.2.5.2.2.1.4.1.6.1.3 0 .6-.1.8-.2.2-.1.3-.3.3-.5s-.1-.4-.3-.5c-.2-.1-.4-.3-.7-.4-.3-.1-.5-.2-.9-.4-.3-.1-.6-.3-.9-.5-.3-.2-.5-.5-.7-.8-.2-.3-.3-.7-.3-1.2s.1-.9.3-1.2c.2-.3.4-.6.7-.8.3-.2.6-.3.9-.4.3-.1.6-.1.9-.1.4 0 .8.1 1.3.2l1 .8zm2.9-4.5h1.9v3.7h2.2v1.7h-2.2v6.8h-1.9v-6.8h-1.4v-1.7h1.4v-3.7zm14.6 4.5l-.3.4c-.1.2-.2.3-.3.4-.1.1-.2.3-.4.5-.1-.1-.3-.2-.4-.2-.1-.1-.3-.1-.4-.1l-.5-.1c-.2 0-.4 0-.6.1-.2.1-.3.3-.3.5s.1.4.3.6c.2.2.4.3.7.4.3.1.5.3.9.4s.6.3.9.5c.3.2.5.4.7.8.2.3.3.7.3 1.1 0 .4-.1.7-.2 1.1-.1.3-.3.6-.6.8-.3.2-.6.4-.9.5-.4.1-.8.2-1.2.2-.5 0-1.1-.1-1.6-.3-.5-.2-.9-.5-1.2-.8.1-.1.2-.2.3-.4l.4-.5c.1-.1.3-.3.4-.5l.1.1c.1.1.2.1.4.2.1.1.3.2.5.2.2.1.4.1.6.1.3 0 .6-.1.8-.2.2-.1.3-.3.3-.5s-.1-.4-.3-.5c-.2-.1-.4-.3-.7-.4-.3-.1-.5-.2-.9-.4-.3-.1-.6-.3-.9-.5-.3-.2-.5-.5-.7-.8-.2-.3-.3-.7-.3-1.2s.1-.9.3-1.2c.2-.3.4-.6.7-.8.3-.2.6-.3.9-.4.3-.1.6-.1.9-.1.4 0 .8.1 1.3.2l1 .8zm2.9-4.5h1.9v3.7h2.2v1.7h-2.2v6.8h-1.9v-6.8h-1.4v-1.7h1.4v-3.7zm4.9 8.1c0-.6.1-1.2.4-1.8.2-.6.6-1 1-1.4.4-.4.9-.7 1.4-1 .5-.2 1.1-.4 1.7-.4.4 0 .8.1 1.1.2.3.1.6.2.8.3l.6.4.3.3.1-1h1.9v8.5h-1.9v-.9c-.1.1-.1.2-.3.3s-.3.2-.5.4c-.2.1-.5.2-.8.3-.3.1-.7.1-1.1.1-.7 0-1.3-.1-1.8-.4-.5-.2-1-.6-1.4-1s-.7-.9-.9-1.4c-.5-.4-.6-.9-.6-1.5zm1.9-.1c0 .4.1.7.2 1 .1.3.3.6.5.8.2.2.5.4.8.6.3.1.7.2 1.1.2.4 0 .7-.1 1.1-.2.3-.1.6-.3.8-.6.2-.2.4-.5.5-.8.1-.3.2-.7.2-1 0-.4-.1-.7-.2-1-.1-.3-.3-.6-.5-.8-.2-.2-.5-.4-.8-.5-.3-.1-.7-.2-1.1-.2-.4 0-.7.1-1.1.2-.3.1-.6.3-.8.5-.2.2-.4.5-.5.8-.1.3-.2.6-.2 1zm14.3-2c-.4 0-.7 0-1.1.1-.3.1-.6.2-.9.4-.3.2-.5.4-.6.7-.2.3-.2.6-.2 1v3.9h-1.9v-8.5h1.7c0 .5.1.9.1 1.2 0 .3.1.6.1 1 .2-.4.4-.7.7-1l.9-.8c.3-.2.6-.4.9-.5.3-.1.6-.2.8-.2l-.5 2.7zm2.5-6h1.9v3.7h2.2v1.7h-2.2v6.8h-1.9v-6.8h-1.4v-1.7h1.4v-3.7zm9.5.5c0-.3.1-.6.4-.9.3-.2.5-.3.8-.3.3 0 .6.1.8.3.2.2.4.5.4.9s-.1.6-.4.9c-.2.2-.5.3-.8.3-.3 0-.6-.1-.8-.3-.3-.3-.4-.6-.4-.9zm2.2 11.8h-1.9v-8.5h1.9v8.5zm2.3-8.5h1.7c0 .5.1.9.1 1.2 0 .3.1.6.1 1 .3-.7.7-1.3 1.3-1.7s1.3-.7 2.1-.7c.9 0 1.6.2 2.1.7s.8 1.1.8 1.8v6.2h-1.9v-5.3c0-.4-.2-.8-.4-1.1-.3-.3-.7-.5-1.2-.5-.4 0-.7.1-1.1.2-.3.1-.6.3-.8.6-.2.2-.4.5-.5.9-.1.3-.2.7-.2 1.1v4.1h-1.9v-8.5zm15.8-3.8h1.9v3.7h2.2v1.7h-2.2v6.8h-1.9v-6.8h-1.4v-1.7h1.4v-3.7zm5.5-3.4h1.9v9.2c.3-.7.7-1.2 1.2-1.6.5-.4 1.2-.6 2.1-.6.9 0 1.6.2 2.1.7.5.5.8 1.1.8 1.9v6.2h-1.8v-5.3c0-.4-.2-.8-.4-1.1-.3-.3-.7-.5-1.2-.5-.4 0-.7.1-1.1.2-.3.1-.6.3-.8.6-.2.2-.4.5-.5.9-.1.3-.2.7-.2 1.1v4.1h-1.9v-15.8zm17.8 14.7c-.4.4-.9.7-1.5.9-.6.2-1.2.3-1.8.3-.6 0-1.2-.1-1.8-.4-.6-.2-1-.6-1.4-1-.4-.4-.7-.9-1-1.4-.2-.5-.4-1.1-.4-1.7 0-.6.1-1.2.4-1.7.2-.5.6-1 1-1.4.4-.4.9-.7 1.4-1 .5-.2 1.1-.4 1.7-.4 1 0 1.8.3 2.5.9s1.2 1.3 1.6 2.3c-.4.1-.9.3-1.4.5l-1.6.6-1.7.7s-1.1.4-1.6.6c.2.4.5.7.9 1 .4.3.9.4 1.4.4.3 0 .7-.1 1-.2.4-.1.6-.3.9-.5l1.4 1.5zm-1.7-5c-.2-.3-.4-.5-.7-.6-.3-.1-.6-.2-.9-.2-.4 0-.7.1-1 .2-.3.1-.6.3-.8.6s-.4.5-.5.8-.2.6-.2.9v.1c.3-.1.7-.3 1.1-.4s.8-.3 1.1-.5c.4-.2.7-.3 1.1-.4.2-.3.5-.4.8-.5zm8.4-2.5h1.7c0 .5.1.9.1 1.2 0 .3.1.6.1 1 .3-.7.7-1.3 1.3-1.7s1.3-.7 2.1-.7c.9 0 1.6.2 2.1.7s.8 1.1.8 1.8v6.2h-1.9v-5.3c0-.4-.2-.8-.4-1.1-.3-.3-.7-.5-1.2-.5-.4 0-.7.1-1.1.2-.3.1-.6.3-.8.6-.2.2-.4.5-.5.9-.1.3-.2.7-.2 1.1v4.1h-1.9v-8.5zm9.9 4.2c0-.6.1-1.2.4-1.7.2-.5.6-1 1-1.4.4-.4.9-.7 1.5-1 .6-.2 1.1-.4 1.8-.4.6 0 1.2.1 1.8.4.5.2 1 .6 1.4 1 .4.4.7.9.9 1.4.2.5.3 1.1.3 1.7s-.1 1.2-.3 1.7c-.2.5-.5 1-.9 1.4s-.9.7-1.4 1c-.5.2-1.1.4-1.8.4-.6 0-1.2-.1-1.8-.3-.5-.2-1-.5-1.4-.9-.4-.4-.7-.9-1-1.4-.4-.6-.5-1.2-.5-1.9zm1.9 0c0 .4.1.7.2 1 .1.3.3.6.5.8.2.2.5.4.8.6s.6.2 1 .2.7-.1 1-.2.6-.3.8-.6c.2-.2.4-.5.6-.8.1-.3.2-.6.2-1s-.1-.7-.2-1c-.1-.3-.3-.6-.6-.8-.2-.2-.5-.4-.8-.6-.3-.1-.6-.2-1-.2s-.7.1-1 .2c-.3.1-.6.3-.8.6-.2.2-.4.5-.5.8-.1.3-.2.7-.2 1zm13.7-2c-.4 0-.7 0-1.1.1-.3.1-.6.2-.9.4-.3.2-.5.4-.6.7-.2.3-.2.6-.2 1v3.9h-1.9v-8.5h1.7c0 .5.1.9.1 1.2 0 .3.1.6.1 1 .2-.4.4-.7.7-1l.9-.8c.3-.2.6-.4.9-.5.3-.1.6-.2.8-.2l-.5 2.7zm2.5-6h1.9v3.7h2.2v1.7h-2.2v6.8h-1.9v-6.8h-1.4v-1.7h1.4v-3.7zm5.5-3.4h1.9v9.2c.3-.7.7-1.2 1.2-1.6.5-.4 1.2-.6 2.1-.6.9 0 1.6.2 2.1.7.5.5.8 1.1.8 1.9v6.2h-1.8v-5.3c0-.4-.2-.8-.4-1.1-.3-.3-.7-.5-1.2-.5-.4 0-.7.1-1.1.2-.3.1-.6.3-.8.6-.2.2-.4.5-.5.9-.1.3-.2.7-.2 1.1v4.1h-1.9v-15.8zm17.8 14.7c-.4.4-.9.7-1.5.9-.6.2-1.2.3-1.8.3-.6 0-1.2-.1-1.8-.4-.6-.2-1-.6-1.4-1-.4-.4-.7-.9-1-1.4-.2-.5-.4-1.1-.4-1.7 0-.6.1-1.2.4-1.7.2-.5.6-1 1-1.4.4-.4.9-.7 1.4-1 .5-.2 1.1-.4 1.7-.4 1 0 1.8.3 2.5.9s1.2 1.3 1.6 2.3c-.4.1-.9.3-1.4.5l-1.6.6-1.7.7s-1.1.4-1.6.6c.2.4.5.7.9 1 .4.3.9.4 1.4.4.3 0 .7-.1 1-.2.4-.1.6-.3.9-.5l1.4 1.5zm-1.7-5c-.2-.3-.4-.5-.7-.6-.3-.1-.6-.2-.9-.2-.4 0-.7.1-1 .2-.3.1-.6.3-.8.6s-.4.5-.5.8-.2.6-.2.9v.1c.3-.1.7-.3 1.1-.4s.8-.3 1.1-.5c.4-.2.7-.3 1.1-.4.2-.3.5-.4.8-.5zm8.6-.3c-.4 0-.7 0-1.1.1-.3.1-.6.2-.9.4-.3.2-.5.4-.6.7-.2.3-.2.6-.2 1v3.9h-1.9v-8.5h1.7c0 .5.1.9.1 1.2 0 .3.1.6.1 1 .2-.4.4-.7.7-1l.9-.8c.3-.2.6-.4.9-.5.3-.1.6-.2.8-.2l-.5 2.7zm1.7-2.2h1.7c0 .5.1.9.1 1.2 0 .3.1.6.1 1 .3-.7.7-1.3 1.3-1.7s1.3-.7 2.1-.7c.9 0 1.6.2 2.1.7s.8 1.1.8 1.8v6.2h-1.9v-5.3c0-.4-.2-.8-.4-1.1-.3-.3-.7-.5-1.2-.5-.4 0-.7.1-1.1.2-.3.1-.6.3-.8.6-.2.2-.4.5-.5.9-.1.3-.2.7-.2 1.1v4.1h-1.9v-8.5zm20.7 6.2c.2.3.4.5.6.7l.6.7c-.4.3-.8.5-1.3.7-.5.2-1 .3-1.5.3-.6 0-1.2-.1-1.8-.4-.6-.2-1-.6-1.4-1-.4-.4-.7-.9-1-1.4-.2-.5-.4-1.1-.4-1.7s.1-1.2.4-1.7c.2-.5.6-1 1-1.4.4-.4.9-.7 1.4-1 .6-.2 1.1-.4 1.8-.4.6 0 1.1.1 1.6.3.5.2.9.4 1.3.7l-1.2 1.4c-.5-.4-1-.5-1.7-.5-.4 0-.7.1-1.1.2-.3.1-.6.3-.8.5-.2.2-.4.5-.5.8-.1.3-.2.7-.2 1 0 .4.1.7.2 1 .1.3.3.6.5.8.2.2.5.4.8.6.3.1.7.2 1.1.2.6.2 1.2 0 1.6-.4zm9.8 1.3c-.4.4-.9.7-1.5.9-.6.2-1.2.3-1.8.3-.6 0-1.2-.1-1.8-.4-.6-.2-1-.6-1.4-1-.4-.4-.7-.9-1-1.4-.2-.5-.4-1.1-.4-1.7 0-.6.1-1.2.4-1.7.2-.5.6-1 1-1.4.4-.4.9-.7 1.4-1 .5-.2 1.1-.4 1.7-.4 1 0 1.8.3 2.5.9s1.2 1.3 1.6 2.3c-.4.1-.9.3-1.4.5l-1.6.6-1.7.7s-1.1.4-1.6.6c.2.4.5.7.9 1 .4.3.9.4 1.4.4.3 0 .7-.1 1-.2.4-.1.6-.3.9-.5l1.4 1.5zm-1.6-5c-.2-.3-.4-.5-.7-.6-.3-.1-.6-.2-.9-.2-.4 0-.7.1-1 .2-.3.1-.6.3-.8.6s-.4.5-.5.8-.2.6-.2.9v.1c.3-.1.7-.3 1.1-.4s.8-.3 1.1-.5c.4-.2.7-.3 1.1-.4.2-.3.5-.4.8-.5zm5.7 6h-1.9v-15.6h1.9v15.6zm9.7-1c-.4.4-.9.7-1.5.9-.6.2-1.2.3-1.8.3-.6 0-1.2-.1-1.8-.4-.6-.2-1-.6-1.4-1-.4-.4-.7-.9-1-1.4-.2-.5-.4-1.1-.4-1.7 0-.6.1-1.2.4-1.7.2-.5.6-1 1-1.4.4-.4.9-.7 1.4-1 .5-.2 1.1-.4 1.7-.4 1 0 1.8.3 2.5.9s1.2 1.3 1.6 2.3c-.4.1-.9.3-1.4.5l-1.6.6-1.7.7s-1.1.4-1.6.6c.2.4.5.7.9 1 .4.3.9.4 1.4.4.3 0 .7-.1 1-.2.4-.1.6-.3.9-.5l1.4 1.5zm-1.7-5c-.2-.3-.4-.5-.7-.6-.3-.1-.6-.2-.9-.2-.4 0-.7.1-1 .2-.3.1-.6.3-.8.6s-.4.5-.5.8-.2.6-.2.9v.1c.3-.1.7-.3 1.1-.4s.8-.3 1.1-.5c.4-.2.7-.3 1.1-.4.2-.3.5-.4.8-.5zm8.7-1.8l-.3.4c-.1.2-.2.3-.3.4-.1.1-.2.3-.4.5-.1-.1-.3-.2-.4-.2-.1-.1-.3-.1-.4-.1l-.5-.1c-.2 0-.4 0-.6.1-.2.1-.3.3-.3.5s.1.4.3.6c.2.2.4.3.7.4.3.1.5.3.9.4s.6.3.9.5c.3.2.5.4.7.8.2.3.3.7.3 1.1 0 .4-.1.7-.2 1.1-.1.3-.3.6-.6.8-.3.2-.6.4-.9.5-.4.1-.8.2-1.2.2-.5 0-1.1-.1-1.6-.3-.5-.2-.9-.5-1.2-.8.1-.1.2-.2.3-.4l.4-.5c.1-.1.3-.3.4-.5l.1.1c.1.1.2.1.4.2.1.1.3.2.5.2.2.1.4.1.6.1.3 0 .6-.1.8-.2.2-.1.3-.3.3-.5s-.1-.4-.3-.5c-.2-.1-.4-.3-.7-.4-.3-.1-.5-.2-.9-.4-.3-.1-.6-.3-.9-.5-.3-.2-.5-.5-.7-.8-.2-.3-.3-.7-.3-1.2s.1-.9.3-1.2c.2-.3.4-.6.7-.8.3-.2.6-.3.9-.4.3-.1.6-.1.9-.1.4 0 .8.1 1.3.2l1 .8zm2.9-4.5h1.9v3.7h2.2v1.7h-2.2v6.8h-1.9v-6.8h-1.4v-1.7h1.4v-3.7zm5.4.5c0-.3.1-.6.4-.9.3-.2.5-.3.8-.3.3 0 .6.1.8.3.2.2.4.5.4.9s-.1.6-.4.9c-.2.2-.5.3-.8.3-.3 0-.6-.1-.8-.3-.3-.3-.4-.6-.4-.9zm2.1 11.8h-1.9v-8.5h1.9v8.5zm1.8-4.2c0-.6.1-1.2.4-1.8.2-.6.6-1 1-1.4.4-.4.9-.7 1.4-1 .5-.2 1.1-.4 1.7-.4.4 0 .8.1 1.1.2.3.1.6.2.8.3l.6.4.3.3.1-1h1.9v8.5h-1.9v-.9c-.1.1-.1.2-.3.3s-.3.2-.5.4c-.2.1-.5.2-.8.3-.3.1-.7.1-1.1.1-.7 0-1.3-.1-1.8-.4-.5-.2-1-.6-1.4-1s-.7-.9-.9-1.4c-.5-.4-.6-.9-.6-1.5zm2-.1c0 .4.1.7.2 1 .1.3.3.6.5.8.2.2.5.4.8.6.3.1.7.2 1.1.2.4 0 .7-.1 1.1-.2.3-.1.6-.3.8-.6.2-.2.4-.5.5-.8.1-.3.2-.7.2-1 0-.4-.1-.7-.2-1-.1-.3-.3-.6-.5-.8-.2-.2-.5-.4-.8-.5-.3-.1-.7-.2-1.1-.2-.4 0-.7.1-1.1.2-.3.1-.6.3-.8.5-.2.2-.4.5-.5.8-.2.3-.2.6-.2 1zm11.4 4.3h-1.9v-15.6h1.9v15.6zm6.9-15.7h1.9v9.2c.3-.7.7-1.2 1.2-1.6.5-.4 1.2-.6 2.1-.6.9 0 1.6.2 2.1.7.5.5.8 1.1.8 1.9v6.2h-1.9v-5.3c0-.4-.2-.8-.4-1.1-.3-.3-.7-.5-1.2-.5-.4 0-.7.1-1.1.2-.3.1-.6.3-.8.6-.2.2-.4.5-.5.9-.1.3-.2.7-.2 1.1v4.1h-1.9v-15.8zm17.8 14.7c-.4.4-.9.7-1.5.9-.6.2-1.2.3-1.8.3-.6 0-1.2-.1-1.8-.4-.6-.2-1-.6-1.4-1-.4-.4-.7-.9-1-1.4-.2-.5-.4-1.1-.4-1.7 0-.6.1-1.2.4-1.7.2-.5.6-1 1-1.4.4-.4.9-.7 1.4-1 .5-.2 1.1-.4 1.7-.4 1 0 1.8.3 2.5.9s1.2 1.3 1.6 2.3c-.4.1-.9.3-1.4.5l-1.6.6-1.7.7s-1.1.4-1.6.6c.2.4.5.7.9 1 .4.3.9.4 1.4.4.3 0 .7-.1 1-.2.4-.1.6-.3.9-.5l1.4 1.5zm-1.7-5c-.2-.3-.4-.5-.7-.6-.3-.1-.6-.2-.9-.2-.4 0-.7.1-1 .2-.3.1-.6.3-.8.6s-.4.5-.5.8-.2.6-.2.9v.1c.3-.1.7-.3 1.1-.4s.8-.3 1.1-.5c.4-.2.7-.3 1.1-.4.2-.3.5-.4.8-.5zm3.8-2.5h1.7v2.1c.3-.7.7-1.3 1.2-1.7.5-.4 1.2-.7 2-.7s1.5.2 2 .6.8 1 .9 1.6l.5-.9c.2-.3.4-.5.7-.7.2-.2.5-.4.9-.5.3-.1.7-.2 1.1-.2.9 0 1.6.2 2.1.7s.8 1.1.8 1.8v6.2h-1.7v-5.3c0-.4-.2-.8-.4-1.1-.3-.3-.7-.5-1.3-.5-.8 0-1.4.3-1.8.8-.4.5-.6 1.2-.6 2v4.1h-1.9v-5.3c0-.4-.2-.8-.4-1.1-.3-.3-.7-.5-1.2-.5-.8 0-1.4.3-1.8.8-.4.5-.6 1.2-.6 1.9v4.1h-1.9v-8.2zm16.2-3.3c0-.3.1-.6.4-.9.3-.2.5-.3.8-.3.3 0 .6.1.8.3.2.2.4.5.4.9s-.1.6-.4.9c-.2.2-.5.3-.8.3-.3 0-.6-.1-.8-.3-.3-.3-.4-.6-.4-.9zm2.1 11.8h-1.9v-8.5h1.9v8.5zm7.2-7.8l-.3.4c-.1.2-.2.3-.3.4-.1.1-.2.3-.4.5-.1-.1-.3-.2-.4-.2-.1-.1-.3-.1-.4-.1l-.5-.1c-.2 0-.4 0-.6.1-.2.1-.3.3-.3.5s.1.4.3.6c.2.2.4.3.7.4.3.1.5.3.9.4s.6.3.9.5c.3.2.5.4.7.8.2.3.3.7.3 1.1 0 .4-.1.7-.2 1.1-.1.3-.3.6-.6.8-.3.2-.6.4-.9.5-.4.1-.8.2-1.2.2-.5 0-1.1-.1-1.6-.3-.5-.2-.9-.5-1.2-.8.1-.1.2-.2.3-.4l.4-.5c.1-.1.3-.3.4-.5l.1.1c.1.1.2.1.4.2.1.1.3.2.5.2.2.1.4.1.6.1.3 0 .6-.1.8-.2.2-.1.3-.3.3-.5s-.1-.4-.3-.5c-.2-.1-.4-.3-.7-.4-.3-.1-.5-.2-.9-.4-.3-.1-.6-.3-.9-.5-.3-.2-.5-.5-.7-.8-.2-.3-.3-.7-.3-1.2s.1-.9.3-1.2c.2-.3.4-.6.7-.8.3-.2.6-.3.9-.4.3-.1.6-.1.9-.1.4 0 .8.1 1.3.2.4.3.7.5 1 .8zm11.3 3.5c0 .6-.1 1.2-.3 1.8s-.5 1-.9 1.4c-.4.4-.9.7-1.4.9-.5.2-1.1.3-1.8.3s-1.2-.1-1.7-.4-.8-.5-1-.8v5h-1.9v-12.6h1.8v1.1c.1-.1.2-.3.4-.4.2-.2.4-.3.6-.4.2-.1.5-.2.8-.3.3-.1.6-.1 1-.1.7 0 1.2.1 1.8.3.5.2 1 .5 1.4.9.4.4.7.9.9 1.4s.3 1.2.3 1.9zm-2.1 0c0-.7-.2-1.4-.7-1.9s-1-.7-1.8-.7c-.4 0-.7.1-1.1.2-.3.1-.6.3-.8.5-.2.2-.4.5-.6.8-.1.3-.2.6-.2 1s.1.7.2 1c.1.3.3.6.6.8.2.2.5.4.8.6.3.1.7.2 1.1.2.4 0 .7-.1 1-.2s.6-.3.8-.6c.2-.2.4-.5.5-.8.2-.2.2-.5.2-.9zm3.9-11.4h1.9v9.2c.3-.7.7-1.2 1.2-1.6.5-.4 1.2-.6 2.1-.6.9 0 1.6.2 2.1.7.5.5.8 1.1.8 1.9v6.2h-1.9v-5.3c0-.4-.2-.8-.4-1.1-.3-.3-.7-.5-1.2-.5-.4 0-.7.1-1.1.2-.3.1-.6.3-.8.6-.2.2-.4.5-.5.9-.1.3-.2.7-.2 1.1v4.1h-1.9v-15.8zm17.8 14.7c-.4.4-.9.7-1.5.9-.6.2-1.2.3-1.8.3-.6 0-1.2-.1-1.8-.4-.6-.2-1-.6-1.4-1-.4-.4-.7-.9-1-1.4-.2-.5-.4-1.1-.4-1.7 0-.6.1-1.2.4-1.7.2-.5.6-1 1-1.4.4-.4.9-.7 1.4-1 .5-.2 1.1-.4 1.7-.4 1 0 1.8.3 2.5.9s1.2 1.3 1.6 2.3c-.4.1-.9.3-1.4.5l-1.6.6-1.7.7s-1.1.4-1.6.6c.2.4.5.7.9 1 .4.3.9.4 1.4.4.3 0 .7-.1 1-.2.4-.1.6-.3.9-.5l1.4 1.5zm-1.7-5c-.2-.3-.4-.5-.7-.6-.3-.1-.6-.2-.9-.2-.4 0-.7.1-1 .2-.3.1-.6.3-.8.6s-.4.5-.5.8-.2.6-.2.9v.1c.3-.1.7-.3 1.1-.4s.8-.3 1.1-.5c.4-.2.7-.3 1.1-.4.2-.3.5-.4.8-.5zm8.6-.3c-.4 0-.7 0-1.1.1-.3.1-.6.2-.9.4-.3.2-.5.4-.6.7-.2.3-.2.6-.2 1v3.9h-1.9v-8.5h1.7c0 .5.1.9.1 1.2 0 .3.1.6.1 1 .2-.4.4-.7.7-1l.9-.8c.3-.2.6-.4.9-.5.3-.1.6-.2.8-.2l-.5 2.7zm8.9 5.3c-.4.4-.9.7-1.5.9-.6.2-1.2.3-1.8.3-.6 0-1.2-.1-1.8-.4-.6-.2-1-.6-1.4-1-.4-.4-.7-.9-1-1.4-.2-.5-.4-1.1-.4-1.7 0-.6.1-1.2.4-1.7.2-.5.6-1 1-1.4.4-.4.9-.7 1.4-1 .5-.2 1.1-.4 1.7-.4 1 0 1.8.3 2.5.9s1.2 1.3 1.6 2.3c-.4.1-.9.3-1.4.5l-1.6.6-1.7.7s-1.1.4-1.6.6c.2.4.5.7.9 1 .4.3.9.4 1.4.4.3 0 .7-.1 1-.2.4-.1.6-.3.9-.5l1.4 1.5zm-1.7-5c-.2-.3-.4-.5-.7-.6-.3-.1-.6-.2-.9-.2-.4 0-.7.1-1 .2-.3.1-.6.3-.8.6s-.4.5-.5.8-.2.6-.2.9v.1c.3-.1.7-.3 1.1-.4s.8-.3 1.1-.5c.4-.2.7-.3 1.1-.4.2-.3.5-.4.8-.5zm3.7 4.7c0-.3.1-.6.4-.9.3-.2.5-.4.8-.4.3 0 .6.1.8.4.3.2.4.5.4.9s-.1.7-.4.9c-.3.2-.5.3-.8.3-.3 0-.6-.1-.8-.3-.2-.2-.4-.5-.4-.9zm-431.9 16.7v2.3h-3.6v12.2h-2.5v-12.2h-3.5v-2.3h9.6zm1.8-1.1h1.9v9.2c.3-.7.7-1.2 1.2-1.6.5-.4 1.2-.6 2.1-.6.9 0 1.6.2 2.1.7.5.5.8 1.1.8 1.9v6.2h-1.9v-5.3c0-.4-.2-.8-.4-1.1-.3-.3-.7-.5-1.2-.5-.4 0-.7.1-1.1.2-.3.1-.6.3-.8.6-.2.2-.4.5-.5.9-.1.3-.2.7-.2 1.1v4.1h-1.9v-15.8zm10.2 3.9c0-.3.1-.6.4-.9.3-.2.5-.3.8-.3.3 0 .6.1.8.3.2.2.4.5.4.9s-.1.6-.4.9c-.2.2-.5.3-.8.3-.3 0-.6-.1-.8-.3-.3-.3-.4-.6-.4-.9zm2.1 11.8h-1.9v-8.5h1.9v8.5zm7.2-7.8l-.3.4c-.1.2-.2.3-.3.4-.1.1-.2.3-.4.5-.1-.1-.3-.2-.4-.2-.1-.1-.3-.1-.4-.1l-.5-.1c-.2 0-.4 0-.6.1-.2.1-.3.3-.3.5s.1.4.3.6c.2.2.4.3.7.4.3.1.5.3.9.4s.6.3.9.5c.3.2.5.4.7.8.2.3.3.7.3 1.1 0 .4-.1.7-.2 1.1-.1.3-.3.6-.6.8-.3.2-.6.4-.9.5-.4.1-.8.2-1.2.2-.5 0-1.1-.1-1.6-.3-.5-.2-.9-.5-1.2-.8.1-.1.2-.2.3-.4l.4-.5c.1-.1.3-.3.4-.5l.1.1c.1.1.2.1.4.2.1.1.3.2.5.2.2.1.4.1.6.1.3 0 .6-.1.8-.2.2-.1.3-.3.3-.5s-.1-.4-.3-.5c-.2-.1-.4-.3-.7-.4-.3-.1-.5-.2-.9-.4-.3-.1-.6-.3-.9-.5-.3-.2-.5-.5-.7-.8-.2-.3-.3-.7-.3-1.2s.1-.9.3-1.2c.2-.3.4-.6.7-.8.3-.2.6-.3.9-.4.3-.1.6-.1.9-.1.4 0 .8.1 1.3.2l1 .8zm6.2 3.5c0-.6.1-1.2.4-1.7.2-.5.6-1 1-1.4.4-.4.9-.7 1.5-1 .6-.2 1.1-.4 1.8-.4.6 0 1.2.1 1.8.4.5.2 1 .6 1.4 1 .4.4.7.9.9 1.4.2.5.3 1.1.3 1.7s-.1 1.2-.3 1.7c-.2.5-.5 1-.9 1.4s-.9.7-1.4 1c-.5.2-1.1.4-1.8.4-.6 0-1.2-.1-1.8-.3-.5-.2-1-.5-1.4-.9-.4-.4-.7-.9-1-1.4-.4-.6-.5-1.2-.5-1.9zm1.9 0c0 .4.1.7.2 1 .1.3.3.6.5.8.2.2.5.4.8.6s.6.2 1 .2.7-.1 1-.2.6-.3.8-.6c.2-.2.4-.5.6-.8.1-.3.2-.6.2-1s-.1-.7-.2-1c-.1-.3-.3-.6-.6-.8-.2-.2-.5-.4-.8-.6-.3-.1-.6-.2-1-.2s-.7.1-1 .2c-.3.1-.6.3-.8.6-.2.2-.4.5-.5.8-.1.3-.2.7-.2 1zm13.7-2c-.4 0-.7 0-1.1.1-.3.1-.6.2-.9.4-.3.2-.5.4-.6.7-.2.3-.2.6-.2 1v3.9h-1.9v-8.5h1.7c0 .5.1.9.1 1.2 0 .3.1.6.1 1 .2-.4.4-.7.7-1l.9-.8c.3-.2.6-.4.9-.5.3-.1.6-.2.8-.2l-.5 2.7zm1 2.1c0-.6.1-1.2.4-1.8.2-.6.6-1 1-1.4.4-.4.9-.7 1.4-1 .5-.2 1.1-.4 1.7-.4.4 0 .8.1 1.1.2.3.1.6.2.8.3l.6.4.3.3.1-1h1.9v8.5h-1.9v-.9c-.1.1-.1.2-.3.3s-.3.2-.5.4c-.2.1-.5.2-.8.3-.3.1-.7.1-1.1.1-.7 0-1.3-.1-1.8-.4-.5-.2-1-.6-1.4-1s-.7-.9-.9-1.4c-.5-.4-.6-.9-.6-1.5zm1.9-.1c0 .4.1.7.2 1 .1.3.3.6.5.8.2.2.5.4.8.6.3.1.7.2 1.1.2.4 0 .7-.1 1.1-.2.3-.1.6-.3.8-.6.2-.2.4-.5.5-.8.1-.3.2-.7.2-1 0-.4-.1-.7-.2-1-.1-.3-.3-.6-.5-.8-.2-.2-.5-.4-.8-.5-.3-.1-.7-.2-1.1-.2-.4 0-.7.1-1.1.2-.3.1-.6.3-.8.5-.2.2-.4.5-.5.8-.1.3-.2.6-.2 1zm9.6-4.2h1.7c0 .5.1.9.1 1.2 0 .3.1.6.1 1 .3-.7.7-1.3 1.3-1.7s1.3-.7 2.1-.7c.9 0 1.6.2 2.1.7s.8 1.1.8 1.8v6.2h-1.9v-5.3c0-.4-.2-.8-.4-1.1-.3-.3-.7-.5-1.2-.5-.4 0-.7.1-1.1.2-.3.1-.6.3-.8.6-.2.2-.4.5-.5.9-.1.3-.2.7-.2 1.1v4.1h-1.9v-8.5zm9.9 4.3c0-.6.1-1.2.3-1.8.2-.6.5-1 .9-1.4.4-.4.9-.7 1.4-.9.5-.2 1.1-.3 1.7-.3.5 0 .9.1 1.2.2l.9.4c.2.1.4.3.5.4l.2.2v-1h1.8v8.1c0 .7-.1 1.4-.3 1.9-.2.6-.5 1-.9 1.4-.4.4-.9.7-1.5.9-.6.2-1.2.3-1.9.3-.5 0-1-.1-1.4-.2-.4-.1-.7-.2-1.1-.4l-.9-.6-.8-.6 1.2-1.3 1.2.9c.4.2.9.4 1.6.4.8 0 1.5-.2 2-.6.5-.4.7-1 .7-1.7v-1l-.4.4c-.2.2-.4.3-.6.4-.2.1-.5.2-.8.3-.3.1-.7.1-1.1.1-.6 0-1.2-.1-1.8-.3s-1-.5-1.4-.9-.7-.9-.9-1.4.2-1.3.2-1.9zm1.9-.1c0 .4.1.7.2 1 .1.3.3.6.5.8.2.2.5.4.8.6.3.1.7.2 1.1.2.4 0 .7-.1 1.1-.2s.6-.3.8-.6c.2-.2.4-.5.5-.8.1-.3.2-.7.2-1 0-.4-.1-.7-.2-1-.1-.3-.3-.6-.5-.8-.2-.2-.5-.4-.8-.5-.3-.1-.7-.2-1.1-.2-.4 0-.7.1-1.1.2-.3.1-.6.3-.8.5-.2.2-.4.5-.5.8-.1.3-.2.6-.2 1zm16.9 3.3c-.4.4-.9.7-1.5.9-.6.2-1.2.3-1.8.3-.6 0-1.2-.1-1.8-.4-.6-.2-1-.6-1.4-1-.4-.4-.7-.9-1-1.4-.2-.5-.4-1.1-.4-1.7 0-.6.1-1.2.4-1.7.2-.5.6-1 1-1.4.4-.4.9-.7 1.4-1 .5-.2 1.1-.4 1.7-.4 1 0 1.8.3 2.5.9s1.2 1.3 1.6 2.3c-.4.1-.9.3-1.4.5l-1.6.6-1.7.7s-1.1.4-1.6.6c.2.4.5.7.9 1 .4.3.9.4 1.4.4.3 0 .7-.1 1-.2.4-.1.6-.3.9-.5l1.4 1.5zm-1.7-5c-.2-.3-.4-.5-.7-.6-.3-.1-.6-.2-.9-.2-.4 0-.7.1-1 .2-.3.1-.6.3-.8.6s-.4.5-.5.8-.2.6-.2.9v.1c.3-.1.7-.3 1.1-.4s.8-.3 1.1-.5c.4-.2.7-.3 1.1-.4.2-.3.5-.4.8-.5zm7.9 1.8c0-.6.1-1.2.3-1.8.2-.6.5-1 .9-1.4.4-.4.9-.7 1.4-.9.5-.2 1.1-.3 1.7-.3.5 0 .9.1 1.2.2l.9.4c.2.1.4.3.5.4l.2.2v-1h1.8v8.1c0 .7-.1 1.4-.3 1.9-.2.6-.5 1-.9 1.4-.4.4-.9.7-1.5.9-.6.2-1.2.3-1.9.3-.5 0-1-.1-1.4-.2-.4-.1-.7-.2-1.1-.4l-.9-.6-.8-.6 1.2-1.3 1.2.9c.4.2.9.4 1.6.4.8 0 1.5-.2 2-.6.5-.4.7-1 .7-1.7v-1l-.4.4c-.2.2-.4.3-.6.4-.2.1-.5.2-.8.3-.3.1-.7.1-1.1.1-.6 0-1.2-.1-1.8-.3s-1-.5-1.4-.9-.7-.9-.9-1.4.2-1.3.2-1.9zm1.9-.1c0 .4.1.7.2 1 .1.3.3.6.5.8.2.2.5.4.8.6.3.1.7.2 1.1.2.4 0 .7-.1 1.1-.2s.6-.3.8-.6c.2-.2.4-.5.5-.8.1-.3.2-.7.2-1 0-.4-.1-.7-.2-1-.1-.3-.3-.6-.5-.8-.2-.2-.5-.4-.8-.5-.3-.1-.7-.2-1.1-.2-.4 0-.7.1-1.1.2-.3.1-.6.3-.8.5-.2.2-.4.5-.5.8-.1.3-.2.6-.2 1zm9.3-7.5c0-.3.1-.6.4-.9.3-.2.5-.3.8-.3.3 0 .6.1.8.3.2.2.4.5.4.9s-.1.6-.4.9c-.2.2-.5.3-.8.3-.3 0-.6-.1-.8-.3-.3-.3-.4-.6-.4-.9zm2.2 11.8h-2v-8.5h1.9v8.5zm1.8-4.2c0-.6.1-1.2.4-1.8.2-.6.6-1 1-1.4.4-.4.9-.7 1.4-1 .5-.2 1.1-.4 1.7-.4.4 0 .8.1 1.1.2.3.1.6.2.8.3l.6.4.3.3.1-1h1.9v8.5h-2.1v-.9c-.1.1-.1.2-.3.3s-.3.2-.5.4c-.2.1-.5.2-.8.3-.3.1-.7.1-1.1.1-.7 0-1.3-.1-1.8-.4-.5-.2-1-.6-1.4-1s-.7-.9-.9-1.4c-.3-.4-.4-.9-.4-1.5zm1.9-.1c0 .4.1.7.2 1 .1.3.3.6.5.8.2.2.5.4.8.6.3.1.7.2 1.1.2.4 0 .7-.1 1.1-.2.3-.1.6-.3.8-.6.2-.2.4-.5.5-.8.1-.3.2-.7.2-1 0-.4-.1-.7-.2-1-.1-.3-.3-.6-.5-.8-.2-.2-.5-.4-.8-.5-.3-.1-.7-.2-1.1-.2-.4 0-.7.1-1.1.2-.3.1-.6.3-.8.5-.2.2-.4.5-.5.8-.1.3-.2.6-.2 1zm9.6-4.2h1.7c0 .5.1.9.1 1.2 0 .3.1.6.1 1 .3-.7.7-1.3 1.3-1.7s1.3-.7 2.1-.7c.9 0 1.6.2 2.1.7s.8 1.1.8 1.8v6.2h-1.9v-5.3c0-.4-.2-.8-.4-1.1-.3-.3-.7-.5-1.2-.5-.4 0-.7.1-1.1.2-.3.1-.6.3-.8.6-.2.2-.4.5-.5.9-.1.3-.2.7-.2 1.1v4.1h-1.9v-8.5zm11.2-3.8h1.9v3.7h2.2v1.7h-2.2v6.8h-1.9v-6.8h-1.5v-1.7h1.4v-3.7zm9.7-3.4h1.9v9.2c.3-.7.7-1.2 1.2-1.6.5-.4 1.2-.6 2.1-.6.9 0 1.6.2 2.1.7.5.5.8 1.1.8 1.9v6.2h-1.9v-5.3c0-.4-.2-.8-.4-1.1-.3-.3-.7-.5-1.2-.5-.4 0-.7.1-1.1.2-.3.1-.6.3-.8.6-.2.2-.4.5-.5.9-.1.3-.2.7-.2 1.1v4.1h-1.9v-15.8zm9.9 11.5c0-.6.1-1.2.4-1.8.2-.6.6-1 1-1.4.4-.4.9-.7 1.4-1 .5-.2 1.1-.4 1.7-.4.4 0 .8.1 1.1.2.3.1.6.2.8.3l.6.4.3.3.1-1h1.9v8.5h-1.9v-.9c-.1.1-.1.2-.3.3s-.3.2-.5.4c-.2.1-.5.2-.8.3-.3.1-.7.1-1.1.1-.7 0-1.3-.1-1.8-.4-.5-.2-1-.6-1.4-1s-.7-.9-.9-1.4c-.5-.4-.6-.9-.6-1.5zm1.9-.1c0 .4.1.7.2 1 .1.3.3.6.5.8.2.2.5.4.8.6.3.1.7.2 1.1.2.4 0 .7-.1 1.1-.2.3-.1.6-.3.8-.6.2-.2.4-.5.5-.8.1-.3.2-.7.2-1 0-.4-.1-.7-.2-1-.1-.3-.3-.6-.5-.8-.2-.2-.5-.4-.8-.5-.3-.1-.7-.2-1.1-.2-.4 0-.7.1-1.1.2-.3.1-.6.3-.8.5-.2.2-.4.5-.5.8-.1.3-.2.6-.2 1zm14.4-3.5l-.3.4c-.1.2-.2.3-.3.4-.1.1-.2.3-.4.5-.1-.1-.3-.2-.4-.2-.1-.1-.3-.1-.4-.1l-.5-.1c-.2 0-.4 0-.6.1-.2.1-.3.3-.3.5s.1.4.3.6c.2.2.4.3.7.4.3.1.5.3.9.4s.6.3.9.5c.3.2.5.4.7.8.2.3.3.7.3 1.1 0 .4-.1.7-.2 1.1-.1.3-.3.6-.6.8-.3.2-.6.4-.9.5-.4.1-.8.2-1.2.2-.5 0-1.1-.1-1.6-.3-.5-.2-.9-.5-1.2-.8.1-.1.2-.2.3-.4l.4-.5c.1-.1.3-.3.4-.5l.1.1c.1.1.2.1.4.2.1.1.3.2.5.2.2.1.4.1.6.1.3 0 .6-.1.8-.2.2-.1.3-.3.3-.5s-.1-.4-.3-.5c-.2-.1-.4-.3-.7-.4-.3-.1-.5-.2-.9-.4-.3-.1-.6-.3-.9-.5-.3-.2-.5-.5-.7-.8-.2-.3-.3-.7-.3-1.2s.1-.9.3-1.2c.2-.3.4-.6.7-.8.3-.2.6-.3.9-.4.3-.1.6-.1.9-.1.4 0 .8.1 1.3.2l1 .8zm15.8 3.5c0 .6-.1 1.2-.3 1.8s-.5 1-.9 1.4c-.4.4-.9.7-1.4.9-.5.2-1.1.3-1.8.3s-1.2-.1-1.7-.4-.8-.5-1-.8v.9h-1.9v-15.6h1.9v8.2c.1-.1.2-.3.4-.4.2-.2.4-.3.6-.4.2-.1.5-.2.8-.3.3-.1.6-.1 1-.1.7 0 1.2.1 1.8.3.5.2 1 .5 1.4.9.4.4.7.9.9 1.4s.2 1.2.2 1.9zm-2 0c0-.7-.2-1.4-.7-1.9s-1-.7-1.8-.7c-.4 0-.7.1-1.1.2-.3.1-.6.3-.8.5-.2.2-.4.5-.6.8-.1.3-.2.6-.2 1s.1.7.2 1c.1.3.3.6.6.8.2.2.5.4.8.6.3.1.7.2 1.1.2.4 0 .7-.1 1-.2s.6-.3.8-.6c.2-.2.4-.5.5-.8.1-.2.2-.5.2-.9zm11.2 3.3c-.4.4-.9.7-1.5.9-.6.2-1.2.3-1.8.3-.6 0-1.2-.1-1.8-.4-.6-.2-1-.6-1.4-1-.4-.4-.7-.9-1-1.4-.2-.5-.4-1.1-.4-1.7 0-.6.1-1.2.4-1.7.2-.5.6-1 1-1.4.4-.4.9-.7 1.4-1 .5-.2 1.1-.4 1.7-.4 1 0 1.8.3 2.5.9s1.2 1.3 1.6 2.3c-.4.1-.9.3-1.4.5l-1.6.6-1.7.7s-1.1.4-1.6.6c.2.4.5.7.9 1 .4.3.9.4 1.4.4.3 0 .7-.1 1-.2.4-.1.6-.3.9-.5l1.4 1.5zm-1.7-5c-.2-.3-.4-.5-.7-.6-.3-.1-.6-.2-.9-.2-.4 0-.7.1-1 .2-.3.1-.6.3-.8.6s-.4.5-.5.8-.2.6-.2.9v.1c.3-.1.7-.3 1.1-.4s.8-.3 1.1-.5c.4-.2.7-.3 1.1-.4.2-.3.5-.4.8-.5zm11.2 5c-.4.4-.9.7-1.5.9-.6.2-1.2.3-1.8.3-.6 0-1.2-.1-1.8-.4-.6-.2-1-.6-1.4-1-.4-.4-.7-.9-1-1.4-.2-.5-.4-1.1-.4-1.7 0-.6.1-1.2.4-1.7.2-.5.6-1 1-1.4.4-.4.9-.7 1.4-1 .5-.2 1.1-.4 1.7-.4 1 0 1.8.3 2.5.9s1.2 1.3 1.6 2.3c-.4.1-.9.3-1.4.5l-1.6.6-1.7.7s-1.1.4-1.6.6c.2.4.5.7.9 1 .4.3.9.4 1.4.4.3 0 .7-.1 1-.2.4-.1.6-.3.9-.5l1.4 1.5zm-1.7-5c-.2-.3-.4-.5-.7-.6-.3-.1-.6-.2-.9-.2-.4 0-.7.1-1 .2-.3.1-.6.3-.8.6s-.4.5-.5.8-.2.6-.2.9v.1c.3-.1.7-.3 1.1-.4s.8-.3 1.1-.5c.4-.2.7-.3 1.1-.4.2-.3.5-.4.8-.5zm3.9-2.5h1.7c0 .5.1.9.1 1.2 0 .3.1.6.1 1 .3-.7.7-1.3 1.3-1.7s1.3-.7 2.1-.7c.9 0 1.6.2 2.1.7s.8 1.1.8 1.8v6.2h-1.9v-5.3c0-.4-.2-.8-.4-1.1-.3-.3-.7-.5-1.2-.5-.4 0-.7.1-1.1.2-.3.1-.6.3-.8.6-.2.2-.4.5-.5.9-.1.3-.2.7-.2 1.1v4.1h-1.9v-8.5zm14.4 4.2c0-.6.1-1.2.4-1.7.2-.5.6-1 1-1.4.4-.4.9-.7 1.5-1 .6-.2 1.1-.4 1.8-.4.6 0 1.2.1 1.8.4.5.2 1 .6 1.4 1 .4.4.7.9.9 1.4.2.5.3 1.1.3 1.7s-.1 1.2-.3 1.7c-.2.5-.5 1-.9 1.4s-.9.7-1.4 1c-.5.2-1.1.4-1.8.4-.6 0-1.2-.1-1.8-.3-.5-.2-1-.5-1.4-.9-.4-.4-.7-.9-1-1.4-.4-.6-.5-1.2-.5-1.9zm1.9 0c0 .4.1.7.2 1 .1.3.3.6.5.8.2.2.5.4.8.6s.6.2 1 .2.7-.1 1-.2.6-.3.8-.6c.2-.2.4-.5.6-.8.1-.3.2-.6.2-1s-.1-.7-.2-1c-.1-.3-.3-.6-.6-.8-.2-.2-.5-.4-.8-.6-.3-.1-.6-.2-1-.2s-.7.1-1 .2c-.3.1-.6.3-.8.6-.2.2-.4.5-.5.8-.1.3-.2.7-.2 1zm18 0c0 .6-.1 1.2-.3 1.8s-.5 1-.9 1.4c-.4.4-.9.7-1.4.9-.5.2-1.1.3-1.8.3s-1.2-.1-1.7-.4-.8-.5-1-.8v.9h-1.9v-15.6h1.9v8.2c.1-.1.2-.3.4-.4.2-.2.4-.3.6-.4.2-.1.5-.2.8-.3.3-.1.6-.1 1-.1.7 0 1.2.1 1.8.3.5.2 1 .5 1.4.9.4.4.7.9.9 1.4s.2 1.2.2 1.9zm-2 0c0-.7-.2-1.4-.7-1.9s-1-.7-1.8-.7c-.4 0-.7.1-1.1.2-.3.1-.6.3-.8.5-.2.2-.4.5-.6.8-.1.3-.2.6-.2 1s.1.7.2 1c.1.3.3.6.6.8.2.2.5.4.8.6.3.1.7.2 1.1.2.4 0 .7-.1 1-.2s.6-.3.8-.6c.2-.2.4-.5.5-.8.1-.2.2-.5.2-.9zm8.7-3.5l-.3.4c-.1.2-.2.3-.3.4-.1.1-.2.3-.4.5-.1-.1-.3-.2-.4-.2-.1-.1-.3-.1-.4-.1l-.5-.1c-.2 0-.4 0-.6.1-.2.1-.3.3-.3.5s.1.4.3.6c.2.2.4.3.7.4.3.1.5.3.9.4s.6.3.9.5c.3.2.5.4.7.8.2.3.3.7.3 1.1 0 .4-.1.7-.2 1.1-.1.3-.3.6-.6.8-.3.2-.6.4-.9.5-.4.1-.8.2-1.2.2-.5 0-1.1-.1-1.6-.3-.5-.2-.9-.5-1.2-.8.1-.1.2-.2.3-.4l.4-.5c.1-.1.3-.3.4-.5l.1.1c.1.1.2.1.4.2.1.1.3.2.5.2.2.1.4.1.6.1.3 0 .6-.1.8-.2.2-.1.3-.3.3-.5s-.1-.4-.3-.5c-.2-.1-.4-.3-.7-.4-.3-.1-.5-.2-.9-.4-.3-.1-.6-.3-.9-.5-.3-.2-.5-.5-.7-.8-.2-.3-.3-.7-.3-1.2s.1-.9.3-1.2c.2-.3.4-.6.7-.8.3-.2.6-.3.9-.4.3-.1.6-.1.9-.1.4 0 .8.1 1.3.2l1 .8zm9.5 6.8c-.4.4-.9.7-1.5.9-.6.2-1.2.3-1.8.3-.6 0-1.2-.1-1.8-.4-.6-.2-1-.6-1.4-1-.4-.4-.7-.9-1-1.4-.2-.5-.4-1.1-.4-1.7 0-.6.1-1.2.4-1.7.2-.5.6-1 1-1.4.4-.4.9-.7 1.4-1 .5-.2 1.1-.4 1.7-.4 1 0 1.8.3 2.5.9s1.2 1.3 1.6 2.3c-.4.1-.9.3-1.4.5l-1.6.6-1.7.7s-1.1.4-1.6.6c.2.4.5.7.9 1 .4.3.9.4 1.4.4.3 0 .7-.1 1-.2.4-.1.6-.3.9-.5l1.4 1.5zm-1.7-5c-.2-.3-.4-.5-.7-.6-.3-.1-.6-.2-.9-.2-.4 0-.7.1-1 .2-.3.1-.6.3-.8.6s-.4.5-.5.8-.2.6-.2.9v.1c.3-.1.7-.3 1.1-.4s.8-.3 1.1-.5c.4-.2.7-.3 1.1-.4.2-.3.5-.4.8-.5zm8.6-.3c-.4 0-.7 0-1.1.1-.3.1-.6.2-.9.4-.3.2-.5.4-.6.7-.2.3-.2.6-.2 1v3.9h-1.9v-8.5h1.7c0 .5.1.9.1 1.2 0 .3.1.6.1 1 .2-.4.4-.7.7-1l.9-.8c.3-.2.6-.4.9-.5.3-.1.6-.2.8-.2l-.5 2.7zm5.2 6.8c-.8-1.5-1.6-3-2.3-4.5l-2.2-4.5h2.1l1.2 2.4c.3.6.5 1.1.7 1.5.2.4.3.7.4.9l.2.7c.1-.2.2-.5.2-.7.1-.2.2-.5.4-.9s.4-.9.7-1.5l1.2-2.4h2.1c-.8 1.5-1.5 3-2.2 4.5-1 1.4-1.8 2.9-2.5 4.5zm12.7-1.5c-.4.4-.9.7-1.5.9-.6.2-1.2.3-1.8.3-.6 0-1.2-.1-1.8-.4-.6-.2-1-.6-1.4-1-.4-.4-.7-.9-1-1.4-.2-.5-.4-1.1-.4-1.7 0-.6.1-1.2.4-1.7.2-.5.6-1 1-1.4.4-.4.9-.7 1.4-1 .5-.2 1.1-.4 1.7-.4 1 0 1.8.3 2.5.9s1.2 1.3 1.6 2.3c-.4.1-.9.3-1.4.5l-1.6.6-1.7.7s-1.1.4-1.6.6c.2.4.5.7.9 1 .4.3.9.4 1.4.4.3 0 .7-.1 1-.2.4-.1.6-.3.9-.5l1.4 1.5zm-1.7-5c-.2-.3-.4-.5-.7-.6-.3-.1-.6-.2-.9-.2-.4 0-.7.1-1 .2-.3.1-.6.3-.8.6s-.4.5-.5.8-.2.6-.2.9v.1c.3-.1.7-.3 1.1-.4s.8-.3 1.1-.5c.4-.2.7-.3 1.1-.4.2-.3.5-.4.8-.5zm3.3 1.7c0-.7.1-1.3.3-1.8.2-.5.5-1 .9-1.4.4-.4.9-.7 1.4-.9.5-.2 1.1-.3 1.7-.3.4 0 .8 0 1.1.1.3.1.6.2.8.3.2.1.4.3.5.4.1.2.2.3.3.4v-8.2h1.9v15.6h-1.9v-1c-.1.1-.3.2-.4.4l-.6.4c-.2.1-.5.2-.8.3-.3.1-.6.1-1 .1-.7 0-1.3-.1-1.8-.4-.5-.2-1-.6-1.4-1s-.6-.9-.8-1.4c-.1-.4-.2-1-.2-1.6zm2 0c0 .4.1.7.2 1 .1.3.3.6.5.8.2.2.5.4.8.6.3.1.7.2 1.1.2.4 0 .7-.1 1.1-.2s.6-.3.8-.6c.2-.2.4-.5.5-.8.1-.3.2-.7.2-1 0-.4-.1-.7-.2-1-.1-.3-.3-.6-.5-.8-.2-.2-.5-.4-.8-.5-.3-.1-.7-.2-1.1-.2-.4 0-.7.1-1.1.2-.3.1-.6.3-.8.5-.2.2-.4.5-.5.8-.2.3-.2.6-.2 1zm18.9-3.5l-.3.4c-.1.2-.2.3-.3.4-.1.1-.2.3-.4.5-.1-.1-.3-.2-.4-.2-.1-.1-.3-.1-.4-.1l-.5-.1c-.2 0-.4 0-.6.1-.2.1-.3.3-.3.5s.1.4.3.6c.2.2.4.3.7.4.3.1.5.3.9.4s.6.3.9.5c.3.2.5.4.7.8.2.3.3.7.3 1.1 0 .4-.1.7-.2 1.1-.1.3-.3.6-.6.8-.3.2-.6.4-.9.5-.4.1-.8.2-1.2.2-.5 0-1.1-.1-1.6-.3-.5-.2-.9-.5-1.2-.8.1-.1.2-.2.3-.4l.4-.5c.1-.1.3-.3.4-.5l.1.1c.1.1.2.1.4.2.1.1.3.2.5.2.2.1.4.1.6.1.3 0 .6-.1.8-.2.2-.1.3-.3.3-.5s-.1-.4-.3-.5c-.2-.1-.4-.3-.7-.4-.3-.1-.5-.2-.9-.4-.3-.1-.6-.3-.9-.5-.3-.2-.5-.5-.7-.8-.2-.3-.3-.7-.3-1.2s.1-.9.3-1.2c.2-.3.4-.6.7-.8.3-.2.6-.3.9-.4.3-.1.6-.1.9-.1.4 0 .8.1 1.3.2l1 .8zm1.9-4c0-.3.1-.6.4-.9.3-.2.5-.3.8-.3.3 0 .6.1.8.3.2.2.4.5.4.9s-.1.6-.4.9c-.2.2-.5.3-.8.3-.3 0-.6-.1-.8-.3-.2-.3-.4-.6-.4-.9zm2.2 11.8h-1.9v-8.5h1.9v8.5zm2.3-8.5h1.7c0 .5.1.9.1 1.2 0 .3.1.6.1 1 .3-.7.7-1.3 1.3-1.7s1.3-.7 2.1-.7c.9 0 1.6.2 2.1.7s.8 1.1.8 1.8v6.2h-1.9v-5.3c0-.4-.2-.8-.4-1.1-.3-.3-.7-.5-1.2-.5-.4 0-.7.1-1.1.2-.3.1-.6.3-.8.6-.2.2-.4.5-.5.9-.1.3-.2.7-.2 1.1v4.1h-1.9v-8.5zm16.2 6.2c.2.3.4.5.6.7l.6.7c-.4.3-.8.5-1.3.7-.5.2-1 .3-1.5.3-.6 0-1.2-.1-1.8-.4-.6-.2-1-.6-1.4-1-.4-.4-.7-.9-1-1.4-.2-.5-.4-1.1-.4-1.7s.1-1.2.4-1.7c.2-.5.6-1 1-1.4.4-.4.9-.7 1.4-1 .6-.2 1.1-.4 1.8-.4.6 0 1.1.1 1.6.3.5.2.9.4 1.3.7l-1.2 1.4c-.5-.4-1-.5-1.7-.5-.4 0-.7.1-1.1.2-.3.1-.6.3-.8.5-.2.2-.4.5-.5.8-.1.3-.2.7-.2 1 0 .4.1.7.2 1 .1.3.3.6.5.8.2.2.5.4.8.6.3.1.7.2 1.1.2.5.2 1.1 0 1.6-.4zm9.8 1.3c-.4.4-.9.7-1.5.9-.6.2-1.2.3-1.8.3-.6 0-1.2-.1-1.8-.4-.6-.2-1-.6-1.4-1-.4-.4-.7-.9-1-1.4-.2-.5-.4-1.1-.4-1.7 0-.6.1-1.2.4-1.7.2-.5.6-1 1-1.4.4-.4.9-.7 1.4-1 .5-.2 1.1-.4 1.7-.4 1 0 1.8.3 2.5.9s1.2 1.3 1.6 2.3c-.4.1-.9.3-1.4.5l-1.6.6-1.7.7s-1.1.4-1.6.6c.2.4.5.7.9 1 .4.3.9.4 1.4.4.3 0 .7-.1 1-.2.4-.1.6-.3.9-.5l1.4 1.5zm-1.7-5c-.2-.3-.4-.5-.7-.6-.3-.1-.6-.2-.9-.2-.4 0-.7.1-1 .2-.3.1-.6.3-.8.6s-.4.5-.5.8-.2.6-.2.9v.1c.3-.1.7-.3 1.1-.4s.8-.3 1.1-.5c.4-.2.7-.3 1.1-.4.2-.3.5-.4.8-.5zm7.9 1.8c0-.6.1-1.2.4-1.8.2-.6.6-1 1-1.4.4-.4.9-.7 1.4-1 .5-.2 1.1-.4 1.7-.4.4 0 .8.1 1.1.2.3.1.6.2.8.3l.6.4.3.3.1-1h1.9v8.5h-1.9v-.9c-.1.1-.1.2-.3.3s-.3.2-.5.4c-.2.1-.5.2-.8.3-.3.1-.7.1-1.1.1-.7 0-1.3-.1-1.8-.4-.5-.2-1-.6-1.4-1s-.7-.9-.9-1.4c-.5-.4-.6-.9-.6-1.5zm1.9-.1c0 .4.1.7.2 1 .1.3.3.6.5.8.2.2.5.4.8.6.3.1.7.2 1.1.2.4 0 .7-.1 1.1-.2.3-.1.6-.3.8-.6.2-.2.4-.5.5-.8.1-.3.2-.7.2-1 0-.4-.1-.7-.2-1-.1-.3-.3-.6-.5-.8-.2-.2-.5-.4-.8-.5-.3-.1-.7-.2-1.1-.2-.4 0-.7.1-1.1.2-.3.1-.6.3-.8.5-.2.2-.4.5-.5.8-.1.3-.2.6-.2 1zm9.6-4.2h1.7c0 .5.1.9.1 1.2 0 .3.1.6.1 1 .3-.7.7-1.3 1.3-1.7s1.3-.7 2.1-.7c.9 0 1.6.2 2.1.7s.8 1.1.8 1.8v6.2h-1.9v-5.3c0-.4-.2-.8-.4-1.1-.3-.3-.7-.5-1.2-.5-.4 0-.7.1-1.1.2-.3.1-.6.3-.8.6-.2.2-.4.5-.5.9-.1.3-.2.7-.2 1.1v4.1h-2.1v-8.5zm11.2-3.8h1.9v3.7h2.2v1.7h-2.2v6.8h-1.9v-6.8h-1.4v-1.7h1.4v-3.7zm5.3.5c0-.3.1-.6.4-.9.3-.2.5-.3.8-.3.3 0 .6.1.8.3.2.2.4.5.4.9s-.1.6-.4.9c-.2.2-.5.3-.8.3-.3 0-.6-.1-.8-.3-.3-.3-.4-.6-.4-.9zm2.1 11.8h-1.9v-8.5h1.9v8.5zm1.9-4.3c0-.7.1-1.3.3-1.8.2-.5.5-1 .9-1.4.4-.4.9-.7 1.4-.9.5-.2 1.1-.3 1.7-.3.4 0 .8 0 1.1.1.3.1.6.2.8.3.2.1.4.3.5.4.1.2.2.3.3.4v-1.1h1.8v12.6h-1.9v-5c-.1.1-.3.2-.4.4l-.6.4c-.2.1-.5.2-.8.3-.3.1-.6.1-1 .1-.7 0-1.3-.1-1.8-.4-.5-.2-1-.6-1.4-1s-.6-.9-.8-1.4c0-.5-.1-1.1-.1-1.7zm1.9 0c0 .4.1.7.2 1 .1.3.3.6.5.8.2.2.5.4.8.6.3.1.7.2 1.1.2.4 0 .7-.1 1.1-.2s.6-.3.8-.6c.2-.2.4-.5.5-.8.1-.3.2-.7.2-1 0-.4-.1-.7-.2-1-.1-.3-.3-.6-.5-.8-.2-.2-.5-.4-.8-.5-.3-.1-.7-.2-1.1-.2-.4 0-.7.1-1.1.2-.3.1-.6.3-.8.5-.2.2-.4.5-.5.8-.1.3-.2.6-.2 1zm17.6 4.5h-1.6l-.2-2.4c-.3.7-.7 1.2-1.3 1.7-.5.4-1.2.7-2.1.7s-1.6-.2-2.1-.7c-.5-.5-.8-1.1-.8-1.8v-6.2h1.9v5.3c0 .4.2.8.4 1.1.3.3.7.4 1.2.5.4 0 .7-.1 1.1-.2.3-.1.6-.3.8-.6.2-.2.4-.5.6-.9.1-.3.2-.7.2-1.1v-4.1h1.9v8.7zm2.2-12c0-.3.1-.6.4-.9.3-.2.5-.3.8-.3.3 0 .6.1.8.3.2.2.4.5.4.9s-.1.6-.4.9c-.2.2-.5.3-.8.3-.3 0-.6-.1-.8-.3-.3-.3-.4-.6-.4-.9zm2.1 11.8h-1.9v-8.5h1.9v8.5zm3.1-12.3h1.9v3.7h2.2v1.7h-2.2v6.8h-1.9v-6.8h-1.4v-1.7h1.4v-3.7zm8 16.3h-1.9c.2-.4.4-.8.6-1.1l.5-1.1s.4-.8.5-1.2.4-.8.6-1.3c-.3-.6-.6-1.2-.9-1.9l-1-2c-.3-.7-.7-1.4-1-2-.3-.7-.6-1.3-.9-1.9h2.1c.5 1 .9 1.8 1.2 2.5l.8 1.7.5 1.1.3.8c.1-.2.2-.5.3-.8.1-.3.3-.7.5-1.1l.8-1.7c.3-.7.7-1.5 1.2-2.5h2.1l-6.3 12.5zm6.5-5.3c0-.3.1-.6.4-.9.3-.2.5-.4.8-.4.3 0 .6.1.8.4.3.2.4.5.4.9s-.1.7-.4.9c-.3.2-.5.3-.8.3-.3 0-.6-.1-.8-.3-.3-.2-.4-.5-.4-.9z"/></svg>