<svg xmlns="http://www.w3.org/2000/svg" width="500" height="543.7" viewBox="0 0 500 543.7"><style type="text/css">.st0{fill:#282830;} .st1{fill:#F7E06F;} .st2{fill:#D6F0FC;} .st3{fill:#FFEDCA;} .st4{fill:#FCC797;} .st5{fill:#F9F3D9;} .st6{fill:#F2F8F9;} .st7{fill:#F9480B;} .st8{fill:none;} .st9{fill:#FFFFFF;}</style><path class="st0" d="M0 0h500v543.7h-500z"/><path class="st7" d="M301.5 178.3c-34.4 9.5-42.1 17.2-51.5 51.5-9.5-34.4-17.2-42.1-51.5-51.5 34.4-9.5 42.1-17.2 51.5-51.5 9.5 34.3 17.2 42 51.5 51.5z"/><path class="st8" d="M0 336.8h500v206.9h-500z"/><path class="st9" d="M164.9 368.1v-29.2h8c1.4 0 2.7.1 3.9.4 1.2.3 2.2.7 3 1.3.8.6 1.5 1.4 1.9 2.4.4 1 .7 2.1.7 3.5 0 .7-.1 1.5-.2 2.2-.1.7-.4 1.4-.7 2-.3.6-.8 1.1-1.3 1.6s-1.2.8-2 1c.7.1 1.3.4 2 .7.7.3 1.3.8 1.8 1.3s1 1.2 1.3 2c.3.8.5 1.8.5 2.9 0 1.4-.3 2.6-.8 3.6s-1.3 1.8-2.2 2.5c-.9.6-1.9 1.1-3.1 1.4-1.2.3-2.4.4-3.6.4h-9.2zm4.8-24.8v7.9h3.7c1.4 0 2.4-.4 3-1.2.7-.8 1-1.8 1-2.9 0-1.3-.4-2.3-1.2-2.9-.8-.6-1.9-.9-3.2-.9h-3.3zm0 12.1v8.2h3.8c.7 0 1.4-.1 2-.3.6-.2 1.2-.4 1.7-.8s.9-.8 1.1-1.3.4-1.1.4-1.8c0-.8-.2-1.4-.5-1.9s-.7-.9-1.3-1.3c-.5-.3-1.1-.5-1.8-.7-.7-.1-1.4-.2-2.1-.2h-3.3zm32.3 10.7c-.8.7-1.8 1.3-3 1.8-1.2.4-2.4.6-3.6.6-1.3 0-2.4-.2-3.5-.7-1.1-.5-2.1-1.1-2.9-1.9-.8-.8-1.5-1.8-1.9-2.8s-.7-2.2-.7-3.5c0-1.2.2-2.4.7-3.5s1.1-2 1.9-2.8c.8-.8 1.8-1.5 2.8-1.9 1.1-.5 2.2-.7 3.4-.7 1.9 0 3.6.6 5.1 1.7s2.5 2.7 3.1 4.6c-.8.3-1.7.6-2.8 1.1-1.1.4-2.2.8-3.3 1.3l-3.4 1.4s-2.2.9-3.2 1.3c.5.8 1.1 1.5 1.9 2 .8.5 1.7.8 2.7.8.7 0 1.4-.1 2.1-.4.7-.3 1.3-.6 1.7-1l2.9 2.6zm-3.3-10c-.3-.6-.8-1-1.4-1.3-.6-.3-1.3-.4-1.9-.4-.7 0-1.4.1-2 .4-.6.3-1.2.7-1.6 1.1-.5.5-.8 1-1.1 1.6-.3.6-.4 1.2-.4 1.9v.2l2.1-.9s1.5-.6 2.3-.9c.8-.3 1.5-.6 2.2-.9.6-.3 1.2-.6 1.8-.8zm9.2-12.5h3.8v7.4h4.4v3.4h-4.4v13.6h-3.8v-13.6h-2.9v-3.4h2.9v-7.4zm25.4 22.5c-.8.7-1.8 1.3-3 1.8-1.2.4-2.4.6-3.6.6-1.3 0-2.4-.2-3.5-.7-1.1-.5-2.1-1.1-2.9-1.9-.8-.8-1.5-1.8-1.9-2.8-.5-1.1-.7-2.2-.7-3.5 0-1.2.2-2.4.7-3.5.5-1.1 1.1-2 1.9-2.8s1.8-1.5 2.8-1.9c1.1-.5 2.2-.7 3.4-.7 1.9 0 3.6.6 5.1 1.7s2.5 2.7 3.1 4.6c-.8.3-1.7.6-2.8 1.1-1.1.4-2.2.8-3.3 1.3l-3.4 1.4s-2.2.9-3.2 1.3c.5.8 1.1 1.5 1.9 2 .8.5 1.7.8 2.7.8.7 0 1.4-.1 2.1-.4.7-.3 1.3-.6 1.7-1l2.9 2.6zm-3.4-10c-.3-.6-.8-1-1.4-1.3-.6-.3-1.3-.4-1.9-.4-.7 0-1.4.1-2 .4-.6.3-1.2.7-1.6 1.1-.5.5-.8 1-1.1 1.6-.3.6-.4 1.2-.4 1.9v.2l2.1-.9 2.3-.9c.8-.3 1.5-.6 2.2-.9.7-.3 1.3-.6 1.8-.8zm11.6 12h-3.8v-31.2h3.8v31.2zm3.6-8.4c0-1.3.2-2.5.7-3.6.5-1.1 1.1-2.1 1.9-2.9.8-.8 1.7-1.4 2.8-1.9s2.2-.7 3.4-.7c.9 0 1.7.1 2.4.4.7.2 1.3.5 1.7.8.5.3.8.6 1.1.8l.5.5c0-.3 0-.6.1-1 .1-.3.1-.7.1-1.1h3.7v16.1c0 1.4-.2 2.7-.7 3.9s-1.1 2.1-1.9 2.8c-.8.8-1.8 1.3-2.9 1.7-1.1.4-2.4.6-3.7.6-1 0-2-.1-2.7-.3-.8-.2-1.5-.5-2.1-.8-.6-.3-1.2-.7-1.7-1.2l-1.5-1.3 2.5-2.6c.7.7 1.5 1.3 2.4 1.8.9.5 1.9.7 3.1.7 1.7 0 3-.4 4-1.2 1-.8 1.5-1.9 1.5-3.4v-1c0-.2 0-.5.1-.6.1-.2.1-.3.1-.5-.2.3-.5.6-.9.9-.3.3-.7.6-1.2.9-.5.3-1 .5-1.6.7-.6.2-1.3.3-2.1.3-1.3 0-2.5-.2-3.5-.7s-2-1.1-2.8-1.9-1.4-1.7-1.8-2.8-1-2.2-1-3.4zm3.9-.2c0 .7.1 1.4.4 2.1.3.6.6 1.2 1.1 1.7.5.5 1 .8 1.7 1.1.6.3 1.3.4 2.1.4s1.5-.1 2.1-.4c.7-.3 1.2-.6 1.7-1.1.5-.5.8-1 1.1-1.7.3-.6.4-1.3.4-2s-.1-1.4-.4-2c-.3-.6-.6-1.2-1.1-1.6-.5-.5-1-.8-1.7-1.1s-1.4-.4-2.1-.4-1.5.1-2.1.4c-.6.3-1.2.6-1.7 1.1-.5.5-.8 1-1.1 1.6-.3.5-.4 1.2-.4 1.9zm33.7 6.6c-.8.7-1.8 1.3-3 1.8-1.2.4-2.4.6-3.6.6-1.3 0-2.4-.2-3.5-.7-1.1-.5-2.1-1.1-2.9-1.9-.8-.8-1.5-1.8-1.9-2.8s-.7-2.2-.7-3.5c0-1.2.2-2.4.7-3.5s1.1-2 1.9-2.8c.8-.8 1.8-1.5 2.8-1.9 1.1-.5 2.2-.7 3.4-.7 1.9 0 3.6.6 5.1 1.7 1.5 1.2 2.5 2.7 3.1 4.6-.8.3-1.7.6-2.8 1.1-1.1.4-2.2.8-3.3 1.3l-3.4 1.4s-2.2.9-3.2 1.3c.5.8 1.1 1.5 1.9 2 .8.5 1.7.8 2.7.8.7 0 1.4-.1 2.1-.4.7-.3 1.3-.6 1.7-1l2.9 2.6zm-3.4-10c-.3-.6-.8-1-1.4-1.3-.6-.3-1.3-.4-1.9-.4-.7 0-1.4.1-2 .4-.6.3-1.2.7-1.6 1.1-.5.5-.8 1-1.1 1.6-.3.6-.4 1.2-.4 1.9v.2l2.1-.9 2.3-.9s1.5-.6 2.2-.9c.6-.3 1.2-.6 1.8-.8zm23.9 12.4h-3.2l-.5-4.7c-.6 1.4-1.5 2.5-2.5 3.4-1.1.9-2.5 1.3-4.3 1.3-1.8 0-3.2-.5-4.2-1.4-1-.9-1.6-2.1-1.6-3.7v-12.4h3.8v10.6c.1.8.3 1.5.9 2.1.5.6 1.4.9 2.5.9.8 0 1.5-.1 2.1-.4.6-.3 1.2-.6 1.7-1.1.5-.5.8-1.1 1.1-1.7.3-.7.4-1.4.4-2.2v-8.2h3.8v17.5zm14.4-15.9c-.2.2-.4.5-.6.8-.2.3-.4.6-.7.9-.2.3-.5.6-.8 1-.3-.2-.5-.3-.8-.4-.3-.1-.5-.2-.9-.3-.3-.1-.7-.1-1-.1-.4 0-.8.1-1.2.3-.4.2-.6.5-.6 1.1 0 .5.2.8.5 1.1.4.3.8.6 1.3.8.5.3 1.1.5 1.7.8.6.3 1.2.6 1.7 1s1 .9 1.3 1.5c.4.6.5 1.3.5 2.2 0 .8-.1 1.5-.4 2.1-.3.6-.7 1.2-1.2 1.6-.5.5-1.1.8-1.9 1.1-.7.3-1.5.4-2.4.4-1.1 0-2.2-.2-3.2-.6-1-.4-1.8-.9-2.4-1.6.2-.2.4-.5.7-.8l.8-.9c.2-.3.5-.6.9-1 0 0 .1 0 .3.1s.4.3.7.4c.3.2.6.3 1 .4.4.1.8.2 1.2.2.7 0 1.2-.1 1.5-.4.4-.3.5-.7.5-1.1s-.2-.8-.5-1c-.4-.3-.8-.5-1.3-.7s-1.1-.5-1.7-.7c-.6-.3-1.2-.6-1.7-1s-1-.9-1.3-1.5c-.4-.6-.5-1.4-.5-2.4s.2-1.8.5-2.4c.3-.6.8-1.2 1.3-1.6.5-.4 1.1-.7 1.8-.9.6-.2 1.3-.3 1.9-.3.8 0 1.7.2 2.6.5 1 .3 1.8.8 2.4 1.4zm18.9 13.5c-.8.7-1.8 1.3-3 1.8-1.2.4-2.4.6-3.6.6-1.3 0-2.4-.2-3.5-.7-1.1-.5-2.1-1.1-2.9-1.9-.8-.8-1.5-1.8-1.9-2.8s-.7-2.2-.7-3.5c0-1.2.2-2.4.7-3.5s1.1-2 1.9-2.8c.8-.8 1.8-1.5 2.8-1.9 1.1-.5 2.2-.7 3.4-.7 1.9 0 3.6.6 5.1 1.7s2.5 2.7 3.1 4.6c-.8.3-1.7.6-2.8 1.1-1.1.4-2.2.8-3.3 1.3l-3.4 1.4s-2.2.9-3.2 1.3c.5.8 1.1 1.5 1.9 2 .8.5 1.7.8 2.7.8.7 0 1.4-.1 2.1-.4.7-.3 1.3-.6 1.7-1l2.9 2.6zm-3.4-10c-.3-.6-.8-1-1.4-1.3-.6-.3-1.3-.4-1.9-.4-.7 0-1.4.1-2 .4-.6.3-1.2.7-1.6 1.1-.5.5-.8 1-1.1 1.6-.3.6-.4 1.2-.4 1.9v.2l2.1-.9s1.5-.6 2.3-.9c.8-.3 1.5-.6 2.2-.9.7-.3 1.3-.6 1.8-.8zm-303.2 27.4h2.5v14.6h-2.5v-14.6zm5.7 2.3h1.9v3.7h2.2v1.7h-2.2v6.8h-1.9v-6.8h-1.4v-1.7h1.4v-3.7zm9.5.5c0-.3.1-.6.4-.9s.5-.3.8-.3c.3 0 .6.1.8.3.2.2.4.5.4.9s-.1.6-.4.9c-.2.2-.5.3-.8.3-.3 0-.6-.1-.8-.3-.3-.3-.4-.6-.4-.9zm2.1 11.8h-1.9v-8.5h1.9v8.5zm7.2-7.8l-.3.4s-.2.3-.3.4c-.1.1-.2.3-.4.5-.1-.1-.3-.2-.4-.2s-.3-.1-.4-.2l-.5-.1c-.2 0-.4 0-.6.1-.2.1-.3.3-.3.5s.1.4.3.6c.2.2.4.3.7.4.3.1.5.3.9.4.3.1.6.3.9.5.3.2.5.4.7.8.2.3.3.7.3 1.1 0 .4-.1.7-.2 1.1-.1.3-.3.6-.6.8-.3.2-.6.4-.9.5-.4.1-.8.2-1.2.2-.5 0-1.1-.1-1.6-.3-.5-.2-.9-.5-1.2-.8.1-.1.2-.2.3-.4l.4-.5c.1-.1.3-.3.4-.5l.1.1c.1.1.2.1.4.2.1.1.3.2.5.2.2.1.4.1.6.1.3 0 .6-.1.8-.2.2-.1.3-.3.3-.5s-.1-.4-.3-.5c-.2-.1-.4-.3-.7-.4-.3-.1-.5-.2-.9-.4-.3-.1-.6-.3-.9-.5s-.5-.5-.7-.8c-.2-.3-.3-.7-.3-1.2s.1-.9.3-1.2c.2-.3.4-.6.7-.8.3-.2.6-.3.9-.4.3-.1.6-.1.9-.1.4 0 .8.1 1.3.2s.7.6 1 .9zm7.5-4.5h1.9v3.7h2.2v1.7h-2.2v6.8h-1.9v-6.8h-1.4v-1.7h1.4v-3.7zm5.6-3.4h1.9v9.2c.3-.7.7-1.2 1.2-1.6s1.2-.6 2.1-.6c.9 0 1.6.2 2.1.7.5.5.8 1.1.8 1.9v6.2h-1.9v-5.3c0-.4-.2-.8-.4-1.1-.3-.3-.7-.5-1.2-.5-.4 0-.7.1-1.1.2-.3.1-.6.3-.8.6-.2.2-.4.5-.5.9-.1.3-.2.7-.2 1.1v4.1h-1.9v-15.8zm17.7 14.7c-.4.4-.9.7-1.5.9-.6.2-1.2.3-1.8.3-.6 0-1.2-.1-1.8-.3-.6-.2-1-.6-1.4-1-.4-.4-.7-.9-1-1.4-.2-.5-.4-1.1-.4-1.7s.1-1.2.4-1.7c.2-.5.6-1 1-1.4.4-.4.9-.7 1.4-1 .5-.2 1.1-.3 1.7-.3 1 0 1.8.3 2.5.9s1.2 1.3 1.6 2.3c-.4.1-.9.3-1.4.5-.5.2-1.1.4-1.7.6s-1.1.5-1.7.7-1.1.4-1.6.6c.2.4.5.7.9 1s.9.4 1.4.4c.3 0 .7-.1 1.1-.2.4-.1.6-.3.9-.5l1.4 1.3zm-1.7-5c-.2-.3-.4-.5-.7-.6-.3-.1-.6-.2-.9-.2-.4 0-.7.1-1 .2-.3.1-.6.3-.8.6s-.4.5-.5.8-.2.6-.2.9v.1c.3-.1.7-.3 1.1-.4s.8-.3 1.1-.5l1.1-.5c.2-.2.6-.3.8-.4zm13.3-1.8l-.3.4s-.2.3-.3.4c-.1.1-.2.3-.4.5-.1-.1-.3-.2-.4-.2l-.4-.2-.5-.1c-.2 0-.4 0-.6.1s-.3.3-.3.5.1.4.3.6c.2.2.4.3.7.4.3.1.5.3.9.4.3.1.6.3.9.5.3.2.5.4.7.8.2.3.3.7.3 1.1 0 .4-.1.7-.2 1.1-.1.3-.3.6-.6.8-.3.2-.6.4-.9.5-.4.1-.8.2-1.2.2-.5 0-1.1-.1-1.6-.3-.5-.2-.9-.5-1.2-.8.1-.1.2-.2.3-.4l.4-.5c.1-.1.3-.3.4-.5l.1.1.3.2s.3.2.5.2c.2.1.4.1.6.1.3 0 .6-.1.8-.2.2-.1.3-.3.3-.5s-.1-.4-.3-.5c-.2-.1-.4-.3-.7-.4s-.5-.2-.9-.4c-.3-.1-.6-.3-.9-.5s-.5-.5-.7-.8c-.2-.3-.3-.7-.3-1.2s.1-.9.3-1.2c.2-.3.4-.6.7-.8.3-.2.6-.3.9-.4s.6-.1.9-.1c.4 0 .8.1 1.3.2.4.4.8.6 1.1.9zm9.5 6.8c-.4.4-.9.7-1.5.9-.6.2-1.2.3-1.8.3-.6 0-1.2-.1-1.8-.3-.6-.2-1-.6-1.4-1-.4-.4-.7-.9-1-1.4-.2-.5-.4-1.1-.4-1.7s.1-1.2.4-1.7c.2-.5.6-1 1-1.4.4-.4.9-.7 1.4-1 .5-.2 1.1-.3 1.7-.3 1 0 1.8.3 2.5.9s1.2 1.3 1.5 2.3c-.4.1-.9.3-1.4.5l-1.6.6-1.7.7s-1.1.4-1.6.6c.2.4.5.7.9 1 .4.3.9.4 1.4.4.3 0 .7-.1 1-.2.4-.1.6-.3.9-.5l1.5 1.3zm-1.7-5c-.2-.3-.4-.5-.7-.6-.3-.1-.6-.2-.9-.2-.4 0-.7.1-1 .2-.3.1-.6.3-.8.6s-.4.5-.5.8-.2.6-.2.9v.1c.3-.1.7-.3 1.1-.4s.8-.3 1.1-.5l1.1-.5c.2-.2.5-.3.8-.4zm9.5 3.7c.2.3.4.5.6.7l.6.7c-.4.3-.8.5-1.3.7-.5.2-1 .3-1.5.3-.6 0-1.2-.1-1.8-.3-.6-.2-1-.6-1.4-1-.4-.4-.7-.9-1-1.4-.2-.5-.4-1.1-.4-1.7s.1-1.2.4-1.7.6-1 1-1.4c.4-.4.9-.7 1.4-1 .6-.2 1.1-.4 1.8-.4.6 0 1.1.1 1.6.3.5.2.9.4 1.3.7l-1.2 1.4c-.5-.4-1-.5-1.7-.5-.4 0-.7.1-1.1.2-.3.1-.6.3-.8.5-.2.2-.4.5-.5.8-.1.3-.2.7-.2 1 0 .4.1.7.2 1 .1.3.3.6.5.8.2.2.5.4.8.6.3.1.7.2 1.1.2.6.1 1.2-.1 1.6-.5zm2-2c0-.6.1-1.2.3-1.7s.6-1 1-1.4c.4-.4.9-.7 1.4-1 .6-.2 1.1-.3 1.8-.3.6 0 1.2.1 1.8.3.5.2 1 .6 1.4 1 .4.4.7.9.9 1.4s.3 1.1.3 1.7-.1 1.2-.3 1.7c-.2.5-.5 1-.9 1.4-.4.4-.9.7-1.4 1-.5.2-1.1.3-1.8.3-.6 0-1.2-.1-1.8-.3-.5-.2-1-.5-1.4-.9-.4-.4-.7-.9-1-1.4-.2-.5-.3-1.1-.3-1.8zm1.9 0c0 .4.1.7.2 1 .1.3.3.6.6.8.2.2.5.4.8.5.3.1.6.2 1 .2s.7-.1 1-.2c.3-.1.6-.3.8-.5.2-.2.4-.5.6-.8.1-.3.2-.6.2-1s-.1-.7-.2-1c-.1-.3-.3-.6-.6-.8-.2-.2-.5-.4-.8-.6-.3-.1-.7-.2-1-.2-.4 0-.7.1-1 .2-.3.1-.6.3-.8.6-.2.2-.4.5-.6.8s-.2.7-.2 1zm8.9-4.2h1.7c0 .5.1.9.1 1.2s.1.6.1 1c.3-.7.7-1.3 1.3-1.7.6-.4 1.3-.7 2.1-.7.9 0 1.6.2 2.1.7.5.5.8 1.1.8 1.8v6.2h-1.9v-5.3c0-.4-.2-.8-.4-1.1-.3-.3-.7-.5-1.2-.5-.4 0-.7.1-1.1.2s-.6.3-.8.6-.4.5-.5.9c-.1.3-.2.7-.2 1.1v4.1h-1.9v-8.5zm9.9 4.2c0-.7.1-1.3.3-1.8.2-.5.5-1 .9-1.4.4-.4.9-.7 1.4-.9.5-.2 1.1-.3 1.7-.3.4 0 .8 0 1.1.1.3.1.6.2.8.3l.6.4c.1.2.2.3.3.4v-8.2h1.9v15.6h-1.8v-1c-.1.1-.3.2-.4.4s-.4.3-.6.4c-.2.1-.5.2-.8.3-.3.1-.6.1-1 .1-.7 0-1.3-.1-1.8-.3-.5-.2-1-.6-1.4-1-.4-.4-.6-.9-.8-1.4-.3-.5-.4-1.1-.4-1.7zm2 0c0 .4.1.7.2 1s.3.6.5.8.5.4.8.5c.3.1.7.2 1.1.2s.7-.1 1.1-.2c.3-.1.6-.3.8-.6.2-.2.4-.5.5-.8.1-.3.2-.7.2-1s-.1-.7-.2-1c-.1-.3-.3-.6-.5-.8-.2-.2-.5-.4-.8-.5-.3-.1-.7-.2-1.1-.2s-.7.1-1.1.2c-.3.1-.6.3-.8.5s-.4.5-.5.8-.2.7-.2 1.1zm23.2 0c0 .6-.1 1.2-.3 1.8-.2.5-.5 1-.9 1.4-.4.4-.9.7-1.4.9-.5.2-1.1.3-1.8.3s-1.2-.1-1.7-.4c-.5-.2-.8-.5-1-.8v1h-1.9v-15.6h1.9v8.2c.1-.1.2-.3.4-.4.2-.2.4-.3.6-.4.2-.1.5-.2.8-.3.3-.1.6-.1 1-.1.7 0 1.2.1 1.8.3s1 .5 1.4.9c.4.4.7.9.9 1.4.1.5.2 1.1.2 1.8zm-2.1 0c0-.7-.2-1.4-.7-1.9-.4-.5-1-.7-1.8-.7-.4 0-.7.1-1.1.2-.3.1-.6.3-.8.5-.2.2-.4.5-.6.8-.1.3-.2.6-.2 1s.1.7.2 1c.1.3.3.6.6.8.2.2.5.4.8.5.3.1.7.2 1.1.2.4 0 .7-.1 1-.2.3-.1.6-.3.8-.6.2-.2.4-.5.5-.8s.2-.4.2-.8zm8.7-2c-.4 0-.7 0-1.1.1-.3.1-.6.2-.9.4s-.5.4-.6.7c-.2.3-.2.6-.2 1v3.9h-1.9v-8.5h1.7c0 .5.1.9.1 1.2 0 .3.1.6.1 1 .2-.4.4-.7.7-1l.9-.8c.3-.2.6-.4.9-.5s.6-.2.8-.2l-.5 2.7zm1.5-5.5c0-.3.1-.6.4-.9s.5-.3.8-.3.6.1.8.3c.2.2.4.5.4.9s-.1.6-.4.9c-.2.2-.5.3-.8.3s-.6-.1-.8-.3c-.3-.3-.4-.6-.4-.9zm2.1 11.8h-1.9v-8.5h1.9v8.5zm1.9-4.2c0-.6.1-1.2.3-1.8.2-.6.5-1 .9-1.4.4-.4.9-.7 1.4-.9.5-.2 1.1-.3 1.7-.3.5 0 .9.1 1.2.2l.9.4c.2.1.4.3.5.4l.2.2v-1h1.8v8.1c0 .7-.1 1.4-.3 1.9-.2.6-.5 1-.9 1.4-.4.4-.9.7-1.5.9-.6.2-1.2.3-1.9.3-.5 0-1-.1-1.4-.2-.4-.1-.7-.2-1.1-.4l-.9-.6-.8-.6 1.2-1.3 1.2.9c.4.2.9.4 1.6.4.8 0 1.5-.2 2-.6.5-.4.7-1 .7-1.7v-1l-.4.4c-.2.2-.4.3-.6.4-.2.1-.5.2-.8.3s-.7.1-1.1.1c-.6 0-1.2-.1-1.8-.3s-1-.5-1.4-.9c-.4-.4-.7-.9-.9-1.4s.2-1.3.2-1.9zm1.9-.1c0 .4.1.7.2 1 .1.3.3.6.5.8.2.2.5.4.8.5.3.1.7.2 1.1.2.4 0 .7-.1 1.1-.2.3-.1.6-.3.8-.6.2-.2.4-.5.5-.8.1-.3.2-.7.2-1s-.1-.7-.2-1-.3-.6-.5-.8c-.2-.2-.5-.4-.8-.5-.3-.1-.7-.2-1.1-.2-.4 0-.7.1-1.1.2-.3.1-.6.3-.8.5-.2.2-.4.5-.5.8-.2.4-.2.7-.2 1.1zm9.5-11.4h1.9v9.2c.3-.7.7-1.2 1.2-1.6s1.2-.6 2.1-.6c.9 0 1.6.2 2.1.7.5.5.8 1.1.8 1.9v6.2h-1.9v-5.3c0-.4-.2-.8-.4-1.1-.3-.3-.7-.5-1.2-.5-.4 0-.7.1-1.1.2s-.6.3-.8.6-.4.5-.5.9c-.1.3-.2.7-.2 1.1v4.1h-1.9v-15.8zm11.2 3.4h1.9v3.7h2.2v1.7h-2.2v6.8h-1.9v-6.8h-1.4v-1.7h1.4v-3.7zm12.7 11.3c-.4.4-.9.7-1.5.9-.6.2-1.2.3-1.8.3-.6 0-1.2-.1-1.8-.3-.6-.2-1-.6-1.4-1-.4-.4-.7-.9-1-1.4-.2-.5-.4-1.1-.4-1.7s.1-1.2.4-1.7c.2-.5.6-1 1-1.4.4-.4.9-.7 1.4-1 .5-.2 1.1-.3 1.7-.3 1 0 1.8.3 2.5.9s1.2 1.3 1.6 2.3c-.4.1-.9.3-1.4.5-.5.2-1.1.4-1.7.6s-1.1.5-1.7.7-1.1.4-1.6.6c.2.4.5.7.9 1s.9.4 1.4.4c.3 0 .7-.1 1.1-.2.4-.1.6-.3.9-.5l1.4 1.3zm-1.7-5c-.2-.3-.4-.5-.7-.6-.3-.1-.6-.2-.9-.2-.4 0-.7.1-1 .2-.3.1-.6.3-.8.6s-.4.5-.5.8-.2.6-.2.9v.1c.3-.1.7-.3 1.1-.4s.8-.3 1.1-.5l1.1-.5c.2-.2.6-.3.8-.4zm8.7-1.8l-.3.4s-.2.3-.3.4c-.1.1-.2.3-.4.5-.1-.1-.3-.2-.4-.2l-.4-.2-.5-.1c-.2 0-.4 0-.6.1-.2.1-.3.3-.3.5s.1.4.3.6.4.3.7.4c.3.1.5.3.9.4.3.1.6.3.9.5.3.2.5.4.7.8.2.3.3.7.3 1.1 0 .4-.1.7-.2 1.1-.1.3-.3.6-.6.8-.3.2-.6.4-.9.5-.4.1-.8.2-1.2.2-.5 0-1.1-.1-1.6-.3s-.9-.5-1.2-.8c.1-.1.2-.2.3-.4l.4-.5c.1-.1.3-.3.4-.5l.1.1.3.2s.3.2.5.2c.2.1.4.1.6.1.3 0 .6-.1.8-.2.2-.1.3-.3.3-.5s-.1-.4-.3-.5c-.2-.1-.4-.3-.7-.4s-.5-.2-.9-.4c-.3-.1-.6-.3-.9-.5-.3-.2-.5-.5-.7-.8-.2-.3-.3-.7-.3-1.2s.1-.9.3-1.2.4-.6.7-.8c.3-.2.6-.3.9-.4s.6-.1.9-.1c.4 0 .8.1 1.3.2.5.4.8.6 1.1.9zm3-4.5h1.9v3.7h2.2v1.7h-2.2v6.8h-1.9v-6.8h-1.4v-1.7h1.4v-3.7zm14.5 4.5l-.3.4s-.2.3-.3.4c-.1.1-.2.3-.4.5-.1-.1-.3-.2-.4-.2l-.4-.2-.5-.1c-.2 0-.4 0-.6.1-.2.1-.3.3-.3.5s.1.4.3.6.4.3.7.4c.3.1.5.3.9.4.3.1.6.3.9.5.3.2.5.4.7.8.2.3.3.7.3 1.1 0 .4-.1.7-.2 1.1-.1.3-.3.6-.6.8-.3.2-.6.4-.9.5-.4.1-.8.2-1.2.2-.5 0-1.1-.1-1.6-.3s-.9-.5-1.2-.8c.1-.1.2-.2.3-.4l.4-.5c.1-.1.3-.3.4-.5l.1.1.3.2s.3.2.5.2c.2.1.4.1.6.1.3 0 .6-.1.8-.2.2-.1.3-.3.3-.5s-.1-.4-.3-.5c-.2-.1-.4-.3-.7-.4s-.5-.2-.9-.4c-.3-.1-.6-.3-.9-.5-.3-.2-.5-.5-.7-.8-.2-.3-.3-.7-.3-1.2s.1-.9.3-1.2.4-.6.7-.8c.3-.2.6-.3.9-.4s.6-.1.9-.1c.4 0 .8.1 1.3.2.5.4.8.6 1.1.9zm3-4.5h1.9v3.7h2.2v1.7h-2.2v6.8h-1.9v-6.8h-1.4v-1.7h1.4v-3.7zm4.8 8.1c0-.6.1-1.2.4-1.8.2-.6.6-1 1-1.5.4-.4.9-.7 1.4-1 .5-.2 1.1-.4 1.7-.4.4 0 .8.1 1.1.2.3.1.6.2.8.3l.6.4.3.3.1-1h1.9v8.5h-1.9v-.9c-.1.1-.1.2-.3.3s-.3.2-.5.4c-.2.1-.5.2-.8.3-.3.1-.7.1-1.1.1-.7 0-1.3-.1-1.8-.4-.5-.2-1-.6-1.4-1-.4-.4-.7-.9-.9-1.4-.5-.3-.6-.8-.6-1.4zm2-.1c0 .4.1.7.2 1 .1.3.3.6.5.8.2.2.5.4.8.5.3.1.7.2 1.1.2.4 0 .7-.1 1.1-.2.3-.1.6-.3.8-.6.2-.2.4-.5.5-.8.1-.3.2-.7.2-1s-.1-.7-.2-1c-.1-.3-.3-.6-.5-.8-.2-.2-.5-.4-.8-.5-.3-.1-.7-.2-1.1-.2-.4 0-.7.1-1.1.2-.3.1-.6.3-.8.5-.2.2-.4.5-.5.8-.2.4-.2.7-.2 1.1zm14.3-2c-.4 0-.7 0-1.1.1-.3.1-.6.2-.9.4s-.5.4-.6.7c-.2.3-.2.6-.2 1v3.9h-1.9v-8.5h1.7c0 .5.1.9.1 1.2s.1.6.1 1c.2-.4.4-.7.7-1l.9-.8c.3-.2.6-.4.9-.5.3-.1.6-.2.8-.2l-.5 2.7zm5.6-5.5c0-.3.1-.6.4-.9.3-.2.5-.3.8-.3s.6.1.8.3c.2.2.4.5.4.9s-.1.6-.4.9c-.2.2-.5.3-.8.3s-.6-.1-.8-.3c-.3-.3-.4-.6-.4-.9zm2.2 11.8h-1.9v-8.5h1.9v8.5zm2.3-8.5h1.7c0 .5.1.9.1 1.2s.1.6.1 1c.3-.7.7-1.3 1.3-1.7.6-.4 1.3-.7 2.1-.7.9 0 1.6.2 2.1.7.5.5.8 1.1.8 1.8v6.2h-1.9v-5.3c0-.4-.2-.8-.4-1.1-.3-.3-.7-.5-1.2-.5-.4 0-.7.1-1.1.2s-.6.3-.8.6-.4.5-.5.9c-.1.3-.2.7-.2 1.1v4.1h-1.9v-8.5zm15.8-3.8h1.9v3.7h2.2v1.7h-2.2v6.8h-1.9v-6.8h-1.4v-1.7h1.4v-3.7zm5.5-3.4h1.9v9.2c.3-.7.7-1.2 1.2-1.6s1.2-.6 2.1-.6c.9 0 1.6.2 2.1.7.5.5.8 1.1.8 1.9v6.2h-1.9v-5.3c0-.4-.2-.8-.4-1.1-.3-.3-.7-.5-1.2-.5-.4 0-.7.1-1.1.2-.3.1-.6.3-.8.6-.2.2-.4.5-.5.9-.1.3-.2.7-.2 1.1v4.1h-1.9v-15.8zm17.8 14.7c-.4.4-.9.7-1.5.9-.6.2-1.2.3-1.8.3-.6 0-1.2-.1-1.8-.3-.6-.2-1-.6-1.4-1-.4-.4-.7-.9-1-1.4-.2-.5-.4-1.1-.4-1.7s.1-1.2.4-1.7c.2-.5.6-1 1-1.4.4-.4.9-.7 1.4-1 .5-.2 1.1-.3 1.7-.3 1 0 1.8.3 2.5.9s1.2 1.3 1.6 2.3c-.4.1-.9.3-1.4.5-.5.2-1.1.4-1.7.6s-1.1.5-1.7.7-1.1.4-1.6.6c.2.4.5.7.9 1s.9.4 1.4.4c.3 0 .7-.1 1.1-.2.4-.1.6-.3.9-.5l1.4 1.3zm-1.7-5c-.2-.3-.4-.5-.7-.6-.3-.1-.6-.2-.9-.2-.4 0-.7.1-1 .2-.3.1-.6.3-.8.6s-.4.5-.5.8-.2.6-.2.9v.1c.3-.1.7-.3 1.1-.4s.8-.3 1.1-.5l1.1-.5c.2-.2.5-.3.8-.4zm8-1.3c0-1 .2-2 .6-2.9.4-.9.9-1.7 1.6-2.4.7-.7 1.5-1.2 2.4-1.6.9-.4 1.9-.6 2.9-.6s2 .2 2.9.6c.9.4 1.7.9 2.4 1.6.7.7 1.2 1.5 1.6 2.4.4.9.6 1.9.6 2.9s-.2 2-.6 2.9c-.4.9-.9 1.7-1.6 2.4-.7.7-1.5 1.2-2.4 1.6s-1.9.6-2.9.6-2-.2-2.9-.6c-.9-.4-1.7-.9-2.4-1.6-.7-.7-1.2-1.5-1.6-2.4-.4-.9-.6-1.9-.6-2.9zm2.4 0c0 .7.1 1.4.4 2s.6 1.2 1.1 1.6c.5.5 1 .8 1.6 1.1.6.3 1.3.4 2 .4s1.3-.1 1.9-.4c.6-.3 1.1-.6 1.6-1.1.4-.5.8-1 1.1-1.6.3-.6.4-1.3.4-2s-.1-1.4-.4-2c-.3-.6-.6-1.2-1.1-1.6-.5-.5-1-.8-1.6-1.1-.6-.3-1.3-.4-1.9-.4s-1.3.1-2 .4c-.6.3-1.1.6-1.6 1.1s-.8 1-1.1 1.6-.4 1.3-.4 2zm18.9 1c-.4 0-.7 0-1.1.1-.3.1-.6.2-.9.4s-.5.4-.6.7c-.2.3-.2.6-.2 1v3.9h-1.9v-8.5h1.7c0 .5.1.9.1 1.2s.1.6.1 1c.2-.4.4-.7.7-1l.9-.8c.3-.2.6-.4.9-.5.3-.1.6-.2.8-.2l-.5 2.7zm1.5-5.5c0-.3.1-.6.4-.9s.5-.3.8-.3c.3 0 .6.1.8.3.2.2.4.5.4.9s-.1.6-.4.9c-.2.2-.5.3-.8.3-.3 0-.6-.1-.8-.3-.3-.3-.4-.6-.4-.9zm2.2 11.8h-1.9v-8.5h1.9v8.5zm1.8-4.3c0-.6.1-1.2.4-1.7s.6-1 1-1.4c.4-.4.9-.7 1.5-1 .6-.2 1.1-.3 1.8-.3.6 0 1.2.1 1.8.3.5.2 1 .6 1.4 1 .4.4.7.9.9 1.4s.3 1.1.3 1.7-.1 1.2-.3 1.7c-.2.5-.5 1-.9 1.4-.4.4-.9.7-1.4 1-.5.2-1.1.3-1.8.3-.6 0-1.2-.1-1.8-.3-.5-.2-1-.5-1.4-.9-.4-.4-.7-.9-1-1.4-.4-.5-.5-1.1-.5-1.8zm1.9 0c0 .4.1.7.2 1 .1.3.3.6.5.8.2.2.5.4.8.5.3.1.6.2 1 .2s.7-.1 1-.2c.3-.1.6-.3.8-.5.2-.2.4-.5.6-.8.1-.3.2-.6.2-1s-.1-.7-.2-1-.3-.6-.6-.8c-.2-.2-.5-.4-.8-.6-.3-.1-.7-.2-1-.2-.4 0-.7.1-1 .2-.3.1-.6.3-.8.6-.2.2-.4.5-.5.8-.2.3-.2.7-.2 1zm8.9-4.2h1.7c0 .5.1.9.1 1.2 0 .3.1.6.1 1 .3-.7.7-1.3 1.3-1.7.6-.4 1.3-.7 2.1-.7.9 0 1.6.2 2.1.7.5.5.8 1.1.8 1.8v6.2h-1.9v-5.3c0-.4-.2-.8-.4-1.1-.3-.3-.7-.5-1.2-.5-.4 0-.7.1-1.1.2s-.6.3-.8.6c-.2.2-.4.5-.5.9-.1.3-.2.7-.2 1.1v4.1h-1.9v-8.5zm20.7 6.2c.2.3.4.5.6.7l.6.7c-.4.3-.8.5-1.3.7-.5.2-1 .3-1.5.3-.6 0-1.2-.1-1.8-.3-.6-.2-1-.6-1.4-1-.4-.4-.7-.9-1-1.4-.2-.5-.4-1.1-.4-1.7s.1-1.2.4-1.7.6-1 1-1.4c.4-.4.9-.7 1.4-1 .6-.2 1.1-.4 1.8-.4.6 0 1.1.1 1.6.3s.9.4 1.3.7l-1.2 1.4c-.5-.4-1-.5-1.7-.5-.4 0-.7.1-1.1.2-.3.1-.6.3-.8.5-.2.2-.4.5-.5.8s-.2.7-.2 1c0 .4.1.7.2 1s.3.6.5.8c.2.2.5.4.8.6.3.1.7.2 1.1.2.6.1 1.1-.1 1.6-.5zm2-2c0-.6.1-1.2.3-1.7s.6-1 1-1.4c.4-.4.9-.7 1.4-1 .6-.2 1.1-.3 1.8-.3.6 0 1.2.1 1.8.3.5.2 1 .6 1.4 1 .4.4.7.9.9 1.4s.3 1.1.3 1.7-.1 1.2-.3 1.7c-.2.5-.5 1-.9 1.4-.4.4-.9.7-1.4 1-.5.2-1.1.3-1.8.3-.6 0-1.2-.1-1.8-.3-.5-.2-1-.5-1.4-.9-.4-.4-.7-.9-1-1.4-.2-.5-.3-1.1-.3-1.8zm1.9 0c0 .4.1.7.2 1 .1.3.3.6.6.8.2.2.5.4.8.5.3.1.6.2 1 .2s.7-.1 1-.2c.3-.1.6-.3.8-.5.2-.2.4-.5.6-.8.1-.3.2-.6.2-1s-.1-.7-.2-1c-.1-.3-.3-.6-.6-.8-.2-.2-.5-.4-.8-.6-.3-.1-.7-.2-1-.2-.4 0-.7.1-1 .2-.3.1-.6.3-.8.6-.2.2-.4.5-.6.8s-.2.7-.2 1zm8.9-4.2h1.7c0 .5.1.9.1 1.2s.1.6.1 1c.3-.7.7-1.3 1.3-1.7.6-.4 1.3-.7 2.1-.7.9 0 1.6.2 2.1.7.5.5.8 1.1.8 1.8v6.2h-1.9v-5.3c0-.4-.2-.8-.4-1.1-.3-.3-.7-.5-1.2-.5-.4 0-.7.1-1.1.2s-.6.3-.8.6-.4.5-.5.9c-.1.3-.2.7-.2 1.1v4.1h-1.9v-8.5zm15.3.7l-.3.4s-.2.3-.3.4c-.1.1-.2.3-.4.5-.1-.1-.3-.2-.4-.2s-.3-.1-.4-.2l-.5-.1c-.2 0-.4 0-.6.1-.2.1-.3.3-.3.5s.1.4.3.6c.2.2.4.3.7.4.3.1.5.3.9.4.3.1.6.3.9.5.3.2.5.4.7.8.2.3.3.7.3 1.1 0 .4-.1.7-.2 1.1-.1.3-.3.6-.6.8-.3.2-.6.4-.9.5-.4.1-.8.2-1.2.2-.5 0-1.1-.1-1.6-.3-.5-.2-.9-.5-1.2-.8.1-.1.2-.2.3-.4l.4-.5c.1-.1.3-.3.4-.5l.1.1c.1.1.2.1.4.2.1.1.3.2.5.2.2.1.4.1.6.1.3 0 .6-.1.8-.2.2-.1.3-.3.3-.5s-.1-.4-.3-.5c-.2-.1-.4-.3-.7-.4-.3-.1-.5-.2-.9-.4-.3-.1-.6-.3-.9-.5s-.5-.5-.7-.8c-.2-.3-.3-.7-.3-1.2s.1-.9.3-1.2c.2-.3.4-.6.7-.8.3-.2.6-.3.9-.4.3-.1.6-.1.9-.1.4 0 .8.1 1.3.2s.7.6 1 .9zm2.9-4.5h1.9v3.7h2.2v1.7h-2.2v6.8h-1.9v-6.8h-1.4v-1.7h1.4v-3.7zm12.7 11.3c-.4.4-.9.7-1.5.9-.6.2-1.2.3-1.8.3-.6 0-1.2-.1-1.8-.3-.6-.2-1-.6-1.4-1-.4-.4-.7-.9-1-1.4-.2-.5-.4-1.1-.4-1.7s.1-1.2.4-1.7c.2-.5.6-1 1-1.4.4-.4.9-.7 1.4-1 .5-.2 1.1-.3 1.7-.3 1 0 1.8.3 2.5.9s1.2 1.3 1.6 2.3c-.4.1-.9.3-1.4.5l-1.6.6s-1.1.5-1.7.7c-.6.2-1.1.4-1.6.6.2.4.5.7.9 1s.9.4 1.4.4c.3 0 .7-.1 1-.2.4-.1.6-.3.9-.5l1.4 1.3zm-1.7-5c-.2-.3-.4-.5-.7-.6-.3-.1-.6-.2-.9-.2-.4 0-.7.1-1 .2-.3.1-.6.3-.8.6s-.4.5-.5.8c-.1.3-.2.6-.2.9v.1c.3-.1.7-.3 1.1-.4.4-.2.8-.3 1.1-.5s.7-.3 1.1-.5.5-.3.8-.4zm5.8 6h-1.9v-15.6h1.9v15.6zm4.2 0h-1.9v-15.6h1.9v15.6zm1.8-4.2c0-.6.1-1.2.4-1.8.2-.6.6-1 1-1.5s.9-.7 1.4-1c.5-.2 1.1-.4 1.7-.4.4 0 .8.1 1.1.2.3.1.6.2.8.3.2.1.4.3.5.4l.3.3.1-1h1.9v8.5h-1.9v-.9c-.1.1-.1.2-.3.3-.1.1-.3.2-.5.4-.2.1-.5.2-.8.3-.3.1-.7.1-1.1.1-.7 0-1.3-.1-1.8-.4-.5-.2-1-.6-1.4-1-.4-.4-.7-.9-.9-1.4-.3-.3-.5-.8-.5-1.4zm2-.1c0 .4.1.7.2 1 .1.3.3.6.5.8.2.2.5.4.8.5.3.1.7.2 1.1.2s.7-.1 1.1-.2c.3-.1.6-.3.8-.6.2-.2.4-.5.5-.8.1-.3.2-.7.2-1s-.1-.7-.2-1-.3-.6-.5-.8c-.2-.2-.5-.4-.8-.5-.3-.1-.7-.2-1.1-.2s-.7.1-1.1.2c-.3.1-.6.3-.8.5-.2.2-.4.5-.5.8-.2.4-.2.7-.2 1.1zm10.3-8h1.9v3.7h2.2v1.7h-2.2v6.8h-1.9v-6.8h-1.4v-1.7h1.4v-3.7zm5.3.5c0-.3.1-.6.4-.9s.5-.3.8-.3c.3 0 .6.1.8.3.2.2.4.5.4.9s-.1.6-.4.9c-.2.2-.5.3-.8.3-.3 0-.6-.1-.8-.3-.3-.3-.4-.6-.4-.9zm2.2 11.8h-1.9v-8.5h1.9v8.5zm1.8-4.3c0-.6.1-1.2.4-1.7.2-.5.6-1 1-1.4.4-.4.9-.7 1.5-1 .6-.2 1.1-.3 1.8-.3.6 0 1.2.1 1.8.3.5.2 1 .6 1.4 1 .4.4.7.9.9 1.4s.3 1.1.3 1.7-.1 1.2-.3 1.7c-.2.5-.5 1-.9 1.4-.4.4-.9.7-1.4 1-.5.2-1.1.3-1.8.3-.6 0-1.2-.1-1.8-.3-.5-.2-1-.5-1.4-.9-.4-.4-.7-.9-1-1.4-.4-.5-.5-1.1-.5-1.8zm1.9 0c0 .4.1.7.2 1 .1.3.3.6.5.8.2.2.5.4.8.5.3.1.7.2 1 .2.4 0 .7-.1 1-.2.3-.1.6-.3.8-.5.2-.2.4-.5.6-.8.1-.3.2-.6.2-1s-.1-.7-.2-1c-.1-.3-.3-.6-.6-.8-.2-.2-.5-.4-.8-.6-.3-.1-.6-.2-1-.2s-.7.1-1 .2c-.3.1-.6.3-.8.6-.2.2-.4.5-.5.8-.2.3-.2.7-.2 1zm8.9-4.2h1.7c0 .5.1.9.1 1.2 0 .3.1.6.1 1 .3-.7.7-1.3 1.3-1.7.6-.4 1.3-.7 2.1-.7.9 0 1.6.2 2.1.7.5.5.8 1.1.8 1.8v6.2h-1.9v-5.3c0-.4-.2-.8-.4-1.1-.3-.3-.7-.5-1.2-.5-.4 0-.7.1-1.1.2s-.6.3-.8.6c-.2.2-.4.5-.5.9-.1.3-.2.7-.2 1.1v4.1h-2.1v-8.5zm10.3 7.2c0-.3.1-.6.4-.9.3-.2.5-.4.8-.4.3 0 .5.1.8.4.3.2.4.5.4.9s-.1.7-.4.9c-.3.2-.5.3-.8.3-.3 0-.6-.1-.8-.3-.3-.2-.4-.5-.4-.9zm-455.3 16.7h2.5v14.6h-2.5v-14.6zm4.3 7.9v-1.9h1.5v-1.8c0-1.8.4-3.1 1.2-4s2-1.3 3.6-1.3v1.8c-1 .1-1.8.4-2.2 1-.5.6-.7 1.5-.7 2.6v1.7h2.6v1.9h-2.6v6.6h-1.9v-6.6h-1.5zm11.4-5.1c0-.3.1-.6.4-.9s.5-.3.8-.3.6.1.8.3c.2.2.4.5.4.9s-.1.6-.4.9c-.2.2-.5.3-.8.3s-.6-.1-.8-.3c-.3-.3-.4-.6-.4-.9zm2.1 11.8h-1.9v-8.5h1.9v8.5zm3.2-12.3h1.9v3.7h2.2v1.7h-2.2v6.8h-1.9v-6.8h-1.4v-1.7h1.4v-3.7zm14.4 6c-.4 0-.7 0-1.1.1-.3.1-.6.2-.9.4s-.5.4-.6.7c-.2.3-.2.6-.2 1v3.9h-1.9v-8.5h1.7c0 .5.1.9.1 1.2 0 .3.1.6.1 1 .2-.4.4-.7.7-1l.9-.8c.3-.2.6-.4.9-.5s.6-.2.8-.2l-.5 2.7zm8.9 5.3c-.4.4-.9.7-1.5.9-.6.2-1.2.3-1.8.3-.6 0-1.2-.1-1.8-.3-.6-.2-1-.6-1.4-1-.4-.4-.7-.9-1-1.4-.2-.5-.4-1.1-.4-1.7s.1-1.2.4-1.7c.2-.5.6-1 1-1.4.4-.4.9-.7 1.4-1 .5-.2 1.1-.3 1.7-.3 1 0 1.8.3 2.5.9s1.2 1.3 1.5 2.3c-.4.1-.9.3-1.4.5l-1.6.6-1.7.7s-1.1.4-1.6.6c.2.4.5.7.9 1 .4.3.9.4 1.4.4.3 0 .7-.1 1-.2.4-.1.6-.3.9-.5l1.5 1.3zm-1.7-5c-.2-.3-.4-.5-.7-.6-.3-.1-.6-.2-.9-.2-.4 0-.7.1-1 .2-.3.1-.6.3-.8.6s-.4.5-.5.8-.2.6-.2.9v.1c.3-.1.7-.3 1.1-.4s.8-.3 1.1-.5l1.1-.5c.2-.2.5-.3.8-.4zm13 1.7c0 .6-.1 1.2-.3 1.8-.2.5-.5 1-.9 1.4-.4.4-.9.7-1.4.9-.5.2-1.1.3-1.8.3s-1.2-.1-1.7-.4c-.5-.2-.8-.5-1-.8v5.1h-1.9v-12.6h1.8v1.1c.1-.1.2-.3.4-.4.2-.2.4-.3.6-.4.2-.1.5-.2.8-.3.3-.1.6-.1 1-.1.7 0 1.2.1 1.8.3s1 .5 1.4.9c.4.4.7.9.9 1.4.2.5.3 1.1.3 1.8zm-2.1 0c0-.7-.2-1.4-.7-1.9-.4-.5-1-.7-1.8-.7-.4 0-.7.1-1.1.2-.3.1-.6.3-.8.5-.2.2-.4.5-.6.8-.1.3-.2.6-.2 1s.1.7.2 1c.1.3.3.6.6.8.2.2.5.4.8.5.3.1.7.2 1.1.2.4 0 .7-.1 1-.2.3-.1.6-.3.8-.6.2-.2.4-.5.5-.8s.2-.4.2-.8zm5.8 4.3h-1.9v-15.6h1.9v15.6zm1.8-4.2c0-.6.1-1.2.4-1.8.2-.6.6-1 1-1.5.4-.4.9-.7 1.4-1 .5-.2 1.1-.4 1.7-.4.4 0 .8.1 1.1.2s.6.2.8.3l.6.4.3.3.1-1h1.9v8.5h-1.9v-.9c-.1.1-.1.2-.3.3-.1.1-.3.2-.5.4-.2.1-.5.2-.8.3s-.7.1-1.1.1c-.7 0-1.3-.1-1.8-.4-.5-.2-1-.6-1.4-1-.4-.4-.7-.9-.9-1.4-.5-.3-.6-.8-.6-1.4zm2-.1c0 .4.1.7.2 1s.3.6.5.8c.2.2.5.4.8.5.3.1.7.2 1.1.2.4 0 .7-.1 1.1-.2.3-.1.6-.3.8-.6.2-.2.4-.5.5-.8.1-.3.2-.7.2-1s-.1-.7-.2-1c-.1-.3-.3-.6-.5-.8-.2-.2-.5-.4-.8-.5-.3-.1-.7-.2-1.1-.2-.4 0-.7.1-1.1.2-.3.1-.6.3-.8.5-.2.2-.4.5-.5.8s-.2.7-.2 1.1zm15.2 2c.2.3.4.5.6.7s.4.5.6.7c-.4.3-.8.5-1.3.7-.5.2-1 .3-1.5.3-.6 0-1.2-.1-1.8-.3-.6-.2-1-.6-1.4-1-.4-.4-.7-.9-1-1.4-.2-.5-.4-1.1-.4-1.7s.1-1.2.4-1.7.6-1 1-1.4c.4-.4.9-.7 1.4-1s1.1-.4 1.8-.4c.6 0 1.1.1 1.6.3s.9.4 1.3.7l-1.2 1.4c-.5-.4-1-.5-1.7-.5-.4 0-.7.1-1.1.2-.3.1-.6.3-.8.5-.2.2-.4.5-.5.8s-.2.7-.2 1c0 .4.1.7.2 1s.3.6.5.8c.2.2.5.4.8.6.3.1.7.2 1.1.2.6.1 1.1-.1 1.6-.5zm9.8 1.3c-.4.4-.9.7-1.5.9-.6.2-1.2.3-1.8.3-.6 0-1.2-.1-1.8-.3-.6-.2-1-.6-1.4-1-.4-.4-.7-.9-1-1.4-.2-.5-.4-1.1-.4-1.7s.1-1.2.4-1.7c.2-.5.6-1 1-1.4.4-.4.9-.7 1.4-1 .5-.2 1.1-.3 1.7-.3 1 0 1.8.3 2.5.9s1.2 1.3 1.6 2.3c-.4.1-.9.3-1.4.5-.5.2-1.1.4-1.7.6s-1.1.5-1.7.7-1.1.4-1.6.6c.2.4.5.7.9 1s.9.4 1.4.4c.3 0 .7-.1 1.1-.2.4-.1.6-.3.9-.5l1.4 1.3zm-1.7-5c-.2-.3-.4-.5-.7-.6-.3-.1-.6-.2-.9-.2-.4 0-.7.1-1 .2-.3.1-.6.3-.8.6s-.4.5-.5.8-.2.6-.2.9v.1c.3-.1.7-.3 1.1-.4s.8-.3 1.1-.5l1.1-.5c.2-.2.6-.3.8-.4zm3.4 1.7c0-.7.1-1.3.3-1.8.2-.5.5-1 .9-1.4.4-.4.9-.7 1.4-.9.5-.2 1.1-.3 1.7-.3.4 0 .8 0 1.1.1s.6.2.8.3c.2.1.4.3.5.4.1.2.2.3.3.4v-8.2h1.9v15.6h-1.7v-1c-.1.1-.3.2-.4.4s-.4.3-.6.4c-.2.1-.5.2-.8.3-.3.1-.6.1-1 .1-.7 0-1.3-.1-1.8-.3-.5-.2-1-.6-1.4-1-.4-.4-.6-.9-.8-1.4-.3-.5-.4-1.1-.4-1.7zm1.9 0c0 .4.1.7.2 1 .1.3.3.6.5.8.2.2.5.4.8.5.3.1.7.2 1.1.2.4 0 .7-.1 1.1-.2.3-.1.6-.3.8-.6.2-.2.4-.5.5-.8.1-.3.2-.7.2-1s-.1-.7-.2-1-.3-.6-.5-.8c-.2-.2-.5-.4-.8-.5-.3-.1-.7-.2-1.1-.2-.4 0-.7.1-1.1.2-.3.1-.6.3-.8.5-.2.2-.4.5-.5.8-.1.4-.2.7-.2 1.1zm14.9-8h1.9v3.7h2.2v1.7h-2.2v6.8h-1.9v-6.8h-1.4v-1.7h1.4v-3.7zm5.5-3.4h1.9v9.2c.3-.7.7-1.2 1.2-1.6s1.2-.6 2.1-.6c.9 0 1.6.2 2.1.7.5.5.8 1.1.8 1.9v6.2h-1.9v-5.3c0-.4-.2-.8-.4-1.1-.3-.3-.7-.5-1.2-.5-.4 0-.7.1-1.1.2s-.6.3-.8.6c-.2.2-.4.5-.5.9-.1.3-.2.7-.2 1.1v4.1h-1.9v-15.8zm17.8 14.7c-.4.4-.9.7-1.5.9-.6.2-1.2.3-1.8.3-.6 0-1.2-.1-1.8-.3-.6-.2-1-.6-1.4-1-.4-.4-.7-.9-1-1.4-.2-.5-.4-1.1-.4-1.7s.1-1.2.4-1.7c.2-.5.6-1 1-1.4.4-.4.9-.7 1.4-1 .5-.2 1.1-.3 1.7-.3 1 0 1.8.3 2.5.9s1.2 1.3 1.5 2.3c-.4.1-.9.3-1.4.5-.5.2-1.1.4-1.7.6l-1.7.7c-.6.2-1.1.4-1.6.6.2.4.5.7.9 1 .4.3.9.4 1.4.4.3 0 .7-.1 1-.2.4-.1.6-.3.9-.5l1.6 1.3zm-1.7-5c-.2-.3-.4-.5-.7-.6-.3-.1-.6-.2-.9-.2-.4 0-.7.1-1 .2-.3.1-.6.3-.8.6s-.4.5-.5.8c-.1.3-.2.6-.2.9v.1c.3-.1.7-.3 1.1-.4.4-.2.8-.3 1.1-.5s.7-.3 1.1-.5.5-.3.8-.4zm17.5-7.8l-.9 2c-.6-.2-1.1-.4-1.7-.5-.5-.1-1.1-.2-1.5-.2-.8 0-1.5.2-1.9.5-.5.3-.7.7-.7 1.2 0 .4.2.8.5 1 .4.3.8.5 1.3.7.5.2 1.1.4 1.7.6.6.2 1.2.5 1.7.9s1 .8 1.3 1.3c.4.5.5 1.2.5 2 0 .6-.1 1.2-.3 1.7-.2.5-.6 1-1.1 1.3-.5.4-1.1.7-1.8.9-.7.2-1.6.3-2.5.3-.6 0-1.1 0-1.6-.1s-.9-.2-1.3-.3c-.4-.1-.7-.2-1-.4l-.8-.4 1.1-2.1c.6.3 1.2.5 1.8.7.6.2 1.2.2 1.7.2.2 0 .5 0 .9-.1s.8-.2 1.1-.3.7-.3.9-.6c.3-.3.4-.6.4-1 0-.5-.2-.8-.5-1.2-.4-.3-.8-.6-1.3-.8s-1.1-.5-1.7-.7c-.6-.2-1.2-.5-1.7-.8-.5-.3-1-.7-1.3-1.2s-.5-1-.5-1.8c0-.5.1-1 .3-1.5.2-.5.5-.9.9-1.3s.9-.7 1.5-.9c.6-.2 1.3-.4 2.1-.4.5 0 1 0 1.5.1s.9.2 1.3.3.7.2 1 .3c.4.5.5.6.6.6zm10.3 14h-1.6l-.2-2.4c-.3.7-.7 1.2-1.3 1.7-.5.4-1.2.7-2.1.7s-1.6-.2-2.1-.7c-.5-.5-.8-1.1-.8-1.8v-6.2h1.9v5.3c0 .4.2.8.4 1.1.3.3.7.4 1.2.5.4 0 .7-.1 1.1-.2.3-.1.6-.3.8-.6.2-.2.4-.5.5-.9.1-.3.2-.7.2-1.1v-4.1h1.9v8.7zm2.3-8.7h1.7c0 .5.1.9.1 1.2s.1.6.1 1c.3-.7.7-1.3 1.3-1.7.6-.4 1.3-.7 2.1-.7.9 0 1.6.2 2.1.7.5.5.8 1.1.8 1.8v6.2h-1.9v-5.3c0-.4-.2-.8-.4-1.1-.3-.3-.7-.5-1.2-.5-.4 0-.7.1-1.1.2s-.6.3-.8.6-.4.5-.5.9c-.1.3-.2.7-.2 1.1v4.1h-1.9v-8.5zm13 6.7l-1.8 4.2h-1.8l.8-2.1.8-2.1h2zm6.8-10c0-.3.1-.6.4-.9.3-.2.5-.3.8-.3s.6.1.8.3c.2.2.4.5.4.9s-.1.6-.4.9c-.2.2-.5.3-.8.3s-.6-.1-.8-.3c-.3-.3-.4-.6-.4-.9zm2.1 11.8h-1.9v-8.5h1.9v8.5zm3.2-12.3h1.9v3.7h2.2v1.7h-2.2v6.8h-1.9v-6.8h-1.4v-1.7h1.4v-3.7zm13.8 5l-.6-1.2h1.7c.4.9.7 1.6 1 2.2.3.6.5 1.1.7 1.5.2.4.3.8.4 1 .1.3.2.5.2.6.1-.4.1-.7.2-1 .1-.3.2-.6.4-1s.4-.8.6-1.4c.2-.5.6-1.2.9-2.1h1.9l-4 9c-.3-.5-.5-1-.7-1.5l-.6-1.5-.6-1.5c-.2-.5-.4-1-.7-1.5-.5 1-.9 2-1.3 2.9-.4.9-.8 1.9-1.3 2.9l-3.8-9h1.9c.4.9.7 1.6.9 2.1s.4 1 .5 1.4.2.7.3 1c.1.3.1.6.2 1 0-.1.1-.3.2-.4s.2-.4.3-.7c.1-.3.3-.7.5-1.2.2-.2.5-.8.8-1.6zm7.9 3c0-.6.1-1.2.3-1.7s.6-1 1-1.4c.4-.4.9-.7 1.4-1 .6-.2 1.1-.3 1.8-.3.6 0 1.2.1 1.8.3.5.2 1 .6 1.4 1 .4.4.7.9.9 1.4s.3 1.1.3 1.7-.1 1.2-.3 1.7c-.2.5-.5 1-.9 1.4-.4.4-.9.7-1.4 1-.5.2-1.1.3-1.8.3-.6 0-1.2-.1-1.8-.3-.5-.2-1-.5-1.4-.9-.4-.4-.7-.9-1-1.4-.2-.5-.3-1.1-.3-1.8zm1.9 0c0 .4.1.7.2 1 .1.3.3.6.6.8.2.2.5.4.8.5.3.1.6.2 1 .2s.7-.1 1-.2c.3-.1.6-.3.8-.5.2-.2.4-.5.6-.8.1-.3.2-.6.2-1s-.1-.7-.2-1c-.1-.3-.3-.6-.6-.8-.2-.2-.5-.4-.8-.6-.3-.1-.7-.2-1-.2-.4 0-.7.1-1 .2-.3.1-.6.3-.8.6-.2.2-.4.5-.6.8s-.2.7-.2 1zm17 4.5h-1.6l-.2-2.4c-.3.7-.7 1.2-1.3 1.7-.5.4-1.2.7-2.1.7-.9 0-1.6-.2-2.1-.7-.5-.5-.8-1.1-.8-1.8v-6.2h1.9v5.3c0 .4.2.8.4 1.1.3.3.7.4 1.2.5.4 0 .7-.1 1.1-.2.3-.1.6-.3.8-.6.2-.2.4-.5.5-.9.1-.3.2-.7.2-1.1v-4.1h1.9v8.7zm4.3-.2h-1.9v-15.6h1.9v15.6zm1.8-4.3c0-.7.1-1.3.3-1.8.2-.5.5-1 .9-1.4.4-.4.9-.7 1.4-.9.5-.2 1.1-.3 1.7-.3.4 0 .8 0 1.1.1.3.1.6.2.8.3l.6.4c.1.2.2.3.3.4v-8.2h1.9v15.6h-1.9v-1c-.1.1-.3.2-.4.4s-.4.3-.6.4c-.2.1-.5.2-.8.3-.3.1-.6.1-1 .1-.7 0-1.3-.1-1.8-.3-.5-.2-1-.6-1.4-1-.4-.4-.6-.9-.8-1.4-.2-.5-.3-1.1-.3-1.7zm1.9 0c0 .4.1.7.2 1s.3.6.5.8.5.4.8.5c.3.1.7.2 1.1.2s.7-.1 1.1-.2c.3-.1.6-.3.8-.6.2-.2.4-.5.5-.8.1-.3.2-.7.2-1s-.1-.7-.2-1c-.1-.3-.3-.6-.5-.8-.2-.2-.5-.4-.8-.5-.3-.1-.7-.2-1.1-.2s-.7.1-1.1.2c-.3.1-.6.3-.8.5s-.4.5-.5.8-.2.7-.2 1.1zm21.4 3.3c-.4.4-.9.7-1.5.9-.6.2-1.2.3-1.8.3-.6 0-1.2-.1-1.8-.3-.6-.2-1-.6-1.4-1-.4-.4-.7-.9-1-1.4-.2-.5-.4-1.1-.4-1.7s.1-1.2.4-1.7c.2-.5.6-1 1-1.4.4-.4.9-.7 1.4-1 .5-.2 1.1-.3 1.7-.3 1 0 1.8.3 2.5.9s1.2 1.3 1.6 2.3c-.4.1-.9.3-1.4.5l-1.6.6s-1.1.5-1.7.7c-.6.2-1.1.4-1.6.6.2.4.5.7.9 1s.9.4 1.4.4c.3 0 .7-.1 1-.2.4-.1.6-.3.9-.5l1.4 1.3zm-1.6-5c-.2-.3-.4-.5-.7-.6-.3-.1-.6-.2-.9-.2-.4 0-.7.1-1 .2-.3.1-.6.3-.8.6s-.4.5-.5.8c-.1.3-.2.6-.2.9v.1c.3-.1.7-.3 1.1-.4.4-.2.8-.3 1.1-.5s.7-.3 1.1-.5.5-.3.8-.4zm5.8 1.4l-1.4-2-1.5-2h2.4c.2.3.3.5.5.7l.4.6.4.6c.2.2.3.4.5.7l.5-.7.4-.6.4-.6c.1-.2.3-.4.5-.7h2.1c-.3.4-.5.7-.7 1l-.7.9s-.4.6-.7 1-.5.7-.8 1.1c.2.3.5.7.8 1.1s.6.8.9 1.1c.3.4.6.8.8 1.2s.5.7.8 1.1h-2.5c-.4-.5-.7-1-1.1-1.4-.4-.4-.7-.9-1.1-1.4-.3.5-.7 1-1 1.4-.3.4-.6.9-1 1.4h-2.1c.5-.8 1-1.5 1.6-2.3.6-.7 1.1-1.4 1.6-2.2zm7.7-7.7h1.9v3.7h2.2v1.7h-2.2v6.8h-1.9v-6.8h-1.4v-1.7h1.4v-3.7zm12.7 11.3c-.4.4-.9.7-1.5.9-.6.2-1.2.3-1.8.3-.6 0-1.2-.1-1.8-.3-.6-.2-1-.6-1.4-1-.4-.4-.7-.9-1-1.4-.2-.5-.4-1.1-.4-1.7s.1-1.2.4-1.7c.2-.5.6-1 1-1.4.4-.4.9-.7 1.4-1 .5-.2 1.1-.3 1.7-.3 1 0 1.8.3 2.5.9s1.2 1.3 1.5 2.3c-.4.1-.9.3-1.4.5-.5.2-1.1.4-1.7.6l-1.7.7c-.6.2-1.1.4-1.6.6.2.4.5.7.9 1 .4.3.9.4 1.4.4.3 0 .7-.1 1-.2.4-.1.6-.3.9-.5l1.6 1.3zm-1.7-5c-.2-.3-.4-.5-.7-.6-.3-.1-.6-.2-.9-.2-.4 0-.7.1-1 .2-.3.1-.6.3-.8.6s-.4.5-.5.8c-.1.3-.2.6-.2.9v.1c.3-.1.7-.3 1.1-.4.4-.2.8-.3 1.1-.5s.7-.3 1.1-.5.5-.3.8-.4zm3.9-2.5h1.7c0 .5.1.9.1 1.2 0 .3.1.6.1 1 .3-.7.7-1.3 1.3-1.7.6-.4 1.3-.7 2.1-.7.9 0 1.6.2 2.1.7.5.5.8 1.1.8 1.8v6.2h-1.9v-5.3c0-.4-.2-.8-.4-1.1-.3-.3-.7-.5-1.2-.5-.4 0-.7.1-1.1.2s-.6.3-.8.6c-.2.2-.4.5-.5.9-.1.3-.2.7-.2 1.1v4.1h-1.9v-8.5zm9.9 4.2c0-.7.1-1.3.3-1.8.2-.5.5-1 .9-1.4.4-.4.9-.7 1.4-.9.5-.2 1.1-.3 1.7-.3.4 0 .8 0 1.1.1s.6.2.8.3c.2.1.4.3.5.4.1.2.2.3.3.4v-8.2h1.9v15.6h-1.9v-1c-.1.1-.3.2-.4.4s-.4.3-.6.4c-.2.1-.5.2-.8.3-.3.1-.6.1-1 .1-.7 0-1.3-.1-1.8-.3-.5-.2-1-.6-1.4-1-.4-.4-.6-.9-.8-1.4-.1-.5-.2-1.1-.2-1.7zm1.9 0c0 .4.1.7.2 1 .1.3.3.6.5.8.2.2.5.4.8.5.3.1.7.2 1.1.2.4 0 .7-.1 1.1-.2.3-.1.6-.3.8-.6.2-.2.4-.5.5-.8.1-.3.2-.7.2-1s-.1-.7-.2-1-.3-.6-.5-.8c-.2-.2-.5-.4-.8-.5-.3-.1-.7-.2-1.1-.2-.4 0-.7.1-1.1.2-.3.1-.6.3-.8.5-.2.2-.4.5-.5.8-.1.4-.2.7-.2 1.1zm23.2 0c0 .6-.1 1.2-.3 1.8-.2.5-.5 1-.9 1.4-.4.4-.9.7-1.4.9s-1.1.3-1.8.3-1.2-.1-1.7-.4c-.5-.2-.8-.5-1-.8v5.1h-1.9v-12.6h1.8v1.1c.1-.1.2-.3.4-.4.2-.2.4-.3.6-.4.2-.1.5-.2.8-.3s.6-.1 1-.1c.7 0 1.2.1 1.8.3.5.2 1 .5 1.4.9.4.4.7.9.9 1.4.2.5.3 1.1.3 1.8zm-2.1 0c0-.7-.2-1.4-.7-1.9-.4-.5-1-.7-1.8-.7-.4 0-.7.1-1.1.2-.3.1-.6.3-.8.5s-.4.5-.5.8c-.1.3-.2.6-.2 1s.1.7.2 1c.1.3.3.6.5.8s.5.4.8.5c.3.1.7.2 1.1.2s.7-.1 1-.2c.3-.1.6-.3.8-.6.2-.2.4-.5.5-.8s.2-.4.2-.8zm3.4.1c0-.6.1-1.2.4-1.8.2-.6.6-1 1-1.5s.9-.7 1.4-1c.5-.2 1.1-.4 1.7-.4.4 0 .8.1 1.1.2.3.1.6.2.8.3.2.1.4.3.5.4l.3.3.1-1h1.9v8.5h-1.9v-.9c-.1.1-.1.2-.3.3-.1.1-.3.2-.5.4-.2.1-.5.2-.8.3-.3.1-.7.1-1.1.1-.7 0-1.3-.1-1.8-.4-.5-.2-1-.6-1.4-1-.4-.4-.7-.9-.9-1.4-.4-.3-.5-.8-.5-1.4zm1.9-.1c0 .4.1.7.2 1 .1.3.3.6.5.8.2.2.5.4.8.5.3.1.7.2 1.1.2s.7-.1 1.1-.2c.3-.1.6-.3.8-.6.2-.2.4-.5.5-.8.1-.3.2-.7.2-1s-.1-.7-.2-1-.3-.6-.5-.8c-.2-.2-.5-.4-.8-.5-.3-.1-.7-.2-1.1-.2s-.7.1-1.1.2c-.3.1-.6.3-.8.5-.2.2-.4.5-.5.8-.1.4-.2.7-.2 1.1zm14.4-3.5l-.3.4s-.2.3-.3.4c-.1.1-.2.3-.4.5-.1-.1-.3-.2-.4-.2s-.3-.1-.4-.2l-.5-.1c-.2 0-.4 0-.6.1-.2.1-.3.3-.3.5s.1.4.3.6c.2.2.4.3.7.4.3.1.5.3.9.4.3.1.6.3.9.5.3.2.5.4.7.8.2.3.3.7.3 1.1 0 .4-.1.7-.2 1.1-.1.3-.3.6-.6.8-.3.2-.6.4-.9.5-.4.1-.8.2-1.2.2-.5 0-1.1-.1-1.6-.3-.5-.2-.9-.5-1.2-.8.1-.1.2-.2.3-.4l.4-.5c.1-.1.3-.3.4-.5l.1.1c.1.1.2.1.4.2.1.1.3.2.5.2.2.1.4.1.6.1.3 0 .6-.1.8-.2.2-.1.3-.3.3-.5s-.1-.4-.3-.5c-.2-.1-.4-.3-.7-.4-.3-.1-.5-.2-.9-.4-.3-.1-.6-.3-.9-.5s-.5-.5-.7-.8c-.2-.3-.3-.7-.3-1.2s.1-.9.3-1.2c.2-.3.4-.6.7-.8.3-.2.6-.3.9-.4.3-.1.6-.1.9-.1.4 0 .8.1 1.3.2s.7.6 1 .9zm3-4.5h1.9v3.7h2.2v1.7h-2.2v6.8h-1.9v-6.8h-1.4v-1.7h1.4v-3.7zm10.4 0h1.9v3.7h2.2v1.7h-2.2v6.8h-1.9v-6.8h-1.4v-1.7h1.4v-3.7zm5.6-3.4h1.9v9.2c.3-.7.7-1.2 1.2-1.6s1.2-.6 2.1-.6c.9 0 1.6.2 2.1.7.5.5.8 1.1.8 1.9v6.2h-1.9v-5.3c0-.4-.2-.8-.4-1.1-.3-.3-.7-.5-1.2-.5-.4 0-.7.1-1.1.2s-.6.3-.8.6-.4.5-.5.9c-.1.3-.2.7-.2 1.1v4.1h-1.9v-15.8zm17.7 14.7c-.4.4-.9.7-1.5.9-.6.2-1.2.3-1.8.3-.6 0-1.2-.1-1.8-.3-.6-.2-1-.6-1.4-1-.4-.4-.7-.9-1-1.4-.2-.5-.4-1.1-.4-1.7s.1-1.2.4-1.7c.2-.5.6-1 1-1.4.4-.4.9-.7 1.4-1 .5-.2 1.1-.3 1.7-.3 1 0 1.8.3 2.5.9s1.2 1.3 1.6 2.3c-.4.1-.9.3-1.4.5l-1.6.6s-1.1.5-1.7.7c-.6.2-1.1.4-1.6.6.2.4.5.7.9 1s.9.4 1.4.4c.3 0 .7-.1 1-.2.4-.1.6-.3.9-.5l1.4 1.3zm-1.7-5c-.2-.3-.4-.5-.7-.6-.3-.1-.6-.2-.9-.2-.4 0-.7.1-1 .2-.3.1-.6.3-.8.6s-.4.5-.5.8c-.1.3-.2.6-.2.9v.1c.3-.1.7-.3 1.1-.4.4-.2.8-.3 1.1-.5s.7-.3 1.1-.5l.8-.4zm7.9 1.8c0-.6.1-1.2.4-1.8.2-.6.6-1 1-1.5.4-.4.9-.7 1.4-1 .5-.2 1.1-.4 1.7-.4.4 0 .8.1 1.1.2.3.1.6.2.8.3l.6.4.3.3.1-1h1.9v8.5h-1.9v-.9c-.1.1-.1.2-.3.3s-.3.2-.5.4c-.2.1-.5.2-.8.3-.3.1-.7.1-1.1.1-.7 0-1.3-.1-1.8-.4-.5-.2-1-.6-1.4-1-.4-.4-.7-.9-.9-1.4-.5-.3-.6-.8-.6-1.4zm2-.1c0 .4.1.7.2 1 .1.3.3.6.5.8.2.2.5.4.8.5.3.1.7.2 1.1.2.4 0 .7-.1 1.1-.2.3-.1.6-.3.8-.6.2-.2.4-.5.5-.8.1-.3.2-.7.2-1s-.1-.7-.2-1c-.1-.3-.3-.6-.5-.8-.2-.2-.5-.4-.8-.5-.3-.1-.7-.2-1.1-.2-.4 0-.7.1-1.1.2-.3.1-.6.3-.8.5-.2.2-.4.5-.5.8-.2.4-.2.7-.2 1.1zm14.4-3.5l-.3.4s-.2.3-.3.4c-.1.1-.2.3-.4.5-.1-.1-.3-.2-.4-.2s-.3-.1-.4-.2l-.5-.1c-.2 0-.4 0-.6.1s-.3.3-.3.5.1.4.3.6.4.3.7.4c.3.1.5.3.9.4.3.1.6.3.9.5.3.2.5.4.7.8.2.3.3.7.3 1.1 0 .4-.1.7-.2 1.1-.1.3-.3.6-.6.8-.3.2-.6.4-.9.5-.4.1-.8.2-1.2.2-.5 0-1.1-.1-1.6-.3s-.9-.5-1.2-.8c.1-.1.2-.2.3-.4l.4-.5c.1-.1.3-.3.4-.5l.1.1c.1.1.2.1.4.2.1.1.3.2.5.2.2.1.4.1.6.1.3 0 .6-.1.8-.2.2-.1.3-.3.3-.5s-.1-.4-.3-.5c-.2-.1-.4-.3-.7-.4-.3-.1-.5-.2-.9-.4-.3-.1-.6-.3-.9-.5-.3-.2-.5-.5-.7-.8-.2-.3-.3-.7-.3-1.2s.1-.9.3-1.2c.2-.3.4-.6.7-.8.3-.2.6-.3.9-.4.3-.1.6-.1.9-.1.4 0 .8.1 1.3.2.3.4.6.6 1 .9zm2.9-4.5h1.9v3.7h2.2v1.7h-2.2v6.8h-1.9v-6.8h-1.4v-1.7h1.4v-3.7zm12.7 11.3c-.4.4-.9.7-1.5.9-.6.2-1.2.3-1.8.3-.6 0-1.2-.1-1.8-.3-.6-.2-1-.6-1.4-1-.4-.4-.7-.9-1-1.4-.2-.5-.4-1.1-.4-1.7s.1-1.2.4-1.7c.2-.5.6-1 1-1.4.4-.4.9-.7 1.4-1 .5-.2 1.1-.3 1.7-.3 1 0 1.8.3 2.5.9s1.2 1.3 1.6 2.3c-.4.1-.9.3-1.4.5-.5.2-1.1.4-1.7.6s-1.1.5-1.7.7-1.1.4-1.6.6c.2.4.5.7.9 1s.9.4 1.4.4c.3 0 .7-.1 1.1-.2.4-.1.6-.3.9-.5l1.4 1.3zm-1.7-5c-.2-.3-.4-.5-.7-.6-.3-.1-.6-.2-.9-.2-.4 0-.7.1-1 .2-.3.1-.6.3-.8.6s-.4.5-.5.8-.2.6-.2.9v.1c.3-.1.7-.3 1.1-.4s.8-.3 1.1-.5l1.1-.5c.2-.2.5-.3.8-.4zm8.6-.3c-.4 0-.7 0-1.1.1-.3.1-.6.2-.9.4s-.5.4-.6.7c-.2.3-.2.6-.2 1v3.9h-1.9v-8.5h1.7c0 .5.1.9.1 1.2 0 .3.1.6.1 1 .2-.4.4-.7.7-1l.9-.8c.3-.2.6-.4.9-.5s.6-.2.8-.2l-.5 2.7zm1 2c0-.6.1-1.2.3-1.7.2-.5.6-1 1-1.4.4-.4.9-.7 1.5-1 .6-.2 1.1-.3 1.8-.3.6 0 1.2.1 1.8.3.5.2 1 .6 1.4 1 .4.4.7.9.9 1.4s.3 1.1.3 1.7-.1 1.2-.3 1.7c-.2.5-.5 1-.9 1.4-.4.4-.9.7-1.4 1-.5.2-1.1.3-1.8.3-.6 0-1.2-.1-1.8-.3-.5-.2-1-.5-1.4-.9-.4-.4-.7-.9-1-1.4-.2-.5-.4-1.1-.4-1.8zm1.9 0c0 .4.1.7.2 1 .1.3.3.6.5.8s.5.4.8.5c.3.1.7.2 1 .2s.7-.1 1-.2c.3-.1.6-.3.8-.5s.4-.5.6-.8c.1-.3.2-.6.2-1s-.1-.7-.2-1c-.1-.3-.3-.6-.6-.8s-.5-.4-.8-.6c-.3-.1-.6-.2-1-.2s-.7.1-1 .2c-.3.1-.6.3-.8.6s-.4.5-.5.8c-.1.3-.2.7-.2 1zm8.7-7.5c0-.3.1-.6.4-.9.3-.2.5-.3.8-.3s.6.1.8.3c.2.2.4.5.4.9s-.1.6-.4.9c-.2.2-.5.3-.8.3s-.6-.1-.8-.3c-.2-.3-.4-.6-.4-.9zm2.2 11.8h-1.9v-8.5h1.9v8.5zm1.8-4.3c0-.7.1-1.3.3-1.8.2-.5.5-1 .9-1.4.4-.4.9-.7 1.4-.9.5-.2 1.1-.3 1.7-.3.4 0 .8 0 1.1.1s.6.2.8.3c.2.1.4.3.5.4.1.2.2.3.3.4v-8.2h1.9v15.6h-1.9v-1c-.1.1-.3.2-.4.4l-.6.4c-.2.1-.5.2-.8.3s-.6.1-1 .1c-.7 0-1.3-.1-1.8-.3-.5-.2-1-.6-1.4-1-.4-.4-.6-.9-.8-1.4-.1-.5-.2-1.1-.2-1.7zm1.9 0c0 .4.1.7.2 1 .1.3.3.6.5.8.2.2.5.4.8.5.3.1.7.2 1.1.2s.7-.1 1.1-.2c.3-.1.6-.3.8-.6.2-.2.4-.5.5-.8.1-.3.2-.7.2-1s-.1-.7-.2-1-.3-.6-.5-.8c-.2-.2-.5-.4-.8-.5-.3-.1-.7-.2-1.1-.2s-.7.1-1.1.2c-.3.1-.6.3-.8.5-.2.2-.4.5-.5.8-.1.4-.2.7-.2 1.1zm23.2 0c0 .6-.1 1.2-.3 1.8s-.5 1-.9 1.4c-.4.4-.9.7-1.4.9s-1.1.3-1.8.3-1.2-.1-1.7-.4c-.5-.2-.8-.5-1-.8v1h-1.9v-15.6h1.9v8.2c.1-.1.2-.3.4-.4.2-.2.4-.3.6-.4.2-.1.5-.2.8-.3.3-.1.6-.1 1-.1.7 0 1.2.1 1.8.3s1 .5 1.4.9c.4.4.7.9.9 1.4.1.5.2 1.1.2 1.8zm-2.1 0c0-.7-.2-1.4-.7-1.9-.4-.5-1-.7-1.8-.7-.4 0-.7.1-1.1.2-.3.1-.6.3-.8.5-.2.2-.4.5-.6.8s-.2.6-.2 1 .1.7.2 1 .3.6.6.8c.2.2.5.4.8.5.3.1.7.2 1.1.2.4 0 .7-.1 1-.2.3-.1.6-.3.8-.6.2-.2.4-.5.5-.8s.2-.4.2-.8zm11.3 3.3c-.4.4-.9.7-1.5.9-.6.2-1.2.3-1.8.3-.6 0-1.2-.1-1.8-.3-.6-.2-1-.6-1.4-1-.4-.4-.7-.9-1-1.4-.2-.5-.4-1.1-.4-1.7s.1-1.2.4-1.7c.2-.5.6-1 1-1.4.4-.4.9-.7 1.4-1 .5-.2 1.1-.3 1.7-.3 1 0 1.8.3 2.5.9s1.2 1.3 1.5 2.3c-.4.1-.9.3-1.4.5l-1.6.6-1.7.7s-1.1.4-1.6.6c.2.4.5.7.9 1 .4.3.9.4 1.4.4.3 0 .7-.1 1-.2.4-.1.6-.3.9-.5l1.5 1.3zm-1.7-5c-.2-.3-.4-.5-.7-.6-.3-.1-.6-.2-.9-.2-.4 0-.7.1-1 .2-.3.1-.6.3-.8.6s-.4.5-.5.8-.2.6-.2.9v.1c.3-.1.7-.3 1.1-.4s.8-.3 1.1-.5l1.1-.5c.2-.2.5-.3.8-.4zm5.8 6h-1.9v-15.6h1.9v15.6zm3.1-12.3h1.9v3.7h2.2v1.7h-2.2v6.8h-1.9v-6.8h-1.4v-1.7h1.4v-3.7zm-415.3 38.1c0-.6.1-1.2.4-1.8.2-.6.6-1 1-1.5.4-.4.9-.7 1.4-1 .5-.2 1.1-.4 1.7-.4.4 0 .8.1 1.1.2s.6.2.8.3c.2.1.4.3.5.4l.3.3.1-1h1.9v8.5h-1.9v-.9c-.1.1-.1.2-.3.3s-.3.2-.5.4c-.2.1-.5.2-.8.3-.3.1-.7.1-1.1.1-.7 0-1.3-.1-1.8-.4-.5-.2-1-.6-1.4-1-.4-.4-.7-.9-.9-1.4-.4-.3-.5-.8-.5-1.4zm1.9-.1c0 .4.1.7.2 1s.3.6.5.8.5.4.8.5c.3.1.7.2 1.1.2s.7-.1 1.1-.2c.3-.1.6-.3.8-.6.2-.2.4-.5.5-.8.1-.3.2-.7.2-1s-.1-.7-.2-1-.3-.6-.5-.8c-.2-.2-.5-.4-.8-.5-.3-.1-.7-.2-1.1-.2s-.7.1-1.1.2c-.3.1-.6.3-.8.5s-.4.5-.5.8-.2.7-.2 1.1zm9.6-4.2h1.7c0 .5.1.9.1 1.2 0 .3.1.6.1 1 .3-.7.7-1.3 1.3-1.7.6-.4 1.3-.7 2.1-.7.9 0 1.6.2 2.1.7.5.5.8 1.1.8 1.8v6.2h-1.9v-5.3c0-.4-.2-.8-.4-1.1-.3-.3-.7-.5-1.2-.5-.4 0-.7.1-1.1.2s-.6.3-.8.6c-.2.2-.4.5-.5.9-.1.3-.2.7-.2 1.1v4.1h-1.9v-8.5zm9.9 4.2c0-.7.1-1.3.3-1.8.2-.5.5-1 .9-1.4.4-.4.9-.7 1.4-.9.5-.2 1.1-.3 1.7-.3.4 0 .8 0 1.1.1s.6.2.8.3c.2.1.4.3.5.4.1.2.2.3.3.4v-8.2h1.9v15.6h-1.7v-1c-.1.1-.3.2-.4.4s-.4.3-.6.4c-.2.1-.5.2-.8.3-.3.1-.6.1-1 .1-.7 0-1.3-.1-1.8-.3-.5-.2-1-.6-1.4-1-.4-.4-.6-.9-.8-1.4-.3-.5-.4-1.1-.4-1.7zm1.9 0c0 .4.1.7.2 1 .1.3.3.6.5.8.2.2.5.4.8.5.3.1.7.2 1.1.2.4 0 .7-.1 1.1-.2.3-.1.6-.3.8-.6.2-.2.4-.5.5-.8.1-.3.2-.7.2-1s-.1-.7-.2-1-.3-.6-.5-.8c-.2-.2-.5-.4-.8-.5-.3-.1-.7-.2-1.1-.2-.4 0-.7.1-1.1.2-.3.1-.6.3-.8.5-.2.2-.4.5-.5.8-.1.4-.2.7-.2 1.1zm21.4 3.3c-.4.4-.9.7-1.5.9-.6.2-1.2.3-1.8.3-.6 0-1.2-.1-1.8-.3-.6-.2-1-.6-1.4-1-.4-.4-.7-.9-1-1.4-.2-.5-.4-1.1-.4-1.7s.1-1.2.4-1.7c.2-.5.6-1 1-1.4.4-.4.9-.7 1.4-1 .5-.2 1.1-.3 1.7-.3 1 0 1.8.3 2.5.9s1.2 1.3 1.5 2.3c-.4.1-.9.3-1.4.5-.5.2-1.1.4-1.7.6l-1.7.7c-.6.2-1.1.4-1.6.6.2.4.5.7.9 1 .4.3.9.4 1.4.4.3 0 .7-.1 1-.2.4-.1.6-.3.9-.5l1.6 1.3zm-1.7-5c-.2-.3-.4-.5-.7-.6-.3-.1-.6-.2-.9-.2-.4 0-.7.1-1 .2-.3.1-.6.3-.8.6s-.4.5-.5.8c-.1.3-.2.6-.2.9v.1c.3-.1.7-.3 1.1-.4.4-.2.8-.3 1.1-.5s.7-.3 1.1-.5.5-.3.8-.4zm3.9-2.5h1.7c0 .5.1.9.1 1.2 0 .3.1.6.1 1 .3-.7.7-1.3 1.3-1.7.6-.4 1.3-.7 2.1-.7.9 0 1.6.2 2.1.7.5.5.8 1.1.8 1.8v6.2h-1.9v-5.3c0-.4-.2-.8-.4-1.1-.3-.3-.7-.5-1.2-.5-.4 0-.7.1-1.1.2s-.6.3-.8.6c-.2.2-.4.5-.5.9-.1.3-.2.7-.2 1.1v4.1h-1.9v-8.5zm9.9 4.3c0-.6.1-1.2.3-1.8.2-.6.5-1 .9-1.4.4-.4.9-.7 1.4-.9.5-.2 1.1-.3 1.7-.3.5 0 .9.1 1.2.2l.9.4c.2.1.4.3.5.4l.2.2v-1h1.8v8.1c0 .7-.1 1.4-.3 1.9-.2.6-.5 1-.9 1.4-.4.4-.9.7-1.5.9-.6.2-1.2.3-1.9.3-.5 0-1-.1-1.4-.2-.4-.1-.7-.2-1.1-.4l-.9-.6-.8-.6 1.2-1.3 1.2.9c.4.2.9.4 1.6.4.8 0 1.5-.2 2-.6.5-.4.7-1 .7-1.7v-1l-.4.4c-.2.2-.4.3-.6.4-.2.1-.5.2-.8.3s-.7.1-1.1.1c-.6 0-1.2-.1-1.8-.3s-1-.5-1.4-.9c-.4-.4-.7-.9-.9-1.4s.2-1.3.2-1.9zm1.9-.1c0 .4.1.7.2 1 .1.3.3.6.5.8.2.2.5.4.8.5.3.1.7.2 1.1.2.4 0 .7-.1 1.1-.2.3-.1.6-.3.8-.6.2-.2.4-.5.5-.8.1-.3.2-.7.2-1s-.1-.7-.2-1-.3-.6-.5-.8c-.2-.2-.5-.4-.8-.5-.3-.1-.7-.2-1.1-.2-.4 0-.7.1-1.1.2-.3.1-.6.3-.8.5-.2.2-.4.5-.5.8-.1.4-.2.7-.2 1.1zm17.6 4.5h-1.6l-.2-2.4c-.3.7-.7 1.2-1.3 1.7-.5.4-1.2.7-2.1.7-.9 0-1.6-.2-2.1-.7-.5-.5-.8-1.1-.8-1.8v-6.2h1.9v5.3c0 .4.2.8.4 1.1.3.3.7.4 1.2.5.4 0 .7-.1 1.1-.2.3-.1.6-.3.8-.6.2-.2.4-.5.5-.9.1-.3.2-.7.2-1.1v-4.1h1.9v8.7zm4.3-.2h-1.9v-15.6h1.9v15.6zm1.7-6.7v-1.9h1.5v-1.8c0-1.8.4-3.1 1.2-4 .8-.8 2-1.3 3.6-1.3v1.8c-1 .1-1.8.4-2.2 1-.5.6-.7 1.5-.7 2.6v1.7h2.6v1.9h-2.6v6.6h-1.9v-6.6h-1.5zm12.1-8.6c.1.1.2.3.4.6s.5.7.8 1.2c.3.5.7 1 1.1 1.6s.8 1.2 1.3 1.8c.4.6.9 1.2 1.3 1.7.4.6.8 1.1 1.1 1.5s.6.9.9 1.2c.2.3.4.5.4.6 0 0 .1-.2.4-.5.2-.3.5-.7.8-1.1s.7-1 1.1-1.5c.4-.6.8-1.2 1.3-1.8l1.3-1.8c.4-.6.8-1.1 1.2-1.6.4-.5.7-.9.9-1.2s.4-.5.5-.6v15.2h-2.6v-7.9l-4.8 6.9-.5-.7c-.3-.4-.6-.8-.9-1.3-.4-.5-.7-1-1.1-1.6-.4-.6-.8-1.1-1.1-1.6-.4-.5-.7-.9-.9-1.2-.2-.3-.4-.5-.4-.6v7.9h-2.5v-15.2zm24.6 14.3c-.4.4-.9.7-1.5.9-.6.2-1.2.3-1.8.3-.6 0-1.2-.1-1.8-.3-.6-.2-1-.6-1.4-1-.4-.4-.7-.9-1-1.4-.2-.5-.4-1.1-.4-1.7s.1-1.2.4-1.7c.2-.5.6-1 1-1.4.4-.4.9-.7 1.4-1 .5-.2 1.1-.3 1.7-.3 1 0 1.8.3 2.5.9s1.2 1.3 1.5 2.3c-.4.1-.9.3-1.4.5-.5.2-1.1.4-1.7.6l-1.7.7c-.6.2-1.1.4-1.6.6.2.4.5.7.9 1 .4.3.9.4 1.4.4.3 0 .7-.1 1-.2.4-.1.6-.3.9-.5l1.6 1.3zm-1.7-5c-.2-.3-.4-.5-.7-.6-.3-.1-.6-.2-.9-.2-.4 0-.7.1-1 .2-.3.1-.6.3-.8.6s-.4.5-.5.8c-.1.3-.2.6-.2.9v.1c.3-.1.7-.3 1.1-.4.4-.2.8-.3 1.1-.5s.7-.3 1.1-.5.5-.3.8-.4zm8.6-.3c-.4 0-.7 0-1.1.1-.3.1-.6.2-.9.4-.3.2-.5.4-.6.7-.2.3-.2.6-.2 1v3.9h-1.9v-8.5h1.7c0 .5.1.9.1 1.2 0 .3.1.6.1 1 .2-.4.4-.7.7-1l.9-.8c.3-.2.6-.4.9-.5s.6-.2.8-.2l-.5 2.7zm7.2 4c.2.3.4.5.6.7l.6.7c-.4.3-.8.5-1.3.7-.5.2-1 .3-1.5.3-.6 0-1.2-.1-1.8-.3-.6-.2-1-.6-1.4-1-.4-.4-.7-.9-1-1.4-.2-.5-.4-1.1-.4-1.7s.1-1.2.4-1.7.6-1 1-1.4c.4-.4.9-.7 1.4-1 .6-.2 1.1-.4 1.8-.4.6 0 1.1.1 1.6.3s.9.4 1.3.7l-1.2 1.4c-.5-.4-1-.5-1.7-.5-.4 0-.7.1-1.1.2-.3.1-.6.3-.8.5-.2.2-.4.5-.5.8s-.2.7-.2 1c0 .4.1.7.2 1s.3.6.5.8c.2.2.5.4.8.6.3.1.7.2 1.1.2.6.1 1.2-.1 1.6-.5zm10.9 2.5h-1.6l-.2-2.4c-.3.7-.7 1.2-1.3 1.7-.5.4-1.2.7-2.1.7-.9 0-1.6-.2-2.1-.7s-.8-1.1-.8-1.8v-6.2h1.9v5.3c0 .4.2.8.4 1.1.3.3.7.4 1.2.5.4 0 .7-.1 1.1-.2.3-.1.6-.3.8-.6.2-.2.4-.5.6-.9.1-.3.2-.7.2-1.1v-4.1h1.9v8.7zm7.2-6.5c-.4 0-.7 0-1.1.1-.3.1-.6.2-.9.4-.3.2-.5.4-.6.7-.2.3-.2.6-.2 1v3.9h-1.9v-8.5h1.7c0 .5.1.9.1 1.2 0 .3.1.6.1 1 .2-.4.4-.7.7-1l.9-.8c.3-.2.6-.4.9-.5s.6-.2.8-.2l-.5 2.7zm4.1 10.3h-1.9l.6-1.2.5-1.1c.2-.4.4-.8.5-1.2.2-.4.4-.8.6-1.3-.3-.6-.6-1.2-.9-1.9l-1-2c-.3-.7-.7-1.4-1-2-.3-.7-.6-1.3-.9-1.9h2.1c.5 1 .9 1.8 1.2 2.5l.8 1.7.5 1.1.3.8c.1-.2.2-.5.3-.8.1-.3.3-.7.5-1.1l.8-1.7c.3-.7.7-1.5 1.2-2.5h2.1l-6.3 12.6zm9.2-5.8l-1.8 4.2h-1.8l.8-2.1s.5-1.4.8-2.1h2zm7.5-12.8l3.9 9.4s0 .1.1.3c.1.2.1.3.1.5 0-.1.1-.3.1-.5.1-.2.1-.3.1-.3l3.9-9.4h2.4c-.1.1-.2.4-.4.9s-.4 1.1-.8 1.8c-.3.7-.6 1.5-1 2.3s-.7 1.7-1.1 2.6-.8 1.8-1.1 2.6c-.4.9-.7 1.7-1 2.3-.3.7-.6 1.3-.8 1.8-.2.5-.3.8-.4.9-.1-.1-.2-.4-.4-.9s-.5-1.1-.8-1.8c-.3-.7-.6-1.5-1-2.3l-1.1-2.6s-.8-1.8-1.1-2.6-.7-1.6-1-2.3-.5-1.3-.8-1.8c-.2-.5-.3-.8-.4-.9h2.6zm17 13.6c-.4.4-.9.7-1.5.9-.6.2-1.2.3-1.8.3-.6 0-1.2-.1-1.8-.3-.6-.2-1-.6-1.4-1-.4-.4-.7-.9-1-1.4-.2-.5-.4-1.1-.4-1.7s.1-1.2.4-1.7c.2-.5.6-1 1-1.4.4-.4.9-.7 1.4-1 .5-.2 1.1-.3 1.7-.3 1 0 1.8.3 2.5.9s1.2 1.3 1.5 2.3c-.4.1-.9.3-1.4.5l-1.6.6-1.7.7s-1.1.4-1.6.6c.2.4.5.7.9 1 .4.3.9.4 1.4.4.3 0 .7-.1 1-.2.4-.1.6-.3.9-.5l1.5 1.3zm-1.7-5c-.2-.3-.4-.5-.7-.6-.3-.1-.6-.2-.9-.2-.4 0-.7.1-1 .2-.3.1-.6.3-.8.6s-.4.5-.5.8-.2.6-.2.9v.1c.3-.1.7-.3 1.1-.4s.8-.3 1.1-.5l1.1-.5c.2-.2.6-.3.8-.4zm3.9-2.5h1.7c0 .5.1.9.1 1.2 0 .3.1.6.1 1 .3-.7.7-1.3 1.3-1.7.6-.4 1.3-.7 2.1-.7.9 0 1.6.2 2.1.7.5.5.8 1.1.8 1.8v6.2h-1.9v-5.3c0-.4-.2-.8-.4-1.1-.3-.3-.7-.5-1.2-.5-.4 0-.7.1-1.1.2s-.6.3-.8.6c-.2.2-.4.5-.5.9-.1.3-.2.7-.2 1.1v4.1h-1.9v-8.5zm18.5 8.7h-1.6l-.2-2.4c-.3.7-.7 1.2-1.3 1.7-.5.4-1.2.7-2.1.7-.9 0-1.6-.2-2.1-.7s-.8-1.1-.8-1.8v-6.2h1.9v5.3c0 .4.2.8.4 1.1.3.3.7.4 1.2.5.4 0 .7-.1 1.1-.2.3-.1.6-.3.8-.6.2-.2.4-.5.6-.9.1-.3.2-.7.2-1.1v-4.1h1.9v8.7zm7.2-8l-.3.4s-.2.3-.3.4c-.1.1-.2.3-.4.5-.1-.1-.3-.2-.4-.2s-.3-.1-.4-.2l-.5-.1c-.2 0-.4 0-.6.1s-.3.3-.3.5.1.4.3.6.4.3.7.4c.3.1.5.3.9.4.3.1.6.3.9.5.3.2.5.4.7.8.2.3.3.7.3 1.1 0 .4-.1.7-.2 1.1-.1.3-.3.6-.6.8-.3.2-.6.4-.9.5-.4.1-.8.2-1.2.2-.5 0-1.1-.1-1.6-.3s-.9-.5-1.2-.8c.1-.1.2-.2.3-.4l.4-.5c.1-.1.3-.3.4-.5l.1.1c.1.1.2.1.4.2.1.1.3.2.5.2.2.1.4.1.6.1.3 0 .6-.1.8-.2.2-.1.3-.3.3-.5s-.1-.4-.3-.5c-.2-.1-.4-.3-.7-.4-.3-.1-.5-.2-.9-.4-.3-.1-.6-.3-.9-.5-.3-.2-.5-.5-.7-.8-.2-.3-.3-.7-.3-1.2s.1-.9.3-1.2c.2-.3.4-.6.7-.8.3-.2.6-.3.9-.4.3-.1.6-.1.9-.1.4 0 .8.1 1.3.2.3.4.7.6 1 .9zm4.7 6l-1.8 4.2h-1.8l.8-2.1s.5-1.4.8-2.1h2zm7.5 1.8v-14.6h9.7v2.2h-7.2v3.9h6.4v2.3h-6.4v3.9h7.5v2.3h-10zm11.1-4.2c0-.6.1-1.2.4-1.8.2-.6.6-1 1-1.5s.9-.7 1.4-1c.5-.2 1.1-.4 1.7-.4.4 0 .8.1 1.1.2.3.1.6.2.8.3.2.1.4.3.5.4l.3.3.1-1h1.9v8.5h-1.9v-.9c-.1.1-.1.2-.3.3-.1.1-.3.2-.5.4-.2.1-.5.2-.8.3-.3.1-.7.1-1.1.1-.7 0-1.3-.1-1.8-.4-.5-.2-1-.6-1.4-1-.4-.4-.7-.9-.9-1.4-.4-.3-.5-.8-.5-1.4zm2-.1c0 .4.1.7.2 1 .1.3.3.6.5.8.2.2.5.4.8.5.3.1.7.2 1.1.2s.7-.1 1.1-.2c.3-.1.6-.3.8-.6.2-.2.4-.5.5-.8.1-.3.2-.7.2-1s-.1-.7-.2-1-.3-.6-.5-.8c-.2-.2-.5-.4-.8-.5-.3-.1-.7-.2-1.1-.2s-.7.1-1.1.2c-.3.1-.6.3-.8.5-.2.2-.4.5-.5.8-.2.4-.2.7-.2 1.1zm14.3-2c-.4 0-.7 0-1.1.1-.3.1-.6.2-.9.4-.3.2-.5.4-.6.7-.2.3-.2.6-.2 1v3.9h-1.9v-8.5h1.7c0 .5.1.9.1 1.2s.1.6.1 1c.2-.4.4-.7.7-1l.9-.8c.3-.2.6-.4.9-.5.3-.1.6-.2.8-.2l-.5 2.7zm2.5-6h1.9v3.7h2.2v1.7h-2.2v6.8h-1.9v-6.8h-1.4v-1.7h1.4v-3.7zm5.5-3.4h1.9v9.2c.3-.7.7-1.2 1.2-1.6s1.2-.6 2.1-.6c.9 0 1.6.2 2.1.7.5.5.8 1.1.8 1.9v6.2h-1.9v-5.3c0-.4-.2-.8-.4-1.1-.3-.3-.7-.5-1.2-.5-.4 0-.7.1-1.1.2-.3.1-.6.3-.8.6-.2.2-.4.5-.5.9-.1.3-.2.7-.2 1.1v4.1h-1.9v-15.8zm14.5 11.5c0-.6.1-1.2.4-1.8.2-.6.6-1 1-1.5.4-.4.9-.7 1.4-1 .5-.2 1.1-.4 1.7-.4.4 0 .8.1 1.1.2.3.1.6.2.8.3l.6.4.3.3.1-1h1.9v8.5h-1.9v-.9c-.1.1-.1.2-.3.3s-.3.2-.5.4c-.2.1-.5.2-.8.3-.3.1-.7.1-1.1.1-.7 0-1.3-.1-1.8-.4-.5-.2-1-.6-1.4-1-.4-.4-.7-.9-.9-1.4-.5-.3-.6-.8-.6-1.4zm1.9-.1c0 .4.1.7.2 1 .1.3.3.6.5.8.2.2.5.4.8.5.3.1.7.2 1.1.2.4 0 .7-.1 1.1-.2.3-.1.6-.3.8-.6.2-.2.4-.5.5-.8.1-.3.2-.7.2-1s-.1-.7-.2-1c-.1-.3-.3-.6-.5-.8-.2-.2-.5-.4-.8-.5-.3-.1-.7-.2-1.1-.2-.4 0-.7.1-1.1.2-.3.1-.6.3-.8.5-.2.2-.4.5-.5.8-.1.4-.2.7-.2 1.1zm9.5-4.2h1.7c0 .5.1.9.1 1.2s.1.6.1 1c.3-.7.7-1.3 1.3-1.7.6-.4 1.3-.7 2.1-.7.9 0 1.6.2 2.1.7.5.5.8 1.1.8 1.8v6.2h-1.9v-5.3c0-.4-.2-.8-.4-1.1-.3-.3-.7-.5-1.2-.5-.4 0-.7.1-1.1.2s-.6.3-.8.6-.4.5-.5.9c-.1.3-.2.7-.2 1.1v4.1h-1.9v-8.5zm10 4.2c0-.7.1-1.3.3-1.8.2-.5.5-1 .9-1.4.4-.4.9-.7 1.4-.9.5-.2 1.1-.3 1.7-.3.4 0 .8 0 1.1.1.3.1.6.2.8.3l.6.4c.1.2.2.3.3.4v-8.2h1.9v15.6h-1.9v-1c-.1.1-.3.2-.4.4s-.4.3-.6.4c-.2.1-.5.2-.8.3-.3.1-.6.1-1 .1-.7 0-1.3-.1-1.8-.3-.5-.2-1-.6-1.4-1-.4-.4-.6-.9-.8-1.4-.3-.5-.3-1.1-.3-1.7zm1.9 0c0 .4.1.7.2 1s.3.6.5.8.5.4.8.5c.3.1.7.2 1.1.2s.7-.1 1.1-.2c.3-.1.6-.3.8-.6.2-.2.4-.5.5-.8.1-.3.2-.7.2-1s-.1-.7-.2-1c-.1-.3-.3-.6-.5-.8-.2-.2-.5-.4-.8-.5-.3-.1-.7-.2-1.1-.2s-.7.1-1.1.2c-.3.1-.6.3-.8.5s-.4.5-.5.8-.2.7-.2 1.1zm14.6-11c.1.1.2.3.4.6s.5.7.9 1.2c.3.5.7 1 1.1 1.6s.8 1.2 1.3 1.8c.4.6.9 1.2 1.3 1.7.4.6.8 1.1 1.1 1.5.3.5.6.9.8 1.2.2.3.4.5.4.6 0 0 .1-.2.4-.5.2-.3.5-.7.8-1.1s.7-1 1.1-1.5c.4-.6.8-1.2 1.3-1.8l1.3-1.8c.4-.6.8-1.1 1.2-1.6.4-.5.7-.9.9-1.2.2-.3.4-.5.5-.6v15.2h-2.6v-7.9l-4.8 6.9-.5-.7c-.3-.4-.6-.8-.9-1.3s-.7-1-1.1-1.6c-.4-.6-.8-1.1-1.1-1.6-.4-.5-.7-.9-.9-1.2s-.4-.5-.4-.6v7.9h-2.5v-15.2zm16.7 11.1c0-.6.1-1.2.4-1.8.2-.6.6-1 1-1.5.4-.4.9-.7 1.4-1 .5-.2 1.1-.4 1.7-.4.4 0 .8.1 1.1.2s.6.2.8.3c.2.1.4.3.5.4l.3.3.1-1h1.9v8.5h-1.9v-.9c-.1.1-.1.2-.3.3s-.3.2-.5.4c-.2.1-.5.2-.8.3-.3.1-.7.1-1.1.1-.7 0-1.3-.1-1.8-.4-.5-.2-1-.6-1.4-1-.4-.4-.7-.9-.9-1.4-.4-.3-.5-.8-.5-1.4zm1.9-.1c0 .4.1.7.2 1s.3.6.5.8.5.4.8.5c.3.1.7.2 1.1.2s.7-.1 1.1-.2c.3-.1.6-.3.8-.6.2-.2.4-.5.5-.8.1-.3.2-.7.2-1s-.1-.7-.2-1-.3-.6-.5-.8c-.2-.2-.5-.4-.8-.5-.3-.1-.7-.2-1.1-.2s-.7.1-1.1.2c-.3.1-.6.3-.8.5s-.4.5-.5.8-.2.7-.2 1.1zm14.3-2c-.4 0-.7 0-1.1.1-.3.1-.6.2-.9.4-.3.2-.5.4-.6.7-.2.3-.2.6-.2 1v3.9h-1.9v-8.5h1.7c0 .5.1.9.1 1.2 0 .3.1.6.1 1 .2-.4.4-.7.7-1l.9-.8c.3-.2.6-.4.9-.5s.6-.2.8-.2l-.5 2.7zm6.6-1.5l-.3.4s-.2.3-.3.4c-.1.1-.2.3-.4.5-.1-.1-.3-.2-.4-.2s-.3-.1-.4-.2l-.5-.1c-.2 0-.4 0-.6.1-.2.1-.3.3-.3.5s.1.4.3.6c.2.2.4.3.7.4.3.1.5.3.9.4.3.1.6.3.9.5.3.2.5.4.7.8.2.3.3.7.3 1.1 0 .4-.1.7-.2 1.1-.1.3-.3.6-.6.8-.3.2-.6.4-.9.5-.4.1-.8.2-1.2.2-.5 0-1.1-.1-1.6-.3-.5-.2-.9-.5-1.2-.8.1-.1.2-.2.3-.4l.4-.5c.1-.1.3-.3.4-.5l.1.1c.1.1.2.1.4.2.1.1.3.2.5.2.2.1.4.1.6.1.3 0 .6-.1.8-.2.2-.1.3-.3.3-.5s-.1-.4-.3-.5c-.2-.1-.4-.3-.7-.4-.3-.1-.5-.2-.9-.4-.3-.1-.6-.3-.9-.5s-.5-.5-.7-.8c-.2-.3-.3-.7-.3-1.2s.1-.9.3-1.2c.2-.3.4-.6.7-.8.3-.2.6-.3.9-.4.3-.1.6-.1.9-.1.4 0 .8.1 1.3.2s.7.6 1 .9zm2 6.5c0-.3.1-.6.4-.9s.5-.4.8-.4c.3 0 .6.1.8.4s.4.5.4.9-.1.7-.4.9-.5.3-.8.3c-.3 0-.6-.1-.8-.3s-.4-.5-.4-.9z"/></svg>