<svg xmlns="http://www.w3.org/2000/svg" width="500" height="543.7" viewBox="0 0 500 543.7"><style type="text/css">.st0{fill:#282830;} .st1{fill:#F7E06F;} .st2{fill:#D6F0FC;} .st3{fill:#FFEDCA;} .st4{fill:#FCC797;} .st5{fill:#F9F3D9;} .st6{fill:#F2F8F9;} .st7{fill:#F9480B;} .st8{fill:none;} .st9{fill:#FFFFFF;}</style><path class="st0" d="M0 0h500v543.7h-500zm0 0h500v543.7h-500z"/><path class="st6" d="M285.6 199.8c9.8 2.5 21.6 6.8 36.6 12.5-12.3-6.7-22.2-12.3-30-17.5 20.3-10 51.5-13.1 100.7-16.5-48.1-3.3-79-6.4-99.3-15.9 7.6-4.9 17.1-10.3 28.7-16.6-14.8 5.6-26.6 9.9-36.3 12.4-.1-.1-.2-.2-.4-.2 7.2-15.5 22.1-33.4 44.6-59.2-25.8 22.5-43.8 37.3-59.2 44.5 2.5-9.7 6.8-21.5 12.5-36.3-6.5 11.8-11.9 21.4-16.9 29.1-9.9-20.3-13.1-51.4-16.5-100.6-3.4 49-6.5 80.1-16.4 100.4-5-7.6-10.3-17.2-16.7-28.9 5.7 14.9 9.9 26.6 12.5 36.4v.1c-15.5-7.2-33.5-22.1-59.4-44.6 22.5 25.8 37.3 43.8 44.6 59.2l-.3.2c-9.7-2.5-21.4-6.8-36.1-12.4 11.5 6.3 21 11.6 28.6 16.5-20.3 9.5-51.2 12.6-99.4 15.9 49.3 3.4 80.5 6.6 100.8 16.6-7.8 5.2-17.7 10.7-30 17.5 14.9-5.7 26.6-9.9 36.4-12.5-7.2 15.4-22.1 33.4-44.5 59.2 26-22.6 44-37.5 59.6-44.7-2.5 9.8-6.8 21.7-12.6 36.8 6.6-12 12.1-21.8 17.2-29.5 9.5 20.3 12.6 51.2 16 99.5 3.3-48.4 6.4-79.4 16-99.7 5.1 7.8 10.7 17.6 17.3 29.7-5.7-15-10-26.9-12.6-36.7 15.5 7.2 33.5 22.1 59.3 44.6-22.8-25.8-37.6-43.8-44.8-59.3z"/><path class="st8" d="M0 336.8h500v206.9h-500z"/><path class="st9" d="M226.8 340.5l-1.8 4c-1.1-.4-2.2-.7-3.3-1-1.1-.2-2.1-.4-3-.4-1.6 0-2.9.3-3.9 1-.9.6-1.4 1.5-1.4 2.4 0 .9.4 1.5 1.1 2.1.7.5 1.6 1 2.7 1.4 1.1.4 2.2.9 3.5 1.3 1.2.4 2.4 1 3.5 1.7s2 1.6 2.7 2.6c.7 1.1 1.1 2.4 1.1 4.1 0 1.3-.2 2.4-.7 3.5-.5 1-1.2 1.9-2.1 2.7-.9.7-2.1 1.3-3.5 1.7-1.4.4-3.1.6-5 .6-1.2 0-2.2-.1-3.2-.2s-1.8-.4-2.6-.6c-.8-.2-1.4-.5-2-.8-.6-.3-1.1-.6-1.5-.8l2.1-4.3c1.1.6 2.3 1.1 3.6 1.4 1.3.3 2.4.5 3.4.5.5 0 1.1-.1 1.9-.2.8-.1 1.5-.3 2.2-.6.7-.3 1.3-.7 1.9-1.2.5-.5.8-1.2.8-2 0-.9-.4-1.7-1.1-2.3-.7-.6-1.6-1.1-2.7-1.6s-2.2-.9-3.5-1.4c-1.2-.5-2.4-1-3.5-1.6-1.1-.6-2-1.4-2.7-2.3s-1.1-2.1-1.1-3.5c0-1 .2-2 .6-3 .4-1 1-1.8 1.8-2.6s1.8-1.4 3-1.9 2.6-.7 4.3-.7c1 0 2 .1 3 .3 1 .2 1.8.4 2.6.6.8.2 1.4.4 1.9.6.5.4.8.5.9.5zm3.9 4c0-.7.3-1.3.8-1.7.5-.5 1.1-.7 1.6-.7.6 0 1.1.2 1.6.7.5.5.7 1 .7 1.7s-.2 1.3-.7 1.7c-.5.4-1 .7-1.6.7-.6 0-1.1-.2-1.6-.7-.5-.4-.8-1-.8-1.7zm4.3 23.6h-3.8v-17h3.8v17zm14.3-12.5c-.7 0-1.5.1-2.1.3-.7.2-1.3.5-1.8.9s-.9.9-1.3 1.4c-.3.6-.5 1.2-.5 2v7.9h-3.8v-17h3.4c.1 1 .1 1.7.2 2.3.1.6.1 1.3.2 2 .3-.7.8-1.4 1.4-2 .6-.6 1.2-1.1 1.8-1.5.6-.4 1.2-.7 1.9-1 .6-.2 1.1-.3 1.6-.3l-1 5zm3-11.1c0-.7.3-1.3.8-1.7.5-.5 1.1-.7 1.6-.7.6 0 1.1.2 1.6.7.5.5.7 1 .7 1.7s-.2 1.3-.7 1.7c-.5.4-1 .7-1.6.7-.6 0-1.1-.2-1.6-.7-.6-.4-.8-1-.8-1.7zm4.2 23.6h-3.8v-17h3.8v17zm20.9.4h-3.2l-.5-4.7c-.6 1.4-1.5 2.5-2.5 3.4-1.1.9-2.5 1.3-4.3 1.3-1.8 0-3.2-.5-4.2-1.4-1-.9-1.6-2.1-1.6-3.7v-12.4h3.8v10.6c.1.8.3 1.5.9 2.1.5.6 1.4.9 2.5.9.8 0 1.5-.1 2.1-.4s1.2-.6 1.7-1.1c.5-.5.8-1.1 1.1-1.7.3-.7.4-1.4.4-2.2v-8.2h3.8v17.5zm14.4-15.9c-.2.2-.4.5-.6.8-.2.3-.4.6-.7.9s-.5.6-.8 1c-.3-.2-.5-.3-.8-.4-.3-.1-.5-.2-.9-.3-.3-.1-.7-.1-1-.1-.4 0-.8.1-1.2.3-.4.2-.6.5-.6 1.1 0 .5.2.8.5 1.1.4.3.8.6 1.3.8s1.1.5 1.7.8c.6.3 1.2.6 1.7 1s1 .9 1.3 1.5c.4.6.5 1.3.5 2.2 0 .8-.1 1.5-.4 2.1-.3.6-.7 1.2-1.2 1.6-.5.5-1.1.8-1.9 1.1-.7.3-1.5.4-2.4.4-1.1 0-2.2-.2-3.2-.6-1-.4-1.8-.9-2.4-1.6.2-.2.4-.5.7-.8l.8-.9c.2-.3.5-.6.9-1 0 0 .1 0 .3.1s.4.3.7.4c.3.2.6.3 1 .4.4.1.8.2 1.2.2.7 0 1.2-.1 1.5-.4.4-.3.5-.7.5-1.1 0-.4-.2-.8-.5-1-.4-.3-.8-.5-1.3-.7-.5-.2-1.1-.5-1.7-.7-.6-.3-1.2-.6-1.7-1s-1-.9-1.3-1.5c-.4-.6-.5-1.4-.5-2.4s.2-1.8.5-2.4c.3-.6.8-1.2 1.3-1.6.5-.4 1.1-.7 1.8-.9.6-.2 1.3-.3 1.9-.3.8 0 1.7.2 2.6.5 1.1.3 1.8.8 2.4 1.4zm-230.9 30.9v2.3h-3.6v12.2h-2.5v-12.2h-3.5v-2.3h9.6zm1.8-1.1h1.9v9.2c.3-.7.7-1.2 1.2-1.6.5-.4 1.2-.6 2.1-.6.9 0 1.6.2 2.1.7.5.5.8 1.1.8 1.9v6.2h-1.9v-5.3c0-.4-.2-.8-.4-1.1-.3-.3-.7-.5-1.2-.5-.4 0-.7.1-1.1.2-.3.1-.6.3-.8.6-.2.2-.4.5-.5.9-.1.3-.2.7-.2 1.1v4.1h-1.9v-15.8zm17.7 14.7c-.4.4-.9.7-1.5.9-.6.2-1.2.3-1.8.3-.6 0-1.2-.1-1.8-.4-.6-.2-1-.6-1.4-1-.4-.4-.7-.9-1-1.4-.2-.5-.4-1.1-.4-1.7 0-.6.1-1.2.4-1.7.2-.5.6-1 1-1.4.4-.4.9-.7 1.4-1 .5-.2 1.1-.4 1.7-.4 1 0 1.8.3 2.5.9s1.2 1.3 1.6 2.3c-.4.1-.9.3-1.4.5l-1.6.6-1.7.7s-1.1.4-1.6.6c.2.4.5.7.9 1 .4.3.9.4 1.4.4.3 0 .7-.1 1-.2.4-.1.6-.3.9-.5l1.4 1.5zm-1.6-5c-.2-.3-.4-.5-.7-.6-.3-.1-.6-.2-.9-.2-.4 0-.7.1-1 .2-.3.1-.6.3-.8.6s-.4.5-.5.8-.2.6-.2.9v.1c.3-.1.7-.3 1.1-.4s.8-.3 1.1-.5c.4-.2.7-.3 1.1-.4.2-.3.5-.4.8-.5zm13.2-1.8l-.3.4c-.1.2-.2.3-.3.4-.1.1-.2.3-.4.5-.1-.1-.3-.2-.4-.2-.1-.1-.3-.1-.4-.1l-.5-.1c-.2 0-.4 0-.6.1-.2.1-.3.3-.3.5s.1.4.3.6c.2.2.4.3.7.4.3.1.5.3.9.4s.6.3.9.5c.3.2.5.4.7.8.2.3.3.7.3 1.1 0 .4-.1.7-.2 1.1-.1.3-.3.6-.6.8-.3.2-.6.4-.9.5-.4.1-.8.2-1.2.2-.5 0-1.1-.1-1.6-.3-.5-.2-.9-.5-1.2-.8.1-.1.2-.2.3-.4l.4-.5c.1-.1.3-.3.4-.5l.1.1c.1.1.2.1.4.2.1.1.3.2.5.2.2.1.4.1.6.1.3 0 .6-.1.8-.2.2-.1.3-.3.3-.5s-.1-.4-.3-.5c-.2-.1-.4-.3-.7-.4-.3-.1-.5-.2-.9-.4-.3-.1-.6-.3-.9-.5-.3-.2-.5-.5-.7-.8-.2-.3-.3-.7-.3-1.2s.1-.9.3-1.2c.2-.3.4-.6.7-.8.3-.2.6-.3.9-.4.3-.1.6-.1.9-.1.4 0 .8.1 1.3.2l1 .8zm9.5 6.8c-.4.4-.9.7-1.5.9-.6.2-1.2.3-1.8.3-.6 0-1.2-.1-1.8-.4-.6-.2-1-.6-1.4-1-.4-.4-.7-.9-1-1.4-.2-.5-.4-1.1-.4-1.7 0-.6.1-1.2.4-1.7.2-.5.6-1 1-1.4.4-.4.9-.7 1.4-1 .5-.2 1.1-.4 1.7-.4 1 0 1.8.3 2.5.9s1.2 1.3 1.6 2.3c-.4.1-.9.3-1.4.5l-1.6.6-1.7.7s-1.1.4-1.6.6c.2.4.5.7.9 1 .4.3.9.4 1.4.4.3 0 .7-.1 1-.2.4-.1.6-.3.9-.5l1.4 1.5zm-1.7-5c-.2-.3-.4-.5-.7-.6-.3-.1-.6-.2-.9-.2-.4 0-.7.1-1 .2-.3.1-.6.3-.8.6s-.4.5-.5.8-.2.6-.2.9v.1c.3-.1.7-.3 1.1-.4s.8-.3 1.1-.5c.4-.2.7-.3 1.1-.4.2-.3.5-.4.8-.5zm9.5 3.7c.2.3.4.5.6.7l.6.7c-.4.3-.8.5-1.3.7-.5.2-1 .3-1.5.3-.6 0-1.2-.1-1.8-.4-.6-.2-1-.6-1.4-1-.4-.4-.7-.9-1-1.4-.2-.5-.4-1.1-.4-1.7s.1-1.2.4-1.7c.2-.5.6-1 1-1.4.4-.4.9-.7 1.4-1 .6-.2 1.1-.4 1.8-.4.6 0 1.1.1 1.6.3.5.2.9.4 1.3.7l-1.2 1.4c-.5-.4-1-.5-1.7-.5-.4 0-.7.1-1.1.2-.3.1-.6.3-.8.5-.2.2-.4.5-.5.8-.1.3-.2.7-.2 1 0 .4.1.7.2 1 .1.3.3.6.5.8.2.2.5.4.8.6.3.1.7.2 1.1.2.6.2 1.2 0 1.6-.4zm2-2c0-.6.1-1.2.4-1.7.2-.5.6-1 1-1.4.4-.4.9-.7 1.5-1 .6-.2 1.1-.4 1.8-.4.6 0 1.2.1 1.8.4.5.2 1 .6 1.4 1 .4.4.7.9.9 1.4.2.5.3 1.1.3 1.7s-.1 1.2-.3 1.7c-.2.5-.5 1-.9 1.4s-.9.7-1.4 1c-.5.2-1.1.4-1.8.4-.6 0-1.2-.1-1.8-.3-.5-.2-1-.5-1.4-.9-.4-.4-.7-.9-1-1.4-.4-.6-.5-1.2-.5-1.9zm1.9 0c0 .4.1.7.2 1 .1.3.3.6.5.8.2.2.5.4.8.6s.6.2 1 .2.7-.1 1-.2.6-.3.8-.6c.2-.2.4-.5.6-.8.1-.3.2-.6.2-1s-.1-.7-.2-1c-.1-.3-.3-.6-.6-.8-.2-.2-.5-.4-.8-.6-.3-.1-.6-.2-1-.2s-.7.1-1 .2c-.3.1-.6.3-.8.6-.2.2-.4.5-.5.8-.1.3-.2.7-.2 1zm8.9-4.2h1.7c0 .5.1.9.1 1.2 0 .3.1.6.1 1 .3-.7.7-1.3 1.3-1.7s1.3-.7 2.1-.7c.9 0 1.6.2 2.1.7s.8 1.1.8 1.8v6.2h-1.9v-5.3c0-.4-.2-.8-.4-1.1-.3-.3-.7-.5-1.2-.5-.4 0-.7.1-1.1.2-.3.1-.6.3-.8.6-.2.2-.4.5-.5.9-.1.3-.2.7-.2 1.1v4.1h-1.9v-8.5zm10 4.2c0-.7.1-1.3.3-1.8.2-.5.5-1 .9-1.4.4-.4.9-.7 1.4-.9.5-.2 1.1-.3 1.7-.3.4 0 .8 0 1.1.1.3.1.6.2.8.3.2.1.4.3.5.4.1.2.2.3.3.4v-8.2h1.9v15.6h-1.9v-1c-.1.1-.3.2-.4.4l-.6.4c-.2.1-.5.2-.8.3-.3.1-.6.1-1 .1-.7 0-1.3-.1-1.8-.4-.5-.2-1-.6-1.4-1s-.6-.9-.8-1.4c-.1-.4-.2-1-.2-1.6zm1.9 0c0 .4.1.7.2 1 .1.3.3.6.5.8.2.2.5.4.8.6.3.1.7.2 1.1.2.4 0 .7-.1 1.1-.2s.6-.3.8-.6c.2-.2.4-.5.5-.8.1-.3.2-.7.2-1 0-.4-.1-.7-.2-1-.1-.3-.3-.6-.5-.8-.2-.2-.5-.4-.8-.5-.3-.1-.7-.2-1.1-.2-.4 0-.7.1-1.1.2-.3.1-.6.3-.8.5-.2.2-.4.5-.5.8-.2.3-.2.6-.2 1zm23.2 0c0 .6-.1 1.2-.3 1.8s-.5 1-.9 1.4c-.4.4-.9.7-1.4.9-.5.2-1.1.3-1.8.3s-1.2-.1-1.7-.4-.8-.5-1-.8v.9h-1.9v-15.6h1.9v8.2c.1-.1.2-.3.4-.4.2-.2.4-.3.6-.4.2-.1.5-.2.8-.3.3-.1.6-.1 1-.1.7 0 1.2.1 1.8.3.5.2 1 .5 1.4.9.4.4.7.9.9 1.4s.2 1.2.2 1.9zm-2.1 0c0-.7-.2-1.4-.7-1.9s-1-.7-1.8-.7c-.4 0-.7.1-1.1.2-.3.1-.6.3-.8.5-.2.2-.4.5-.6.8-.1.3-.2.6-.2 1s.1.7.2 1c.1.3.3.6.6.8.2.2.5.4.8.6.3.1.7.2 1.1.2.4 0 .7-.1 1-.2s.6-.3.8-.6c.2-.2.4-.5.5-.8.1-.2.2-.5.2-.9zm8.7-2c-.4 0-.7 0-1.1.1-.3.1-.6.2-.9.4-.3.2-.5.4-.6.7-.2.3-.2.6-.2 1v3.9h-2v-8.5h1.7c0 .5.1.9.1 1.2 0 .3.1.6.1 1 .2-.4.4-.7.7-1l.9-.8c.3-.2.6-.4.9-.5.3-.1.6-.2.8-.2l-.4 2.7zm1.5-5.5c0-.3.1-.6.4-.9.3-.2.5-.3.8-.3.3 0 .6.1.8.3.2.2.4.5.4.9s-.1.6-.4.9c-.2.2-.5.3-.8.3-.3 0-.6-.1-.8-.3-.3-.3-.4-.6-.4-.9zm2.1 11.8h-1.9v-8.5h1.9v8.5zm1.9-4.2c0-.6.1-1.2.3-1.8.2-.6.5-1 .9-1.4.4-.4.9-.7 1.4-.9.5-.2 1.1-.3 1.7-.3.5 0 .9.1 1.2.2l.9.4c.2.1.4.3.5.4l.2.2v-1h1.8v8.1c0 .7-.1 1.4-.3 1.9-.2.6-.5 1-.9 1.4-.4.4-.9.7-1.5.9-.6.2-1.2.3-1.9.3-.5 0-1-.1-1.4-.2-.4-.1-.7-.2-1.1-.4l-.9-.6-.8-.6 1.2-1.3 1.2.9c.4.2.9.4 1.6.4.8 0 1.5-.2 2-.6.5-.4.7-1 .7-1.7v-1l-.4.4c-.2.2-.4.3-.6.4-.2.1-.5.2-.8.3-.3.1-.7.1-1.1.1-.6 0-1.2-.1-1.8-.3s-1-.5-1.4-.9-.7-.9-.9-1.4.2-1.3.2-1.9zm1.9-.1c0 .4.1.7.2 1 .1.3.3.6.5.8.2.2.5.4.8.6.3.1.7.2 1.1.2.4 0 .7-.1 1.1-.2s.6-.3.8-.6c.2-.2.4-.5.5-.8.1-.3.2-.7.2-1 0-.4-.1-.7-.2-1-.1-.3-.3-.6-.5-.8-.2-.2-.5-.4-.8-.5-.3-.1-.7-.2-1.1-.2-.4 0-.7.1-1.1.2-.3.1-.6.3-.8.5-.2.2-.4.5-.5.8-.1.3-.2.6-.2 1zm9.5-11.4h1.9v9.2c.3-.7.7-1.2 1.2-1.6.5-.4 1.2-.6 2.1-.6.9 0 1.6.2 2.1.7.5.5.8 1.1.8 1.9v6.2h-1.8v-5.3c0-.4-.2-.8-.4-1.1-.3-.3-.7-.5-1.2-.5-.4 0-.7.1-1.1.2-.3.1-.6.3-.8.6-.2.2-.4.5-.5.9-.1.3-.2.7-.2 1.1v4.1h-1.9v-15.8zm11.3 3.4h1.9v3.7h2.2v1.7h-2.2v6.8h-1.9v-6.8h-1.4v-1.7h1.4v-3.7zm12.6 11.3c-.4.4-.9.7-1.5.9-.6.2-1.2.3-1.8.3-.6 0-1.2-.1-1.8-.4-.6-.2-1-.6-1.4-1-.4-.4-.7-.9-1-1.4-.2-.5-.4-1.1-.4-1.7 0-.6.1-1.2.4-1.7.2-.5.6-1 1-1.4.4-.4.9-.7 1.4-1 .5-.2 1.1-.4 1.7-.4 1 0 1.8.3 2.5.9s1.2 1.3 1.6 2.3c-.4.1-.9.3-1.4.5l-1.6.6-1.7.7s-1.1.4-1.6.6c.2.4.5.7.9 1 .4.3.9.4 1.4.4.3 0 .7-.1 1-.2.4-.1.6-.3.9-.5l1.4 1.5zm-1.6-5c-.2-.3-.4-.5-.7-.6-.3-.1-.6-.2-.9-.2-.4 0-.7.1-1 .2-.3.1-.6.3-.8.6s-.4.5-.5.8-.2.6-.2.9v.1c.3-.1.7-.3 1.1-.4s.8-.3 1.1-.5c.4-.2.7-.3 1.1-.4.2-.3.5-.4.8-.5zm8.7-1.8l-.3.4c-.1.2-.2.3-.3.4-.1.1-.2.3-.4.5-.1-.1-.3-.2-.4-.2-.1-.1-.3-.1-.4-.1l-.5-.1c-.2 0-.4 0-.6.1-.2.1-.3.3-.3.5s.1.4.3.6c.2.2.4.3.7.4.3.1.5.3.9.4s.6.3.9.5c.3.2.5.4.7.8.2.3.3.7.3 1.1 0 .4-.1.7-.2 1.1-.1.3-.3.6-.6.8-.3.2-.6.4-.9.5-.4.1-.8.2-1.2.2-.5 0-1.1-.1-1.6-.3-.5-.2-.9-.5-1.2-.8.1-.1.2-.2.3-.4l.4-.5c.1-.1.3-.3.4-.5l.1.1c.1.1.2.1.4.2.1.1.3.2.5.2.2.1.4.1.6.1.3 0 .6-.1.8-.2.2-.1.3-.3.3-.5s-.1-.4-.3-.5c-.2-.1-.4-.3-.7-.4-.3-.1-.5-.2-.9-.4-.3-.1-.6-.3-.9-.5-.3-.2-.5-.5-.7-.8-.2-.3-.3-.7-.3-1.2s.1-.9.3-1.2c.2-.3.4-.6.7-.8.3-.2.6-.3.9-.4.3-.1.6-.1.9-.1.4 0 .8.1 1.3.2l1 .8zm2.9-4.5h1.9v3.7h2.2v1.7h-2.2v6.8h-1.9v-6.8h-1.4v-1.7h1.4v-3.7zm14.6 4.5l-.3.4c-.1.2-.2.3-.3.4-.1.1-.2.3-.4.5-.1-.1-.3-.2-.4-.2-.1-.1-.3-.1-.4-.1l-.5-.1c-.2 0-.4 0-.6.1-.2.1-.3.3-.3.5s.1.4.3.6c.2.2.4.3.7.4.3.1.5.3.9.4s.6.3.9.5c.3.2.5.4.7.8.2.3.3.7.3 1.1 0 .4-.1.7-.2 1.1-.1.3-.3.6-.6.8-.3.2-.6.4-.9.5-.4.1-.8.2-1.2.2-.5 0-1.1-.1-1.6-.3-.5-.2-.9-.5-1.2-.8.1-.1.2-.2.3-.4l.4-.5c.1-.1.3-.3.4-.5l.1.1c.1.1.2.1.4.2.1.1.3.2.5.2.2.1.4.1.6.1.3 0 .6-.1.8-.2.2-.1.3-.3.3-.5s-.1-.4-.3-.5c-.2-.1-.4-.3-.7-.4-.3-.1-.5-.2-.9-.4-.3-.1-.6-.3-.9-.5-.3-.2-.5-.5-.7-.8-.2-.3-.3-.7-.3-1.2s.1-.9.3-1.2c.2-.3.4-.6.7-.8.3-.2.6-.3.9-.4.3-.1.6-.1.9-.1.4 0 .8.1 1.3.2l1 .8zm2.9-4.5h1.9v3.7h2.2v1.7h-2.2v6.8h-1.9v-6.8h-1.4v-1.7h1.4v-3.7zm4.8 8.1c0-.6.1-1.2.4-1.8.2-.6.6-1 1-1.4.4-.4.9-.7 1.4-1 .5-.2 1.1-.4 1.7-.4.4 0 .8.1 1.1.2.3.1.6.2.8.3l.6.4.3.3.1-1h1.9v8.5h-1.9v-.9c-.1.1-.1.2-.3.3s-.3.2-.5.4c-.2.1-.5.2-.8.3-.3.1-.7.1-1.1.1-.7 0-1.3-.1-1.8-.4-.5-.2-1-.6-1.4-1s-.7-.9-.9-1.4c-.4-.4-.6-.9-.6-1.5zm2-.1c0 .4.1.7.2 1 .1.3.3.6.5.8.2.2.5.4.8.6.3.1.7.2 1.1.2.4 0 .7-.1 1.1-.2.3-.1.6-.3.8-.6.2-.2.4-.5.5-.8.1-.3.2-.7.2-1 0-.4-.1-.7-.2-1-.1-.3-.3-.6-.5-.8-.2-.2-.5-.4-.8-.5-.3-.1-.7-.2-1.1-.2-.4 0-.7.1-1.1.2-.3.1-.6.3-.8.5-.2.2-.4.5-.5.8-.2.3-.2.6-.2 1zm14.3-2c-.4 0-.7 0-1.1.1-.3.1-.6.2-.9.4-.3.2-.5.4-.6.7-.2.3-.2.6-.2 1v3.9h-1.9v-8.5h1.7c0 .5.1.9.1 1.2 0 .3.1.6.1 1 .2-.4.4-.7.7-1l.9-.8c.3-.2.6-.4.9-.5.3-.1.6-.2.8-.2l-.5 2.7zm5.6-5.5c0-.3.1-.6.4-.9.3-.2.5-.3.8-.3.3 0 .6.1.8.3.2.2.4.5.4.9s-.1.6-.4.9c-.2.2-.5.3-.8.3-.3 0-.6-.1-.8-.3-.2-.3-.4-.6-.4-.9zm2.2 11.8h-1.9v-8.5h1.9v8.5zm2.3-8.5h1.7c0 .5.1.9.1 1.2 0 .3.1.6.1 1 .3-.7.7-1.3 1.3-1.7s1.3-.7 2.1-.7c.9 0 1.6.2 2.1.7s.8 1.1.8 1.8v6.2h-1.9v-5.3c0-.4-.2-.8-.4-1.1-.3-.3-.7-.5-1.2-.5-.4 0-.7.1-1.1.2-.3.1-.6.3-.8.6-.2.2-.4.5-.5.9-.1.3-.2.7-.2 1.1v4.1h-1.9v-8.5zm15.8-3.8h1.9v3.7h2.2v1.7h-2.2v6.8h-1.9v-6.8h-1.4v-1.7h1.4v-3.7zm5.6-3.4h1.9v9.2c.3-.7.7-1.2 1.2-1.6.5-.4 1.2-.6 2.1-.6.9 0 1.6.2 2.1.7.5.5.8 1.1.8 1.9v6.2h-1.9v-5.3c0-.4-.2-.8-.4-1.1-.3-.3-.7-.5-1.2-.5-.4 0-.7.1-1.1.2-.3.1-.6.3-.8.6-.2.2-.4.5-.5.9-.1.3-.2.7-.2 1.1v4.1h-1.9v-15.8zm17.7 14.7c-.4.4-.9.7-1.5.9-.6.2-1.2.3-1.8.3-.6 0-1.2-.1-1.8-.4-.6-.2-1-.6-1.4-1-.4-.4-.7-.9-1-1.4-.2-.5-.4-1.1-.4-1.7 0-.6.1-1.2.4-1.7.2-.5.6-1 1-1.4.4-.4.9-.7 1.4-1 .5-.2 1.1-.4 1.7-.4 1 0 1.8.3 2.5.9s1.2 1.3 1.6 2.3c-.4.1-.9.3-1.4.5l-1.6.6-1.7.7s-1.1.4-1.6.6c.2.4.5.7.9 1 .4.3.9.4 1.4.4.3 0 .7-.1 1-.2.4-.1.6-.3.9-.5l1.4 1.5zm-1.7-5c-.2-.3-.4-.5-.7-.6-.3-.1-.6-.2-.9-.2-.4 0-.7.1-1 .2-.3.1-.6.3-.8.6s-.4.5-.5.8-.2.6-.2.9v.1c.3-.1.7-.3 1.1-.4s.8-.3 1.1-.5c.4-.2.7-.3 1.1-.4.2-.3.5-.4.8-.5zm13.3-1.8l-.3.4c-.1.2-.2.3-.3.4-.1.1-.2.3-.4.5-.1-.1-.3-.2-.4-.2-.1-.1-.3-.1-.4-.1l-.5-.1c-.2 0-.4 0-.6.1-.2.1-.3.3-.3.5s.1.4.3.6c.2.2.4.3.7.4.3.1.5.3.9.4s.6.3.9.5c.3.2.5.4.7.8.2.3.3.7.3 1.1 0 .4-.1.7-.2 1.1-.1.3-.3.6-.6.8-.3.2-.6.4-.9.5-.4.1-.8.2-1.2.2-.5 0-1.1-.1-1.6-.3-.5-.2-.9-.5-1.2-.8.1-.1.2-.2.3-.4l.4-.5c.1-.1.3-.3.4-.5l.1.1c.1.1.2.1.4.2.1.1.3.2.5.2.2.1.4.1.6.1.3 0 .6-.1.8-.2.2-.1.3-.3.3-.5s-.1-.4-.3-.5c-.2-.1-.4-.3-.7-.4-.3-.1-.5-.2-.9-.4-.3-.1-.6-.3-.9-.5-.3-.2-.5-.5-.7-.8-.2-.3-.3-.7-.3-1.2s.1-.9.3-1.2c.2-.3.4-.6.7-.8.3-.2.6-.3.9-.4.3-.1.6-.1.9-.1.4 0 .8.1 1.3.2l1 .8zm8.3-.9l1.1 1.1c-.5.5-1 .9-1.4 1.4l-1.5 1.4 1.8 2.4 1.8 2.4h-2.2l-1.3-1.8c-.5-.6-.9-1.2-1.3-1.8l-1.1 1v2.6h-1.9v-15.6h1.9v10.8l2.1-2c.5-.6 1.2-1.3 2-1.9zm5.4 12.7h-1.9c.2-.4.4-.8.6-1.1l.5-1.1s.4-.8.5-1.2.4-.8.6-1.3c-.3-.6-.6-1.2-.9-1.9l-1-2c-.3-.7-.7-1.4-1-2-.3-.7-.6-1.3-.9-1.9h2.1c.5 1 .9 1.8 1.2 2.5l.8 1.7.5 1.1.3.8c.1-.2.2-.5.3-.8.1-.3.3-.7.5-1.1l.8-1.7c.3-.7.7-1.5 1.2-2.5h2.1l-6.3 12.5zm11-8.2c0-.6.1-1.2.4-1.8.2-.6.6-1 1-1.4.4-.4.9-.7 1.4-1 .5-.2 1.1-.4 1.7-.4.4 0 .8.1 1.1.2.3.1.6.2.8.3l.6.4.3.3.1-1h1.9v8.5h-1.9v-.9c-.1.1-.1.2-.3.3s-.3.2-.5.4c-.2.1-.5.2-.8.3-.3.1-.7.1-1.1.1-.7 0-1.3-.1-1.8-.4-.5-.2-1-.6-1.4-1s-.7-.9-.9-1.4c-.5-.4-.6-.9-.6-1.5zm1.9-.1c0 .4.1.7.2 1 .1.3.3.6.5.8.2.2.5.4.8.6.3.1.7.2 1.1.2.4 0 .7-.1 1.1-.2.3-.1.6-.3.8-.6.2-.2.4-.5.5-.8.1-.3.2-.7.2-1 0-.4-.1-.7-.2-1-.1-.3-.3-.6-.5-.8-.2-.2-.5-.4-.8-.5-.3-.1-.7-.2-1.1-.2-.4 0-.7.1-1.1.2-.3.1-.6.3-.8.5-.2.2-.4.5-.5.8-.1.3-.2.6-.2 1zm8.9-2.4v-1.9h1.5v-1.8c0-1.8.4-3.1 1.2-4 .8-.8 2-1.3 3.6-1.4v1.8c-1 .1-1.8.4-2.2 1-.5.6-.7 1.5-.7 2.6v1.7h2.6v1.9h-2.6v6.6h-1.9v-6.6h-1.5zm8.2-5.6h1.9v3.7h2.2v1.7h-2.2v6.8h-1.9v-6.8h-1.4v-1.7h1.4v-3.7zm12.7 11.3c-.4.4-.9.7-1.5.9-.6.2-1.2.3-1.8.3-.6 0-1.2-.1-1.8-.4-.6-.2-1-.6-1.4-1-.4-.4-.7-.9-1-1.4-.2-.5-.4-1.1-.4-1.7 0-.6.1-1.2.4-1.7.2-.5.6-1 1-1.4.4-.4.9-.7 1.4-1 .5-.2 1.1-.4 1.7-.4 1 0 1.8.3 2.5.9s1.2 1.3 1.6 2.3c-.4.1-.9.3-1.4.5l-1.6.6-1.7.7s-1.1.4-1.6.6c.2.4.5.7.9 1 .4.3.9.4 1.4.4.3 0 .7-.1 1-.2.4-.1.6-.3.9-.5l1.4 1.5zm-1.7-5c-.2-.3-.4-.5-.7-.6-.3-.1-.6-.2-.9-.2-.4 0-.7.1-1 .2-.3.1-.6.3-.8.6s-.4.5-.5.8-.2.6-.2.9v.1c.3-.1.7-.3 1.1-.4s.8-.3 1.1-.5c.4-.2.7-.3 1.1-.4.2-.3.5-.4.8-.5zm8.6-.3c-.4 0-.7 0-1.1.1-.3.1-.6.2-.9.4-.3.2-.5.4-.6.7-.2.3-.2.6-.2 1v3.9h-1.9v-8.5h1.7c0 .5.1.9.1 1.2 0 .3.1.6.1 1 .2-.4.4-.7.7-1l.9-.8c.3-.2.6-.4.9-.5.3-.1.6-.2.8-.2l-.5 2.7zm6.7-6h1.9v3.7h2.2v1.7h-2.2v6.8h-1.9v-6.8h-1.4v-1.7h1.4v-3.7zm5.5-3.4h1.9v9.2c.3-.7.7-1.2 1.2-1.6.5-.4 1.2-.6 2.1-.6.9 0 1.6.2 2.1.7.5.5.8 1.1.8 1.9v6.2h-1.9v-5.3c0-.4-.2-.8-.4-1.1-.3-.3-.7-.5-1.2-.5-.4 0-.7.1-1.1.2-.3.1-.6.3-.8.6-.2.2-.4.5-.5.9-.1.3-.2.7-.2 1.1v4.1h-1.9v-15.8zm17.8 14.7c-.4.4-.9.7-1.5.9-.6.2-1.2.3-1.8.3-.6 0-1.2-.1-1.8-.4-.6-.2-1-.6-1.4-1-.4-.4-.7-.9-1-1.4-.2-.5-.4-1.1-.4-1.7 0-.6.1-1.2.4-1.7.2-.5.6-1 1-1.4.4-.4.9-.7 1.4-1 .5-.2 1.1-.4 1.7-.4 1 0 1.8.3 2.5.9s1.2 1.3 1.6 2.3c-.4.1-.9.3-1.4.5l-1.6.6-1.7.7s-1.1.4-1.6.6c.2.4.5.7.9 1 .4.3.9.4 1.4.4.3 0 .7-.1 1-.2.4-.1.6-.3.9-.5l1.4 1.5zm-1.7-5c-.2-.3-.4-.5-.7-.6-.3-.1-.6-.2-.9-.2-.4 0-.7.1-1 .2-.3.1-.6.3-.8.6s-.4.5-.5.8-.2.6-.2.9v.1c.3-.1.7-.3 1.1-.4s.8-.3 1.1-.5c.4-.2.7-.3 1.1-.4.2-.3.5-.4.8-.5zm17.5-7.8l-.9 2c-.6-.2-1.1-.4-1.7-.5-.5-.1-1.1-.2-1.5-.2-.8 0-1.5.2-1.9.5-.5.3-.7.7-.7 1.2 0 .4.2.8.5 1 .4.3.8.5 1.3.7s1.1.4 1.7.6c.6.2 1.2.5 1.7.9s1 .8 1.3 1.3c.4.5.5 1.2.5 2 0 .6-.1 1.2-.3 1.7-.2.5-.6 1-1.1 1.3-.5.4-1.1.7-1.8.9s-1.5.3-2.5.3c-.6 0-1.1 0-1.6-.1s-.9-.2-1.3-.3c-.4-.1-.7-.2-1-.4l-.8-.4 1.1-2.1c.6.3 1.2.5 1.8.7.6.2 1.2.2 1.7.2.2 0 .5 0 .9-.1s.8-.2 1.1-.3c.4-.1.7-.3.9-.6.3-.3.4-.6.4-1 0-.5-.2-.8-.5-1.1-.4-.3-.8-.6-1.3-.8s-1.1-.5-1.7-.7-1.2-.5-1.7-.8c-.5-.3-1-.7-1.3-1.2-.4-.5-.5-1-.5-1.8 0-.5.1-1 .3-1.5s.5-.9.9-1.3.9-.7 1.5-.9c.6-.2 1.3-.4 2.1-.4.5 0 1 0 1.5.1s.9.2 1.3.3c.4.1.7.2 1 .3.4.4.5.5.6.5zm10.3 14h-1.6l-.2-2.4c-.3.7-.7 1.2-1.3 1.7-.5.4-1.2.7-2.1.7s-1.6-.2-2.1-.7c-.5-.5-.8-1.1-.8-1.8v-6.2h1.9v5.3c0 .4.2.8.4 1.1.3.3.7.4 1.2.5.4 0 .7-.1 1.1-.2.3-.1.6-.3.8-.6.2-.2.4-.5.6-.9.1-.3.2-.7.2-1.1v-4.1h1.9v8.7zm2.3-8.7h1.7c0 .5.1.9.1 1.2 0 .3.1.6.1 1 .3-.7.7-1.3 1.3-1.7s1.3-.7 2.1-.7c.9 0 1.6.2 2.1.7s.8 1.1.8 1.8v6.2h-1.9v-5.3c0-.4-.2-.8-.4-1.1-.3-.3-.7-.5-1.2-.5-.4 0-.7.1-1.1.2-.3.1-.6.3-.8.6-.2.2-.4.5-.5.9-.1.3-.2.7-.2 1.1v4.1h-1.9v-8.5zm10.3 7.2c0-.3.1-.6.4-.9.3-.2.5-.4.8-.4.3 0 .6.1.8.4.3.2.4.5.4.9s-.1.7-.4.9c-.3.2-.5.3-.8.3-.3 0-.6-.1-.8-.3-.2-.2-.4-.5-.4-.9zm-373 16.7h2.5v14.6h-2.5v-14.6zm5.7 2.3h1.9v3.7h2.2v1.7h-2.2v6.8h-1.9v-6.8h-1.4v-1.7h1.4v-3.7zm9.5.5c0-.3.1-.6.4-.9.3-.2.5-.3.8-.3.3 0 .6.1.8.3.2.2.4.5.4.9s-.1.6-.4.9c-.2.2-.5.3-.8.3-.3 0-.6-.1-.8-.3-.2-.3-.4-.6-.4-.9zm2.2 11.8h-1.9v-8.5h1.9v8.5zm7.2-7.8l-.3.4c-.1.2-.2.3-.3.4-.1.1-.2.3-.4.5-.1-.1-.3-.2-.4-.2-.1-.1-.3-.1-.4-.1l-.5-.1c-.2 0-.4 0-.6.1-.2.1-.3.3-.3.5s.1.4.3.6c.2.2.4.3.7.4.3.1.5.3.9.4s.6.3.9.5c.3.2.5.4.7.8.2.3.3.7.3 1.1 0 .4-.1.7-.2 1.1-.1.3-.3.6-.6.8-.3.2-.6.4-.9.5-.4.1-.8.2-1.2.2-.5 0-1.1-.1-1.6-.3-.5-.2-.9-.5-1.2-.8.1-.1.2-.2.3-.4l.4-.5c.1-.1.3-.3.4-.5l.1.1c.1.1.2.1.4.2.1.1.3.2.5.2.2.1.4.1.6.1.3 0 .6-.1.8-.2.2-.1.3-.3.3-.5s-.1-.4-.3-.5c-.2-.1-.4-.3-.7-.4-.3-.1-.5-.2-.9-.4-.3-.1-.6-.3-.9-.5-.3-.2-.5-.5-.7-.8-.2-.3-.3-.7-.3-1.2s.1-.9.3-1.2c.2-.3.4-.6.7-.8.3-.2.6-.3.9-.4.3-.1.6-.1.9-.1.4 0 .8.1 1.3.2l1 .8zm8.6 7.8h-1.9v-15.6h1.9v15.6zm1.8-4.3c0-.6.1-1.2.4-1.7.2-.5.6-1 1-1.4.4-.4.9-.7 1.5-1 .6-.2 1.1-.4 1.8-.4.6 0 1.2.1 1.8.4.5.2 1 .6 1.4 1 .4.4.7.9.9 1.4.2.5.3 1.1.3 1.7s-.1 1.2-.3 1.7c-.2.5-.5 1-.9 1.4s-.9.7-1.4 1c-.5.2-1.1.4-1.8.4-.6 0-1.2-.1-1.8-.3-.5-.2-1-.5-1.4-.9-.4-.4-.7-.9-1-1.4-.4-.6-.5-1.2-.5-1.9zm1.9 0c0 .4.1.7.2 1 .1.3.3.6.5.8.2.2.5.4.8.6s.6.2 1 .2.7-.1 1-.2.6-.3.8-.6c.2-.2.4-.5.6-.8.1-.3.2-.6.2-1s-.1-.7-.2-1c-.1-.3-.3-.6-.6-.8-.2-.2-.5-.4-.8-.6-.3-.1-.6-.2-1-.2s-.7.1-1 .2c-.3.1-.6.3-.8.6-.2.2-.4.5-.5.8-.1.3-.2.7-.2 1zm14.6 2c.2.3.4.5.6.7l.6.7c-.4.3-.8.5-1.3.7-.5.2-1 .3-1.5.3-.6 0-1.2-.1-1.8-.4-.6-.2-1-.6-1.4-1-.4-.4-.7-.9-1-1.4-.2-.5-.4-1.1-.4-1.7s.1-1.2.4-1.7c.2-.5.6-1 1-1.4.4-.4.9-.7 1.4-1 .6-.2 1.1-.4 1.8-.4.6 0 1.1.1 1.6.3.5.2.9.4 1.3.7l-1.2 1.4c-.5-.4-1-.5-1.7-.5-.4 0-.7.1-1.1.2-.3.1-.6.3-.8.5-.2.2-.4.5-.5.8-.1.3-.2.7-.2 1 0 .4.1.7.2 1 .1.3.3.6.5.8.2.2.5.4.8.6.3.1.7.2 1.1.2.6.2 1.2 0 1.6-.4zm2-1.9c0-.6.1-1.2.4-1.8.2-.6.6-1 1-1.4.4-.4.9-.7 1.4-1 .5-.2 1.1-.4 1.7-.4.4 0 .8.1 1.1.2.3.1.6.2.8.3l.6.4.3.3.1-1h1.9v8.5h-1.9v-.9c-.1.1-.1.2-.3.3s-.3.2-.5.4c-.2.1-.5.2-.8.3-.3.1-.7.1-1.1.1-.7 0-1.3-.1-1.8-.4-.5-.2-1-.6-1.4-1s-.7-.9-.9-1.4c-.5-.4-.6-.9-.6-1.5zm1.9-.1c0 .4.1.7.2 1 .1.3.3.6.5.8.2.2.5.4.8.6.3.1.7.2 1.1.2.4 0 .7-.1 1.1-.2.3-.1.6-.3.8-.6.2-.2.4-.5.5-.8.1-.3.2-.7.2-1 0-.4-.1-.7-.2-1-.1-.3-.3-.6-.5-.8-.2-.2-.5-.4-.8-.5-.3-.1-.7-.2-1.1-.2-.4 0-.7.1-1.1.2-.3.1-.6.3-.8.5-.2.2-.4.5-.5.8-.1.3-.2.6-.2 1zm10.4-8h1.9v3.7h2.2v1.7h-2.2v6.8h-1.9v-6.8h-1.4v-1.7h1.4v-3.7zm12.6 11.3c-.4.4-.9.7-1.5.9-.6.2-1.2.3-1.8.3-.6 0-1.2-.1-1.8-.4-.6-.2-1-.6-1.4-1-.4-.4-.7-.9-1-1.4-.2-.5-.4-1.1-.4-1.7 0-.6.1-1.2.4-1.7.2-.5.6-1 1-1.4.4-.4.9-.7 1.4-1 .5-.2 1.1-.4 1.7-.4 1 0 1.8.3 2.5.9s1.2 1.3 1.6 2.3c-.4.1-.9.3-1.4.5l-1.6.6-1.7.7s-1.1.4-1.6.6c.2.4.5.7.9 1 .4.3.9.4 1.4.4.3 0 .7-.1 1-.2.4-.1.6-.3.9-.5l1.4 1.5zm-1.6-5c-.2-.3-.4-.5-.7-.6-.3-.1-.6-.2-.9-.2-.4 0-.7.1-1 .2-.3.1-.6.3-.8.6s-.4.5-.5.8-.2.6-.2.9v.1c.3-.1.7-.3 1.1-.4s.8-.3 1.1-.5c.4-.2.7-.3 1.1-.4.2-.3.5-.4.8-.5zm3.3 1.7c0-.7.1-1.3.3-1.8.2-.5.5-1 .9-1.4.4-.4.9-.7 1.4-.9.5-.2 1.1-.3 1.7-.3.4 0 .8 0 1.1.1.3.1.6.2.8.3.2.1.4.3.5.4.1.2.2.3.3.4v-8.2h1.9v15.6h-1.9v-1c-.1.1-.3.2-.4.4l-.6.4c-.2.1-.5.2-.8.3-.3.1-.6.1-1 .1-.7 0-1.3-.1-1.8-.4-.5-.2-1-.6-1.4-1s-.6-.9-.8-1.4c-.1-.4-.2-1-.2-1.6zm1.9 0c0 .4.1.7.2 1 .1.3.3.6.5.8.2.2.5.4.8.6.3.1.7.2 1.1.2.4 0 .7-.1 1.1-.2s.6-.3.8-.6c.2-.2.4-.5.5-.8.1-.3.2-.7.2-1 0-.4-.1-.7-.2-1-.1-.3-.3-.6-.5-.8-.2-.2-.5-.4-.8-.5-.3-.1-.7-.2-1.1-.2-.4 0-.7.1-1.1.2-.3.1-.6.3-.8.5-.2.2-.4.5-.5.8-.1.3-.2.6-.2 1zm13.9-7.5c0-.3.1-.6.4-.9.3-.2.5-.3.8-.3.3 0 .6.1.8.3.2.2.4.5.4.9s-.1.6-.4.9c-.2.2-.5.3-.8.3-.3 0-.6-.1-.8-.3-.3-.3-.4-.6-.4-.9zm2.1 11.8h-1.9v-8.5h1.9v8.5zm2.4-8.5h1.7c0 .5.1.9.1 1.2 0 .3.1.6.1 1 .3-.7.7-1.3 1.3-1.7s1.3-.7 2.1-.7c.9 0 1.6.2 2.1.7s.8 1.1.8 1.8v6.2h-1.9v-5.3c0-.4-.2-.8-.4-1.1-.3-.3-.7-.5-1.2-.5-.4 0-.7.1-1.1.2-.3.1-.6.3-.8.6-.2.2-.4.5-.5.9-.1.3-.2.7-.2 1.1v4.1h-1.9v-8.5zm15.8-3.8h1.9v3.7h2.2v1.7h-2.2v6.8h-1.9v-6.8h-1.4v-1.7h1.4v-3.7zm5.5-3.4h1.9v9.2c.3-.7.7-1.2 1.2-1.6.5-.4 1.2-.6 2.1-.6.9 0 1.6.2 2.1.7.5.5.8 1.1.8 1.9v6.2h-1.8v-5.3c0-.4-.2-.8-.4-1.1-.3-.3-.7-.5-1.2-.5-.4 0-.7.1-1.1.2-.3.1-.6.3-.8.6-.2.2-.4.5-.5.9-.1.3-.2.7-.2 1.1v4.1h-1.9v-15.8zm17.8 14.7c-.4.4-.9.7-1.5.9-.6.2-1.2.3-1.8.3-.6 0-1.2-.1-1.8-.4-.6-.2-1-.6-1.4-1-.4-.4-.7-.9-1-1.4-.2-.5-.4-1.1-.4-1.7 0-.6.1-1.2.4-1.7.2-.5.6-1 1-1.4.4-.4.9-.7 1.4-1 .5-.2 1.1-.4 1.7-.4 1 0 1.8.3 2.5.9s1.2 1.3 1.6 2.3c-.4.1-.9.3-1.4.5l-1.6.6-1.7.7s-1.1.4-1.6.6c.2.4.5.7.9 1 .4.3.9.4 1.4.4.3 0 .7-.1 1-.2.4-.1.6-.3.9-.5l1.4 1.5zm-1.7-5c-.2-.3-.4-.5-.7-.6-.3-.1-.6-.2-.9-.2-.4 0-.7.1-1 .2-.3.1-.6.3-.8.6s-.4.5-.5.8-.2.6-.2.9v.1c.3-.1.7-.3 1.1-.4s.8-.3 1.1-.5c.4-.2.7-.3 1.1-.4.2-.3.5-.4.8-.5zm19.9 4.9c-.2.1-.4.2-.7.4-.3.1-.6.3-1 .4-.4.1-.8.2-1.3.3-.5.1-1 .1-1.6.1-1.1 0-2.2-.2-3.1-.6-.9-.4-1.7-.9-2.3-1.6-.6-.7-1.1-1.4-1.4-2.3-.3-.9-.5-1.8-.5-2.8 0-1.1.2-2.1.6-3 .4-.9.9-1.7 1.6-2.4.7-.7 1.5-1.2 2.4-1.6.9-.4 1.9-.6 2.9-.6.4 0 .8 0 1.2.1s.8.1 1.2.2c.4.1.7.2.9.3s.5.2.6.4l-.3.5c-.1.1-.1.2-.2.4-.1.1-.2.3-.2.4-.1.2-.2.4-.4.7l-.6-.3-.7-.2c-.2 0-.5-.1-.8-.1h-.7c-.7 0-1.4.1-2.1.4s-1.2.6-1.6 1.1-.8 1-1.1 1.6c-.3.6-.4 1.2-.4 1.9 0 .6.1 1.3.4 1.9.2.6.6 1.1 1 1.6s1 .8 1.6 1.1c.6.3 1.3.4 2 .4.4 0 .8 0 1.2-.1.4-.1.8-.2 1.1-.3.3-.1.6-.2.8-.3.2-.1.3-.2.3-.2l1.2 2.2zm.6-3.1c0-.6.1-1.2.4-1.8.2-.6.6-1 1-1.4.4-.4.9-.7 1.4-1 .5-.2 1.1-.4 1.7-.4.4 0 .8.1 1.1.2.3.1.6.2.8.3l.6.4.3.3.1-1h1.9v8.5h-1.9v-.9c-.1.1-.1.2-.3.3s-.3.2-.5.4c-.2.1-.5.2-.8.3-.3.1-.7.1-1.1.1-.7 0-1.3-.1-1.8-.4-.5-.2-1-.6-1.4-1s-.7-.9-.9-1.4c-.5-.4-.6-.9-.6-1.5zm2-.1c0 .4.1.7.2 1 .1.3.3.6.5.8.2.2.5.4.8.6.3.1.7.2 1.1.2.4 0 .7-.1 1.1-.2.3-.1.6-.3.8-.6.2-.2.4-.5.5-.8.1-.3.2-.7.2-1 0-.4-.1-.7-.2-1-.1-.3-.3-.6-.5-.8-.2-.2-.5-.4-.8-.5-.3-.1-.7-.2-1.1-.2-.4 0-.7.1-1.1.2-.3.1-.6.3-.8.5-.2.2-.4.5-.5.8-.2.3-.2.6-.2 1zm9.5-4.2h1.7c0 .5.1.9.1 1.2 0 .3.1.6.1 1 .3-.7.7-1.3 1.3-1.7s1.3-.7 2.1-.7c.9 0 1.6.2 2.1.7s.8 1.1.8 1.8v6.2h-2v-5.3c0-.4-.2-.8-.4-1.1-.3-.3-.7-.5-1.2-.5-.4 0-.7.1-1.1.2-.3.1-.6.3-.8.6-.2.2-.4.5-.5.9-.1.3-.2.7-.2 1.1v4.1h-1.9v-8.5zm10.2-3.3c0-.3.1-.6.4-.9.3-.2.5-.3.8-.3.3 0 .6.1.8.3.2.2.4.5.4.9s-.1.6-.4.9c-.2.2-.5.3-.8.3-.3 0-.6-.1-.8-.3-.3-.3-.4-.6-.4-.9zm2.2 11.8h-1.9v-8.5h1.9v8.5zm7.2-7.8l-.3.4c-.1.2-.2.3-.3.4-.1.1-.2.3-.4.5-.1-.1-.3-.2-.4-.2-.1-.1-.3-.1-.4-.1l-.5-.1c-.2 0-.4 0-.6.1-.2.1-.3.3-.3.5s.1.4.3.6c.2.2.4.3.7.4.3.1.5.3.9.4s.6.3.9.5c.3.2.5.4.7.8.2.3.3.7.3 1.1 0 .4-.1.7-.2 1.1-.1.3-.3.6-.6.8-.3.2-.6.4-.9.5-.4.1-.8.2-1.2.2-.5 0-1.1-.1-1.6-.3-.5-.2-.9-.5-1.2-.8.1-.1.2-.2.3-.4l.4-.5c.1-.1.3-.3.4-.5l.1.1c.1.1.2.1.4.2.1.1.3.2.5.2.2.1.4.1.6.1.3 0 .6-.1.8-.2.2-.1.3-.3.3-.5s-.1-.4-.3-.5c-.2-.1-.4-.3-.7-.4-.3-.1-.5-.2-.9-.4-.3-.1-.6-.3-.9-.5-.3-.2-.5-.5-.7-.8-.2-.3-.3-.7-.3-1.2s.1-.9.3-1.2c.2-.3.4-.6.7-.8.3-.2.6-.3.9-.4.3-.1.6-.1.9-.1.4 0 .8.1 1.3.2l1 .8zm7.2-7.5c.1.1.2.3.4.6s.5.7.9 1.2c.3.5.7 1 1.1 1.6s.8 1.2 1.3 1.8c.4.6.9 1.2 1.3 1.7.4.6.8 1.1 1.1 1.6.3.5.6.9.9 1.2s.4.5.4.6c0 0 .1-.2.4-.5.2-.3.5-.7.8-1.1.3-.5.7-1 1.1-1.5s.8-1.2 1.3-1.8.9-1.2 1.3-1.8c.4-.6.8-1.1 1.2-1.6.4-.5.7-.9.9-1.2.2-.3.4-.5.5-.6v15.2h-2.6v-7.9l-4.9 6.7-.5-.7c-.3-.4-.6-.8-.9-1.3-.4-.5-.7-1-1.1-1.6s-.8-1.1-1.1-1.6c-.4-.5-.7-.9-.9-1.2-.2-.3-.4-.5-.4-.6v7.9h-2.5v-15.1zm16.7 11.1c0-.6.1-1.2.4-1.8.2-.6.6-1 1-1.4.4-.4.9-.7 1.4-1 .5-.2 1.1-.4 1.7-.4.4 0 .8.1 1.1.2.3.1.6.2.8.3l.6.4.3.3.1-1h1.9v8.5h-1.9v-.9c-.1.1-.1.2-.3.3s-.3.2-.5.4c-.2.1-.5.2-.8.3-.3.1-.7.1-1.1.1-.7 0-1.3-.1-1.8-.4-.5-.2-1-.6-1.4-1s-.7-.9-.9-1.4c-.5-.4-.6-.9-.6-1.5zm1.9-.1c0 .4.1.7.2 1 .1.3.3.6.5.8.2.2.5.4.8.6.3.1.7.2 1.1.2.4 0 .7-.1 1.1-.2.3-.1.6-.3.8-.6.2-.2.4-.5.5-.8.1-.3.2-.7.2-1 0-.4-.1-.7-.2-1-.1-.3-.3-.6-.5-.8-.2-.2-.5-.4-.8-.5-.3-.1-.7-.2-1.1-.2-.4 0-.7.1-1.1.2-.3.1-.6.3-.8.5-.2.2-.4.5-.5.8-.1.3-.2.6-.2 1zm9.7 8.4c-.2-.3-.4-.5-.7-.7l-.6-.7c.4-.3.7-.7.9-1.1s.3-1 .3-1.6v-8.4h1.9v8.5c0 .9-.2 1.7-.5 2.4-.3.5-.8 1.1-1.3 1.6zm-.3-15.9c0-.3.1-.6.4-.9.2-.2.5-.3.8-.3.3 0 .6.1.8.3.2.2.4.5.4.9s-.1.6-.4.9c-.2.2-.5.3-.8.3-.3 0-.6-.1-.8-.3-.3-.3-.4-.6-.4-.9zm3.9 7.5c0-.6.1-1.2.4-1.7.2-.5.6-1 1-1.4.4-.4.9-.7 1.5-1 .6-.2 1.1-.4 1.8-.4.6 0 1.2.1 1.8.4.5.2 1 .6 1.4 1 .4.4.7.9.9 1.4.2.5.3 1.1.3 1.7s-.1 1.2-.3 1.7c-.2.5-.5 1-.9 1.4s-.9.7-1.4 1c-.5.2-1.1.4-1.8.4-.6 0-1.2-.1-1.8-.3-.5-.2-1-.5-1.4-.9-.4-.4-.7-.9-1-1.4-.4-.6-.5-1.2-.5-1.9zm1.9 0c0 .4.1.7.2 1 .1.3.3.6.5.8.2.2.5.4.8.6s.6.2 1 .2.7-.1 1-.2.6-.3.8-.6c.2-.2.4-.5.6-.8.1-.3.2-.6.2-1s-.1-.7-.2-1c-.1-.3-.3-.6-.6-.8-.2-.2-.5-.4-.8-.6-.3-.1-.6-.2-1-.2s-.7.1-1 .2c-.3.1-.6.3-.8.6-.2.2-.4.5-.5.8-.1.3-.2.7-.2 1zm13.7-2c-.4 0-.7 0-1.1.1-.3.1-.6.2-.9.4-.3.2-.5.4-.6.7-.2.3-.2.6-.2 1v3.9h-1.9v-8.5h1.7c0 .5.1.9.1 1.2 0 .3.1.6.1 1 .2-.4.4-.7.7-1l.9-.8c.3-.2.6-.4.9-.5.3-.1.6-.2.8-.2l-.5 2.7zm11.5 4c.2.3.4.5.6.7l.6.7c-.4.3-.8.5-1.3.7-.5.2-1 .3-1.5.3-.6 0-1.2-.1-1.8-.4-.6-.2-1-.6-1.4-1-.4-.4-.7-.9-1-1.4-.2-.5-.4-1.1-.4-1.7s.1-1.2.4-1.7c.2-.5.6-1 1-1.4.4-.4.9-.7 1.4-1 .6-.2 1.1-.4 1.8-.4.6 0 1.1.1 1.6.3.5.2.9.4 1.3.7l-1.2 1.4c-.5-.4-1-.5-1.7-.5-.4 0-.7.1-1.1.2-.3.1-.6.3-.8.5-.2.2-.4.5-.5.8-.1.3-.2.7-.2 1 0 .4.1.7.2 1 .1.3.3.6.5.8.2.2.5.4.8.6.3.1.7.2 1.1.2.6.2 1.2 0 1.6-.4zm2-2c0-.6.1-1.2.4-1.7.2-.5.6-1 1-1.4.4-.4.9-.7 1.5-1 .6-.2 1.1-.4 1.8-.4.6 0 1.2.1 1.8.4.5.2 1 .6 1.4 1 .4.4.7.9.9 1.4.2.5.3 1.1.3 1.7s-.1 1.2-.3 1.7c-.2.5-.5 1-.9 1.4s-.9.7-1.4 1c-.5.2-1.1.4-1.8.4-.6 0-1.2-.1-1.8-.3-.5-.2-1-.5-1.4-.9-.4-.4-.7-.9-1-1.4-.4-.6-.5-1.2-.5-1.9zm1.9 0c0 .4.1.7.2 1 .1.3.3.6.5.8.2.2.5.4.8.6s.6.2 1 .2.7-.1 1-.2.6-.3.8-.6c.2-.2.4-.5.6-.8.1-.3.2-.6.2-1s-.1-.7-.2-1c-.1-.3-.3-.6-.6-.8-.2-.2-.5-.4-.8-.6-.3-.1-.6-.2-1-.2s-.7.1-1 .2c-.3.1-.6.3-.8.6-.2.2-.4.5-.5.8-.1.3-.2.7-.2 1zm8.9-4.2h1.7c0 .5.1.9.1 1.2 0 .3.1.6.1 1 .3-.7.7-1.3 1.3-1.7s1.3-.7 2.1-.7c.9 0 1.6.2 2.1.7s.8 1.1.8 1.8v6.2h-1.9v-5.3c0-.4-.2-.8-.4-1.1-.3-.3-.7-.5-1.2-.5-.4 0-.7.1-1.1.2-.3.1-.6.3-.8.6-.2.2-.4.5-.5.9-.1.3-.2.7-.2 1.1v4.1h-1.9v-8.5zm15.3.7l-.3.4c-.1.2-.2.3-.3.4-.1.1-.2.3-.4.5-.1-.1-.3-.2-.4-.2-.1-.1-.3-.1-.4-.1l-.5-.1c-.2 0-.4 0-.6.1-.2.1-.3.3-.3.5s.1.4.3.6c.2.2.4.3.7.4.3.1.5.3.9.4s.6.3.9.5c.3.2.5.4.7.8.2.3.3.7.3 1.1 0 .4-.1.7-.2 1.1-.1.3-.3.6-.6.8-.3.2-.6.4-.9.5-.4.1-.8.2-1.2.2-.5 0-1.1-.1-1.6-.3-.5-.2-.9-.5-1.2-.8.1-.1.2-.2.3-.4l.4-.5c.1-.1.3-.3.4-.5l.1.1c.1.1.2.1.4.2.1.1.3.2.5.2.2.1.4.1.6.1.3 0 .6-.1.8-.2.2-.1.3-.3.3-.5s-.1-.4-.3-.5c-.2-.1-.4-.3-.7-.4-.3-.1-.5-.2-.9-.4-.3-.1-.6-.3-.9-.5-.3-.2-.5-.5-.7-.8-.2-.3-.3-.7-.3-1.2s.1-.9.3-1.2c.2-.3.4-.6.7-.8.3-.2.6-.3.9-.4.3-.1.6-.1.9-.1.4 0 .8.1 1.3.2l1 .8zm3-4.5h1.9v3.7h2.2v1.7h-2.2v6.8h-1.9v-6.8h-1.4v-1.7h1.4v-3.7zm12.6 11.3c-.4.4-.9.7-1.5.9-.6.2-1.2.3-1.8.3-.6 0-1.2-.1-1.8-.4-.6-.2-1-.6-1.4-1-.4-.4-.7-.9-1-1.4-.2-.5-.4-1.1-.4-1.7 0-.6.1-1.2.4-1.7.2-.5.6-1 1-1.4.4-.4.9-.7 1.4-1 .5-.2 1.1-.4 1.7-.4 1 0 1.8.3 2.5.9s1.2 1.3 1.6 2.3c-.4.1-.9.3-1.4.5l-1.6.6-1.7.7s-1.1.4-1.6.6c.2.4.5.7.9 1 .4.3.9.4 1.4.4.3 0 .7-.1 1-.2.4-.1.6-.3.9-.5l1.4 1.5zm-1.6-5c-.2-.3-.4-.5-.7-.6-.3-.1-.6-.2-.9-.2-.4 0-.7.1-1 .2-.3.1-.6.3-.8.6s-.4.5-.5.8-.2.6-.2.9v.1c.3-.1.7-.3 1.1-.4s.8-.3 1.1-.5c.4-.2.7-.3 1.1-.4.2-.3.5-.4.8-.5zm5.7 6h-1.9v-15.6h1.9v15.6zm4.3 0h-1.9v-15.6h1.9v15.6zm1.8-4.2c0-.6.1-1.2.4-1.8.2-.6.6-1 1-1.4.4-.4.9-.7 1.4-1 .5-.2 1.1-.4 1.7-.4.4 0 .8.1 1.1.2.3.1.6.2.8.3l.6.4.3.3.1-1h1.9v8.5h-1.9v-.9c-.1.1-.1.2-.3.3s-.3.2-.5.4c-.2.1-.5.2-.8.3-.3.1-.7.1-1.1.1-.7 0-1.3-.1-1.8-.4-.5-.2-1-.6-1.4-1s-.7-.9-.9-1.4c-.5-.4-.6-.9-.6-1.5zm1.9-.1c0 .4.1.7.2 1 .1.3.3.6.5.8.2.2.5.4.8.6.3.1.7.2 1.1.2.4 0 .7-.1 1.1-.2.3-.1.6-.3.8-.6.2-.2.4-.5.5-.8.1-.3.2-.7.2-1 0-.4-.1-.7-.2-1-.1-.3-.3-.6-.5-.8-.2-.2-.5-.4-.8-.5-.3-.1-.7-.2-1.1-.2-.4 0-.7.1-1.1.2-.3.1-.6.3-.8.5-.2.2-.4.5-.5.8-.1.3-.2.6-.2 1zm10.4-8h1.9v3.7h2.2v1.7h-2.2v6.8h-1.9v-6.8h-1.4v-1.7h1.4v-3.7zm5.3.5c0-.3.1-.6.4-.9.3-.2.5-.3.8-.3.3 0 .6.1.8.3.2.2.4.5.4.9s-.1.6-.4.9c-.2.2-.5.3-.8.3-.3 0-.6-.1-.8-.3-.3-.3-.4-.6-.4-.9zm2.1 11.8h-1.9v-8.5h1.9v8.5zm1.8-4.3c0-.6.1-1.2.4-1.7.2-.5.6-1 1-1.4.4-.4.9-.7 1.5-1 .6-.2 1.1-.4 1.8-.4.6 0 1.2.1 1.8.4.5.2 1 .6 1.4 1 .4.4.7.9.9 1.4.2.5.3 1.1.3 1.7s-.1 1.2-.3 1.7c-.2.5-.5 1-.9 1.4s-.9.7-1.4 1c-.5.2-1.1.4-1.8.4-.6 0-1.2-.1-1.8-.3-.5-.2-1-.5-1.4-.9-.4-.4-.7-.9-1-1.4-.3-.6-.5-1.2-.5-1.9zm1.9 0c0 .4.1.7.2 1 .1.3.3.6.5.8.2.2.5.4.8.6s.6.2 1 .2.7-.1 1-.2.6-.3.8-.6c.2-.2.4-.5.6-.8.1-.3.2-.6.2-1s-.1-.7-.2-1c-.1-.3-.3-.6-.6-.8-.2-.2-.5-.4-.8-.6-.3-.1-.6-.2-1-.2s-.7.1-1 .2c-.3.1-.6.3-.8.6-.2.2-.4.5-.5.8-.1.3-.2.7-.2 1zm9-4.2h1.7c0 .5.1.9.1 1.2 0 .3.1.6.1 1 .3-.7.7-1.3 1.3-1.7s1.3-.7 2.1-.7c.9 0 1.6.2 2.1.7s.8 1.1.8 1.8v6.2h-1.9v-5.3c0-.4-.2-.8-.4-1.1-.3-.3-.7-.5-1.2-.5-.4 0-.7.1-1.1.2-.3.1-.6.3-.8.6-.2.2-.4.5-.5.9-.1.3-.2.7-.2 1.1v4.1h-1.9v-8.5zm10.3 7.2c0-.3.1-.6.4-.9.3-.2.5-.4.8-.4.3 0 .6.1.8.4.3.2.4.5.4.9s-.1.7-.4.9c-.3.2-.5.3-.8.3-.3 0-.6-.1-.8-.3-.3-.2-.4-.5-.4-.9z"/></svg>