<svg xmlns="http://www.w3.org/2000/svg" viewBox="0 0 150 150" enable-background="new 0 0 150 150"><path d="M0 .5h150v150h-150z"/><circle fill="#fff" cx="43.1" cy="33.9" r="3.1"/><circle fill="#fff" cx="56.3" cy="41" r="3.1"/><circle fill="#fff" cx="62.4" cy="41" r="3.1"/><circle fill="#fff" cx="67.5" cy="38" r="3.1"/><circle fill="#fff" cx="70.5" cy="56.2" r="3.1"/><circle fill="#fff" cx="62.4" cy="59.3" r="3.1"/><circle fill="#fff" cx="68.5" cy="64.3" r="3.1"/><circle fill="#fff" cx="78.6" cy="56.2" r="3.1"/><circle fill="#fff" cx="90.8" cy="52.2" r="3.1"/><circle fill="#fff" cx="97.9" cy="34.9" r="3.1"/><circle fill="#fff" cx="96.9" cy="62.3" r="3.1"/><circle fill="#fff" cx="94.9" cy="75.5" r="3.1"/><circle fill="#fff" cx="100.9" cy="80.6" r="3.1"/><circle fill="#fff" cx="108" cy="65.4" r="3.1"/><circle fill="#fff" cx="124.3" cy="55.2" r="3.1"/><circle fill="#fff" cx="40.1" cy="54.2" r="3.1"/><circle fill="#fff" cx="29" cy="66.4" r="3.1"/><circle fill="#fff" cx="25.9" cy="70.4" r="3.1"/><circle fill="#fff" cx="40.1" cy="89.7" r="3.1"/><circle fill="#fff" cx="48.2" cy="102.9" r="3.1"/><circle fill="#fff" cx="64.4" cy="104.9" r="3.1"/><circle fill="#fff" cx="61.4" cy="95.8" r="3.1"/><path opacity=".5" stroke="#fff" stroke-miterlimit="10" d="M61.6 95.8l2.9 9.1-16.2-2-8.2-13.2-14.2-19.3 3.1-4 11.1-12.2 22.3 5.1 5.1 5.2 11.1-8h-7.9l-8.3-15h-5.9l-13.4-7.3" fill="none"/><path stroke="#fff" stroke-miterlimit="10" d="M67.5 38l-3.1 1.6" fill="none"/><path opacity=".5" stroke="#fff" stroke-miterlimit="10" d="M80.3 55.2l10.5-3 7.1-17.3m26.6 20.6l-16.4 9.8-11.1-3.2-2.3 13.1 6 5.2m-9.9-28.2l6.1 10.5" fill="none"/></svg>