<svg xmlns="http://www.w3.org/2000/svg" viewBox="0 0 150 150" enable-background="new 0 0 150 150"><path d="M-.1-.5h150v150h-150z"/><circle fill="#fff" cx="94.1" cy="12.7" r="3.1"/><circle fill="#fff" cx="92.1" cy="32.9" r="3.1"/><circle fill="#fff" cx="46.5" cy="110" r="3.1"/><circle fill="#fff" cx="71.8" cy="73.5" r="3.1"/><circle fill="#fff" cx="98.2" cy="84.6" r="3.1"/><circle fill="#fff" cx="77.9" cy="104.9" r="3.1"/><circle fill="#fff" cx="52.5" cy="44.1" r="3.1"/><circle fill="#fff" cx="58.6" cy="87.7" r="3.1"/><circle fill="#fff" cx="72.8" cy="51.2" r="3.1"/><circle fill="#fff" cx="89" cy="70.4" r="3.1"/><circle fill="#fff" cx="68.8" cy="119.1" r="3.1"/><circle fill="#fff" cx="87" cy="47.1" r="3.1"/><circle fill="#fff" cx="84" cy="107.9" r="3.1"/><path opacity=".5" stroke="#fff" stroke-miterlimit="10" d="M72.8 51.2l-1 22.3 26.4 11.1-9.2-14.2-2-23.3zm-26.3 58.8l12.1-22.3 13.2-14.2m-3 45.6l9.1-14.2 6.1 3 14.2-23.3m-4.1-71.9l-2 20.2-5.1 14.2m-34.5-3l20.3 7.1" fill="none"/></svg>