<svg xmlns="http://www.w3.org/2000/svg" viewBox="0 0 150 150" enable-background="new 0 0 150 150"><path d="M0 0h150v150h-150z"/><circle fill="#fff" cx="61.9" cy="24.3" r="3.1"/><circle fill="#fff" cx="59.9" cy="33.4" r="3.1"/><circle fill="#fff" cx="69" cy="19.2" r="3.1"/><circle fill="#fff" cx="81.2" cy="23.3" r="3.1"/><circle fill="#fff" cx="82.2" cy="35.5" r="3.1"/><circle fill="#fff" cx="77.1" cy="41.5" r="3.1"/><circle fill="#fff" cx="68" cy="40.5" r="3.1"/><circle fill="#fff" cx="71" cy="53.7" r="3.1"/><circle fill="#fff" cx="84.2" cy="84.1" r="3.1"/><circle fill="#fff" cx="90.3" cy="94.3" r="3.1"/><circle fill="#fff" cx="108.5" cy="112.5" r="3.1"/><circle fill="#fff" cx="121.7" cy="123.7" r="3.1"/><circle fill="#fff" cx="98.4" cy="120.6" r="3.1"/><circle fill="#fff" cx="77.1" cy="117.6" r="3.1"/><circle fill="#fff" cx="47.7" cy="117.6" r="3.1"/><circle fill="#fff" cx="41.6" cy="130.8" r="3.1"/><circle fill="#fff" cx="28.4" cy="123.7" r="3.1"/><path opacity=".5" stroke="#fff" stroke-miterlimit="10" d="M28.5 123.9l13.2 7.2 6-13.1h29.6l21.1 2.6 23.3 3.1-13.2-11.2-18.2-18.2-6.1-10.2-13.2-30.4-3-13.2-8.1-7.1 2-9.1 7.1-5.1 12.2 4.1 1 12.2-5.1 6-6.1-1" fill="none"/></svg>