<svg xmlns="http://www.w3.org/2000/svg" viewBox="0 0 150 150" enable-background="new 0 0 150 150"><path d="M0 0h150v150h-150z"/><circle fill="#fff" cx="78.6" cy="41" r="3.1"/><circle fill="#fff" cx="63.4" cy="79.6" r="3.1"/><circle fill="#fff" cx="76.6" cy="33.9" r="3.1"/><circle fill="#fff" cx="55.3" cy="102.9" r="3.1"/><circle fill="#fff" cx="55.3" cy="90.7" r="3.1"/><circle fill="#fff" cx="46.2" cy="99.8" r="3.1"/><circle fill="#fff" cx="45.1" cy="105.9" r="3.1"/><circle fill="#fff" cx="70.5" cy="99.8" r="3.1"/><circle fill="#fff" cx="84.7" cy="91.7" r="3.1"/><circle fill="#fff" cx="94.8" cy="87.7" r="3.1"/><circle fill="#fff" cx="94.8" cy="81.6" r="3.1"/><path opacity=".5" stroke="#fff" stroke-miterlimit="10" d="M76.4 33.7l2.1 7.2-15.2 38.6-8 11.2-9.2 9.1-1 6.1 10.2-3 15.2-3.1 14-8.1 10-4v-6.6l-14.9-37.2" fill="none"/></svg>