<svg xmlns="http://www.w3.org/2000/svg" viewBox="0 0 150 150" enable-background="new 0 0 150 150"><path d="M0 0h150v150h-150z"/><circle fill="#fff" cx="36.3" cy="47.6" r="3.1"/><circle fill="#fff" cx="53.6" cy="29.4" r="3.1"/><circle fill="#fff" cx="68.8" cy="51.7" r="3.1"/><circle fill="#fff" cx="72.8" cy="65.9" r="3.1"/><circle fill="#fff" cx="74.8" cy="71.9" r="3.1"/><circle fill="#fff" cx="77.9" cy="78" r="3.1"/><circle fill="#fff" cx="68.8" cy="75" r="3.1"/><circle fill="#fff" cx="64.7" cy="74" r="3.1"/><circle fill="#fff" cx="87" cy="89.2" r="3.1"/><circle fill="#fff" cx="111.3" cy="103.4" r="3.1"/><circle fill="#fff" cx="114.4" cy="107.4" r="3.1"/><path opacity=".5" stroke="#fff" stroke-miterlimit="10" d="M36.3 47.6l28.4 26.4 4.1 1 9.1 3 9.1 11.2 24.3 14.2 3.1 4m-60.8-78l15.2 22.3 4 14.2 2 6 3.1 3.1" fill="none"/></svg>