<svg xmlns="http://www.w3.org/2000/svg" viewBox="0 0 150 150" enable-background="new 0 0 150 150"><path d="M-.5-.5h150v150h-150z"/><circle fill="#fff" cx="42.4" cy="61.3" r="3.1"/><circle fill="#fff" cx="40.4" cy="55.2" r="3.1"/><circle fill="#fff" cx="58.6" cy="68.4" r="3.1"/><circle fill="#fff" cx="70.8" cy="73.5" r="3.1"/><circle fill="#fff" cx="96.1" cy="80.6" r="3.1"/><circle fill="#fff" cx="102.2" cy="70.4" r="3.1"/><circle fill="#fff" cx="48.5" cy="43.1" r="3.1"/><circle fill="#fff" cx="55.6" cy="42.1" r="3.1"/><circle fill="#fff" cx="63.7" cy="45.1" r="3.1"/><circle fill="#fff" cx="90.1" cy="58.3" r="3.1"/><circle fill="#fff" cx="104.2" cy="62.3" r="3.1"/><circle fill="#fff" cx="110.3" cy="61.3" r="3.1"/><circle fill="#fff" cx="91.1" cy="92.7" r="3.1"/><path opacity=".5" stroke="#fff" stroke-miterlimit="10" d="M91.1 92.7l5-12.1-25.3-7.1-12.2-5.1-16.2-7.1-2-6.1 8.1-12.1 7.1-1 8.1 3 26.4 13.2 14.1 4-2 8.1-4.4 7.6m12.5-16.7l-6.1 1" fill="none"/></svg>