<svg xmlns="http://www.w3.org/2000/svg" viewBox="0 0 150 150" enable-background="new 0 0 150 150"><g><path fill="#020202" d="M0 0h150v150h-150z"/><circle fill="#fff" cx="105.3" cy="20.3" r="3.1"/><circle fill="#fff" cx="73.8" cy="41.5" r="3.1"/><circle fill="#fff" cx="46.5" cy="59.8" r="3.1"/><circle fill="#fff" cx="70.8" cy="69.9" r="3.1"/><circle fill="#fff" cx="92.1" cy="66.9" r="3.1"/><circle fill="#fff" cx="46.5" cy="73" r="3.1"/><circle fill="#fff" cx="37.3" cy="75" r="3.1"/><circle fill="#fff" cx="37.3" cy="81.1" r="3.1"/><circle fill="#fff" cx="58.6" cy="109.5" r="3.1"/><circle fill="#fff" cx="64.7" cy="94.3" r="3.1"/><circle fill="#fff" cx="79.9" cy="94.3" r="3.1"/><circle fill="#fff" cx="86" cy="97.3" r="3.1"/><circle fill="#fff" cx="99.2" cy="106.4" r="3.1"/><path opacity=".5" stroke="#fff" stroke-miterlimit="10" fill="none" d="M105 19.8l-31.3 21.5-27.2 18.5v12.7l-10 2.5v5.6l21.9 29 6.3-15.1h15.4l5.9 2.9 13.2 9.1M92.1 66.9l-21.3 3-24.7-10.1"/></g></svg>